<svg width="768" height="662" viewBox="0 0 768 662" fill="none" xmlns="http://www.w3.org/2000/svg">
<g clip-path="url(#clip0)">
<rect x="-1142" width="1920" height="662" fill="white"/>
<path fill-rule="evenodd" clip-rule="evenodd" d="M-347.5 518.317C-88.1627 515.503 -111 261.133 210.5 356.817C532 452.5 619 152.817 780.5 381.317C942 609.817 924.622 658.749 863 710.317C801.263 761.98 503.492 754.74 361.611 793.551C179.207 843.447 89.9199 933.353 -170.004 940.147C-426.044 946.84 -592.366 869.571 -783.053 823.472C-950.797 782.919 -1038.6 849.659 -1122.49 793.551C-1210.47 734.705 -1197.65 632.082 -1140.99 570.555C-1081.12 505.556 -1039.05 445.573 -829.5 408.817C-623.656 372.712 -593.599 520.986 -347.5 518.317Z" fill="#9BCDA1"/>
<path d="M656.112 581.473C710.174 581.473 754 577.022 754 571.532C754 566.042 710.174 561.592 656.112 561.592C602.05 561.592 558.225 566.042 558.225 571.532C558.225 577.022 602.05 581.473 656.112 581.473Z" fill="#56AE73"/>
<path d="M629.67 122.473C629.67 122.473 629.67 154.371 632.671 179.126V179.137C633.63 187.046 634.897 194.225 636.563 199.406L618.451 159.644L622.753 151.632C622.753 151.632 617.093 148.539 617.093 147.181C617.093 145.823 610.747 125.383 610.747 125.383L630.845 121.354L654.983 123.112C647.679 124.367 631.963 124.767 629.67 122.473Z" fill="#A6A6A6"/>
<path d="M595.18 186.304L565.655 227.379L523.45 200.513L563.988 216.058L595.18 186.304Z" fill="black"/>
<path d="M601.24 337.855L593.296 337.045L596.914 183.885L601.24 337.855Z" fill="black"/>
<path d="M666.259 150.114L659.913 156.46L661.728 162.383L638.548 199.395C640.066 195.275 642.383 188.986 644.814 180.769C648.968 166.754 653.465 147.147 654.983 123.1L672.068 129.571L666.259 150.114Z" fill="#A6A6A6"/>
<path d="M690.728 257.292L695.715 347.476L694.163 347.316L646.857 342.5L639.724 341.781L601.24 337.855L601.217 337.239L596.915 183.885L595.169 186.304L563.977 216.058L523.439 200.513L494.941 182.367L502.497 168.318L558.237 194.145L592.418 130.404L610.724 125.371C610.724 125.371 617.07 145.812 617.07 147.17C617.07 148.528 622.731 151.621 622.731 151.621L618.428 159.633L636.54 199.395C634.874 194.225 633.607 187.035 632.648 179.126V179.114C629.647 154.36 629.647 122.461 629.647 122.461C631.941 124.755 647.645 124.344 654.96 123.089C653.454 147.136 648.946 166.754 644.791 180.758C642.361 188.975 640.044 195.263 638.526 199.383L661.705 162.372L659.891 156.449L666.236 150.103L672.045 129.549L698.009 139.204L726.507 211.504L690.728 257.292Z" fill="#3C3C3B"/>
<path d="M691.173 257.714L691.629 215.076" stroke="white" stroke-width="0.7498" stroke-miterlimit="10"/>
<path d="M679.771 258.878L657.71 261.355L655.61 258.262L677.671 255.786L679.771 258.878Z" fill="#A6A6A6"/>
<path d="M602.895 256.094L624.955 258.57L627.055 255.477L604.983 252.989L602.895 256.094Z" fill="#A6A6A6"/>
<path d="M642.463 145.812C644.335 154.486 645.02 170.589 644.814 180.769C642.383 188.986 640.066 195.275 638.548 199.395C638.16 200.445 637.829 201.358 637.556 202.111C637.213 201.278 636.882 200.376 636.563 199.395C634.896 194.225 633.63 187.035 632.671 179.126V179.114C633.744 164.711 638.617 145.949 638.617 145.949L635.444 139.455L641.105 134.353L645.864 140.06C645.864 140.071 642.646 146.725 642.463 145.812Z" fill="#2EAC62"/>
<path d="M644.814 180.769C645.019 170.589 644.334 154.497 642.463 145.812C642.657 146.725 645.864 140.071 645.864 140.071L641.105 134.365L635.444 139.466L638.617 145.96C638.617 145.96 633.755 164.711 632.671 179.126C629.669 154.371 629.669 122.473 629.669 122.473C631.963 124.767 647.667 124.356 654.983 123.1C653.465 147.147 648.968 166.754 644.814 180.769Z" fill="white"/>
<path d="M654.982 123.1C654.982 123.1 642.634 133.292 641.161 133.292C639.838 133.292 631.552 124.493 629.954 122.769C646.537 120.92 652.472 107.739 653.67 103.253L654.138 103.105L654.982 123.1Z" fill="#F5AA93"/>
<path d="M636.562 341.45L637.555 201.301" stroke="white" stroke-width="0.752" stroke-miterlimit="10"/>
<path d="M500.739 171.605H455.989C455.989 171.605 451.31 173.305 452.794 174.8C454.289 176.295 470.94 180.769 475.927 180.769C480.915 180.769 496.63 179.263 496.63 179.263L500.739 171.605Z" fill="#F5AA93"/>
<path d="M639.724 341.781L638.936 346.928L595.065 343.094L595.134 337.239H601.217L601.24 337.855L639.724 341.781Z" fill="black"/>
<path d="M638.936 346.928L606.204 560.005H592.84L595.065 343.094L638.936 346.928Z" fill="#3C3C3B"/>
<path d="M694.711 351.79L648.295 347.739L646.857 342.5L694.163 347.316L694.711 351.79Z" fill="black"/>
<path d="M593.97 557.974C593.399 562.961 564.81 572.205 567.23 574.625C569.387 576.782 582.979 577.684 586.038 576.097C592.338 572.833 592.84 570.208 595.328 570.208C597.816 570.208 603.488 571.703 605.075 566.921C606.661 562.139 605.543 557.974 605.543 557.974H593.97Z" fill="black"/>
<path d="M719.226 556.616C722.672 562.493 747.312 579.396 744.322 581.062C741.663 582.545 728.344 579.692 725.834 577.341C720.664 572.479 720.903 570.767 718.507 570.094C716.11 569.409 709.217 569.375 709 564.342C708.783 559.309 712.024 554.573 712.024 554.573L719.226 556.616Z" fill="black"/>
<path d="M720.413 558.419L717.388 559.149L694.711 351.79L720.413 558.419Z" fill="#3C3C3B"/>
<path d="M717.388 559.149L707.151 561.592L648.295 347.739L694.711 351.79L717.388 559.149Z" fill="#3C3C3B"/>
<path d="M691.173 187.503V216.731L697.747 205.626L691.173 187.503Z" fill="white"/>
<path d="M653.67 103.265C652.472 107.75 646.537 120.92 629.955 122.781C629.772 122.587 629.681 122.484 629.681 122.484C629.681 122.484 630.057 111.436 630.057 110.455L653.67 103.265Z" fill="#DD7961"/>
<path d="M656.672 63.4228C652.05 62.6353 650.908 64.8151 643.753 64.2445C629.715 63.1374 627.991 72.4046 623.404 75.5774C618.564 72.9867 616.396 69.1976 615.506 67.2575C615.506 67.2575 619.204 69.3004 622.456 66.0477C634.177 54.3268 640.956 60.7636 644.814 60.7636C649.836 60.7636 653.762 61.688 656.672 63.4228Z" fill="#85373A"/>
<path d="M625.709 76.6273C624.864 84.3309 626.302 105.102 627.193 108.047C627.661 109.565 631.05 111.756 635.056 114.21C638.822 116.526 655.108 106.734 655.565 100.765C656.238 91.8862 656.056 93.1416 656.056 93.1416C657.185 93.1416 665.117 96.885 663.759 88.2684C662.401 79.6517 656.74 86.739 655.314 86.739C653.944 84.7076 652.883 73.7627 652.883 73.7627L625.709 76.6273Z" fill="#F5AA93"/>
<path d="M639.404 80.9415C640.614 80.0285 644.78 78.9442 646.56 81.2839C647.587 82.642 646.047 82.2083 645.373 82.117C644.7 82.0257 641.744 81.5806 639.507 82.0714C638.834 82.2083 638.297 81.7746 639.404 80.9415Z" fill="#66282D"/>
<path d="M643.364 87.287C644.367 87.287 645.179 86.4745 645.179 85.4723C645.179 84.4702 644.367 83.6577 643.364 83.6577C642.362 83.6577 641.55 84.4702 641.55 85.4723C641.55 86.4745 642.362 87.287 643.364 87.287Z" fill="#85373A"/>
<path d="M644.095 85.05C644.416 85.05 644.677 84.7894 644.677 84.4679C644.677 84.1465 644.416 83.8859 644.095 83.8859C643.773 83.8859 643.513 84.1465 643.513 84.4679C643.513 84.7894 643.773 85.05 644.095 85.05Z" fill="white"/>
<path d="M633.801 88.6565C634.874 83.224 632.089 81.843 630.97 81.7061C630.97 81.7061 626.542 78.0083 625.458 81.7061C625.458 81.7061 625.846 106.449 627.204 108.047C631.256 112.84 636.266 114.769 636.243 114.552C630.388 111.197 637.43 106.563 633.812 104.03L632.911 99.704C633.538 99.0763 634.36 97.2275 634.36 96.6797C634.36 96.6797 631.792 93.3585 633.949 88.257L633.801 88.6565Z" fill="#DD7961"/>
<path d="M648.431 76.3307C645.966 78.7959 628.345 83.3952 625.4 76.5019C630.399 78.5219 637.738 79.2181 648.431 76.3307Z" fill="#DD7961"/>
<path d="M660.472 86.8418C661.237 87.6065 660.986 90.745 657.642 89.9004C654.298 89.0559 661.214 90.0716 660.415 91.3156" stroke="#85373A" stroke-miterlimit="10"/>
<path d="M630.651 80.679C629.909 79.5948 627.158 77.9399 625.697 80.0056C624.853 81.204 625.949 80.9871 626.428 80.9871C626.896 80.9871 628.973 80.9643 630.468 81.7746C630.913 82.0143 631.324 81.6605 630.651 80.679Z" fill="#66282D"/>
<path d="M633.926 88.2571C633.173 90.9733 629.852 92.788 630.456 95.2075C631.061 97.627 633.173 96.4172 634.531 97.0221L633.926 88.2571Z" fill="#F5AA93"/>
<path d="M640.306 99.7041C640.306 99.8296 640.283 99.9666 640.249 100.092C638.959 100.72 636.859 101.29 633.675 101.29C631.016 101.29 629.818 100.663 629.019 99.9894C628.985 99.8981 628.95 99.7954 628.916 99.7041H640.306Z" fill="white"/>
<path d="M640.249 100.092C639.975 101.142 638.743 102.352 637.887 103.162C637.636 102.751 637.168 102.146 635.421 102.146C632.317 102.146 631.975 103.151 631.598 103.687C631.495 103.653 631.416 103.619 631.381 103.584C630.388 102.58 629.498 101.348 629.03 99.9894C629.829 100.663 631.016 101.29 633.687 101.29C636.859 101.29 638.959 100.72 640.249 100.092Z" fill="#B55846"/>
<path d="M637.898 103.162C637.692 103.356 637.51 103.527 637.373 103.664C636.654 104.383 632.625 104.018 631.609 103.687C631.986 103.151 632.328 102.146 635.433 102.146C637.179 102.146 637.647 102.751 637.898 103.162Z" fill="#ED7B88"/>
<path d="M628.196 87.6636C629.199 87.6636 630.011 86.8511 630.011 85.8489C630.011 84.8467 629.199 84.0343 628.196 84.0343C627.194 84.0343 626.382 84.8467 626.382 85.8489C626.382 86.8511 627.194 87.6636 628.196 87.6636Z" fill="#85373A"/>
<path d="M628.927 85.4267C629.249 85.4267 629.509 85.1661 629.509 84.8446C629.509 84.5232 629.249 84.2626 628.927 84.2626C628.606 84.2626 628.345 84.5232 628.345 84.8446C628.345 85.1661 628.606 85.4267 628.927 85.4267Z" fill="white"/>
<path d="M655.325 86.7277C654.572 85.4609 652.232 80.1197 648.432 76.3192C637.749 79.2066 630.411 78.5105 625.401 76.4904C624.693 76.2051 624.031 75.8969 623.403 75.566C627.98 72.3932 629.715 63.126 643.752 64.233C650.92 64.8037 652.049 62.6124 656.672 63.4113C660.038 65.42 662.036 68.5128 662.777 72.5416C664.25 80.405 658.418 85.7462 655.325 86.7277Z" fill="#66282D"/>
<path d="M601.24 342.5L592.84 560.005L595.134 337.239L601.24 342.5Z" fill="black"/>
<path d="M421.305 171.605H533.756C535.034 171.605 536.061 170.578 536.061 169.299V168.158C536.061 166.88 535.034 165.853 533.756 165.853H421.305C420.027 165.853 419 166.88 419 168.158V169.299C419 170.578 420.027 171.605 421.305 171.605Z" fill="black"/>
<path d="M505.897 106.906C505.897 119.95 501.526 130.519 496.128 130.519C494.439 130.519 492.852 129.491 491.471 127.665C503.455 118.855 501.218 99.978 499.46 93.0504H504.037C505.212 96.9536 505.897 101.736 505.897 106.906Z" fill="white" stroke="#F9B233" stroke-width="1.3393" stroke-miterlimit="10"/>
<path d="M491.049 128.35C487.865 124.173 485.708 116.013 485.708 106.643C485.708 101.233 486.427 96.2346 487.648 92.1716H499.403C501.241 99.4188 503.58 119.151 491.049 128.35Z" fill="#F9B233"/>
<path d="M496.128 167.416V130.53" stroke="#F9B233" stroke-width="2.6786" stroke-miterlimit="10"/>
<path d="M496.128 167.907C504.826 167.907 511.877 166.921 511.877 165.704C511.877 164.488 504.826 163.502 496.128 163.502C487.429 163.502 480.378 164.488 480.378 165.704C480.378 166.921 487.429 167.907 496.128 167.907Z" fill="#F9B233"/>
<path d="M464.662 106.906C464.662 119.95 460.291 130.519 454.893 130.519C453.204 130.519 451.617 129.491 450.236 127.665C462.22 118.855 459.983 99.978 458.225 93.0504H462.802C463.966 96.9536 464.662 101.736 464.662 106.906Z" fill="white" stroke="#F9B233" stroke-width="1.3393" stroke-miterlimit="10"/>
<path d="M449.803 128.35C446.619 124.173 444.462 116.013 444.462 106.643C444.462 101.233 445.181 96.2346 446.402 92.1716H458.157C459.995 99.4188 462.334 119.151 449.803 128.35Z" fill="#F9B233"/>
<path d="M454.894 167.416V130.53" stroke="#F9B233" stroke-width="2.6786" stroke-miterlimit="10"/>
<path d="M454.893 167.907C463.592 167.907 470.643 166.921 470.643 165.704C470.643 164.488 463.592 163.502 454.893 163.502C446.195 163.502 439.144 164.488 439.144 165.704C439.144 166.921 446.195 167.907 454.893 167.907Z" fill="#F9B233"/>
<path d="M63.4058 621.673H70.1178L65.1198 631.779L63.4058 621.673Z" fill="white" stroke="black" stroke-width="2.385" stroke-miterlimit="10"/>
<path d="M73.6309 675.42H67.4111L59.4941 635.233H65.7055L73.6309 675.42Z" fill="#A6A6A6" stroke="black" stroke-width="2.385" stroke-miterlimit="10"/>
<path d="M-15 596.276C-6.67575 605.593 -3.34097 622.25 34.954 614.257C25.62 601.936 12.6372 592.279 -15 596.276Z" fill="#2EAC62"/>
<path d="M57.2285 635.233L65.714 613.756" stroke="#006633" stroke-width="2.385" stroke-miterlimit="10"/>
<path d="M84.3648 581.248C92.5617 599.059 69.9479 613.756 65.7052 613.756C64.5851 604.422 71.6451 588.317 84.3648 581.248Z" fill="#2EAC62"/>
<path d="M70.1177 621.673L72.2136 617.43L79.002 619.221" stroke="#006633" stroke-width="2.385" stroke-miterlimit="10"/>
<path d="M65.1198 631.779L63.4058 635.233" stroke="#020203" stroke-width="2.385" stroke-miterlimit="10"/>
<path d="M-15 596.276C-9.50141 601.775 10.3122 614.257 34.954 614.257L45.2808 619.255L49.6084 635.241" stroke="#006633" stroke-width="2.8097" stroke-miterlimit="10"/>
<path d="M184.629 518.439C172.783 524.362 158.875 527.926 146.444 531.091C137.543 533.356 129.388 535.418 123.27 537.989C122.176 538.456 121.149 538.931 120.19 539.432C118.077 540.526 116.321 541.731 114.997 543.072C117.577 534.29 122.142 520.925 129.643 508.502C136.287 497.505 145.231 487.246 157.144 481.578C161.345 479.575 165.91 478.15 170.874 477.471C182.304 475.876 195.838 478.201 211.816 486.491C208.77 502.036 198.01 511.744 184.629 518.439Z" fill="#2EAC62"/>
<path d="M84.3647 581.248C85.96 586.594 83.5077 599.976 65.4336 614.231" stroke="#006633" stroke-width="2.385" stroke-miterlimit="10"/>
<path d="M211.825 486.482C122.702 493.415 82.5571 583.064 108.777 621.673" stroke="#006633" stroke-width="2.385" stroke-miterlimit="10"/>
<path d="M173.759 577.37C164.349 587.901 160.581 606.739 117.289 597.702C127.828 583.777 142.507 572.856 173.759 577.37Z" fill="#2EAC62"/>
<path d="M173.759 577.37C167.548 583.582 145.146 597.702 117.288 597.702L105.621 603.353L100.725 621.427" stroke="#006633" stroke-width="2.3846" stroke-miterlimit="10"/>
<path d="M67.4109 675.42H46.4942L37.1602 635.233H59.4939L67.4109 675.42Z" fill="white" stroke="black" stroke-width="2.385" stroke-miterlimit="10"/>
<path d="M97.8313 631.262C86.2487 634.512 76.9231 627.121 77.7887 622.343L94.7511 627.367C94.7511 627.367 97.0507 630.489 97.8313 631.262Z" fill="#A6A6A6"/>
<path d="M78.7135 675.42H106.13L115.456 621.673H91.5521C95.7778 623.667 98.9768 626.018 97.7889 626.34C96.7197 626.62 95.6675 626.832 94.6323 626.968C94.6323 626.968 96.9318 630.082 97.7125 630.863C86.1298 634.113 76.8043 626.722 77.6698 621.945C77.6274 621.86 77.5935 621.766 77.568 621.681H70.1093L65.1113 631.788V631.796L65.6968 635.25" fill="white"/>
<path d="M78.7135 675.42H106.13L115.456 621.673H91.5521C95.7778 623.667 98.9768 626.018 97.7889 626.34C96.7197 626.62 95.6675 626.832 94.6323 626.968C94.6323 626.968 96.9318 630.082 97.7125 630.863C86.1298 634.113 76.8043 626.722 77.6698 621.945C77.6274 621.86 77.5935 621.766 77.568 621.681H70.1093L65.1113 631.788V631.796L65.6968 635.25" stroke="black" stroke-width="2.385" stroke-miterlimit="10"/>
<path d="M97.7972 626.332C96.7281 626.612 95.6759 626.824 94.6406 626.96C86.0703 628.139 78.9765 624.753 77.6782 621.936C77.6357 621.851 77.6018 621.758 77.5764 621.673C77.2454 620.689 77.6527 619.798 79.0019 619.221C81.0808 618.321 84.4496 618.941 87.7928 620.112C89.0826 620.57 90.3639 621.105 91.5604 621.673C95.7777 623.659 98.9767 626.018 97.7972 626.332Z" fill="#2EAC62" stroke="#006633" stroke-width="2.385" stroke-miterlimit="10"/>
<path d="M65.3657 633.383L73.6645 675.42H78.9849" fill="white"/>
<path d="M65.3657 633.383L73.6645 675.42H78.9849" stroke="black" stroke-width="2.4948" stroke-miterlimit="10"/>
</g>
<defs>
<clipPath id="clip0">
<rect width="768" height="662" fill="white"/>
</clipPath>
</defs>
</svg>
