<svg width="574" height="633" viewBox="0 0 574 633" fill="none" xmlns="http://www.w3.org/2000/svg">
<g clip-path="url(#clip0)">
<rect x="-1142" width="1920" height="662" fill="white"/>
<path fill-rule="evenodd" clip-rule="evenodd" d="M-347.5 518.317C-88.1627 515.503 -111 261.133 210.5 356.817C532 452.5 619 152.817 780.5 381.317C942 609.817 924.622 658.749 863 710.317C801.263 761.98 503.492 754.74 361.611 793.551C179.207 843.447 89.9199 933.353 -170.004 940.147C-426.044 946.84 -592.366 869.571 -783.053 823.472C-950.797 782.919 -1038.6 849.659 -1122.49 793.551C-1210.47 734.705 -1197.65 632.082 -1140.99 570.555C-1081.12 505.556 -1039.05 445.573 -829.5 408.817C-623.656 372.712 -593.599 520.986 -347.5 518.317Z" fill="#9BCDA1"/>
<path d="M497.112 569.473C551.174 569.473 595 565.022 595 559.532C595 554.042 551.174 549.592 497.112 549.592C443.05 549.592 399.225 554.042 399.225 559.532C399.225 565.022 443.05 569.473 497.112 569.473Z" fill="#56AE73"/>
<path d="M470.67 110.473C470.67 110.473 470.67 142.371 473.671 167.126V167.137C474.63 175.046 475.897 182.225 477.563 187.406L459.451 147.644L463.753 139.632C463.753 139.632 458.093 136.539 458.093 135.181C458.093 133.823 451.747 113.383 451.747 113.383L471.845 109.354L495.983 111.112C488.679 112.367 472.963 112.767 470.67 110.473Z" fill="#A6A6A6"/>
<path d="M436.18 174.304L406.655 215.379L364.45 188.513L404.988 204.058L436.18 174.304Z" fill="black"/>
<path d="M442.24 325.855L434.296 325.045L437.914 171.885L442.24 325.855Z" fill="black"/>
<path d="M507.259 138.114L500.913 144.46L502.728 150.383L479.548 187.395C481.066 183.275 483.383 176.986 485.814 168.769C489.968 154.754 494.465 135.147 495.983 111.1L513.068 117.571L507.259 138.114Z" fill="#A6A6A6"/>
<path d="M531.728 245.292L536.715 335.476L535.163 335.316L487.857 330.5L480.724 329.781L442.24 325.855L442.217 325.239L437.915 171.885L436.169 174.304L404.977 204.058L364.439 188.513L335.941 170.367L343.497 156.318L399.237 182.145L433.418 118.404L451.724 113.371C451.724 113.371 458.07 133.812 458.07 135.17C458.07 136.528 463.731 139.621 463.731 139.621L459.428 147.633L477.54 187.395C475.874 182.225 474.607 175.035 473.648 167.126V167.114C470.647 142.36 470.647 110.461 470.647 110.461C472.941 112.755 488.645 112.344 495.96 111.089C494.454 135.136 489.946 154.754 485.791 168.758C483.361 176.975 481.044 183.263 479.526 187.383L502.705 150.372L500.891 144.449L507.236 138.103L513.045 117.549L539.009 127.204L567.507 199.504L531.728 245.292Z" fill="#3C3C3B"/>
<path d="M532.173 245.714L532.629 203.076" stroke="white" stroke-width="0.7498" stroke-miterlimit="10"/>
<path d="M520.771 246.878L498.71 249.355L496.61 246.262L518.671 243.786L520.771 246.878Z" fill="#A6A6A6"/>
<path d="M443.895 244.094L465.955 246.57L468.055 243.477L445.983 240.989L443.895 244.094Z" fill="#A6A6A6"/>
<path d="M483.463 133.812C485.335 142.486 486.02 158.589 485.814 168.769C483.383 176.986 481.066 183.275 479.548 187.395C479.16 188.445 478.829 189.358 478.556 190.111C478.213 189.278 477.882 188.376 477.563 187.395C475.896 182.225 474.63 175.035 473.671 167.126V167.114C474.744 152.711 479.617 133.949 479.617 133.949L476.444 127.455L482.105 122.353L486.864 128.06C486.864 128.071 483.646 134.725 483.463 133.812Z" fill="#2EAC62"/>
<path d="M485.814 168.769C486.019 158.589 485.334 142.497 483.463 133.812C483.657 134.725 486.864 128.071 486.864 128.071L482.105 122.365L476.444 127.466L479.617 133.96C479.617 133.96 474.755 152.711 473.671 167.126C470.669 142.371 470.669 110.473 470.669 110.473C472.963 112.767 488.667 112.356 495.983 111.1C494.465 135.147 489.968 154.754 485.814 168.769Z" fill="white"/>
<path d="M495.982 111.1C495.982 111.1 483.634 121.292 482.161 121.292C480.838 121.292 472.552 112.493 470.954 110.769C487.537 108.92 493.472 95.7387 494.67 91.2535L495.138 91.1051L495.982 111.1Z" fill="#F5AA93"/>
<path d="M477.562 329.45L478.555 189.301" stroke="white" stroke-width="0.752" stroke-miterlimit="10"/>
<path d="M341.739 159.605H296.989C296.989 159.605 292.31 161.305 293.794 162.8C295.289 164.295 311.94 168.769 316.927 168.769C321.915 168.769 337.63 167.263 337.63 167.263L341.739 159.605Z" fill="#F5AA93"/>
<path d="M480.724 329.781L479.936 334.928L436.065 331.094L436.134 325.239H442.217L442.24 325.855L480.724 329.781Z" fill="black"/>
<path d="M479.936 334.928L447.204 548.005H433.84L436.065 331.094L479.936 334.928Z" fill="#3C3C3B"/>
<path d="M535.711 339.79L489.295 335.739L487.857 330.5L535.163 335.316L535.711 339.79Z" fill="black"/>
<path d="M434.97 545.974C434.399 550.961 405.81 560.205 408.23 562.625C410.387 564.782 423.979 565.684 427.038 564.097C433.338 560.833 433.84 558.208 436.328 558.208C438.816 558.208 444.488 559.703 446.075 554.921C447.661 550.139 446.543 545.974 446.543 545.974H434.97Z" fill="black"/>
<path d="M560.226 544.616C563.672 550.493 588.312 567.396 585.322 569.062C582.663 570.545 569.344 567.692 566.834 565.341C561.664 560.479 561.903 558.767 559.507 558.094C557.11 557.409 550.217 557.375 550 552.342C549.783 547.309 553.024 542.573 553.024 542.573L560.226 544.616Z" fill="black"/>
<path d="M561.413 546.419L558.388 547.149L535.711 339.79L561.413 546.419Z" fill="#3C3C3B"/>
<path d="M558.388 547.149L548.151 549.592L489.295 335.739L535.711 339.79L558.388 547.149Z" fill="#3C3C3B"/>
<path d="M532.173 175.503V204.731L538.747 193.626L532.173 175.503Z" fill="white"/>
<path d="M494.67 91.2649C493.472 95.7501 487.537 108.92 470.955 110.781C470.772 110.587 470.681 110.484 470.681 110.484C470.681 110.484 471.057 99.4365 471.057 98.455L494.67 91.2649Z" fill="#DD7961"/>
<path d="M497.672 51.4228C493.05 50.6353 491.908 52.8151 484.753 52.2445C470.715 51.1374 468.991 60.4046 464.404 63.5774C459.564 60.9867 457.396 57.1976 456.506 55.2575C456.506 55.2575 460.204 57.3004 463.456 54.0477C475.177 42.3268 481.956 48.7636 485.814 48.7636C490.836 48.7636 494.762 49.688 497.672 51.4228Z" fill="#85373A"/>
<path d="M466.709 64.6273C465.864 72.3309 467.302 93.1022 468.193 96.0467C468.661 97.5646 472.05 99.7559 476.056 102.21C479.822 104.526 496.108 94.7343 496.565 88.7654C497.238 79.8862 497.056 81.1416 497.056 81.1416C498.185 81.1416 506.117 84.885 504.759 76.2684C503.401 67.6517 497.74 74.739 496.314 74.739C494.944 72.7076 493.883 61.7627 493.883 61.7627L466.709 64.6273Z" fill="#F5AA93"/>
<path d="M480.404 68.9415C481.614 68.0285 485.78 66.9442 487.56 69.2839C488.587 70.642 487.047 70.2083 486.373 70.117C485.7 70.0257 482.744 69.5806 480.507 70.0714C479.834 70.2083 479.297 69.7746 480.404 68.9415Z" fill="#66282D"/>
<path d="M484.364 75.287C485.367 75.287 486.179 74.4745 486.179 73.4723C486.179 72.4702 485.367 71.6577 484.364 71.6577C483.362 71.6577 482.55 72.4702 482.55 73.4723C482.55 74.4745 483.362 75.287 484.364 75.287Z" fill="#85373A"/>
<path d="M485.095 73.05C485.416 73.05 485.677 72.7894 485.677 72.4679C485.677 72.1465 485.416 71.8859 485.095 71.8859C484.773 71.8859 484.513 72.1465 484.513 72.4679C484.513 72.7894 484.773 73.05 485.095 73.05Z" fill="white"/>
<path d="M474.801 76.6565C475.874 71.224 473.089 69.843 471.97 69.7061C471.97 69.7061 467.542 66.0083 466.458 69.7061C466.458 69.7061 466.846 94.449 468.204 96.0468C472.256 100.84 477.266 102.769 477.243 102.552C471.388 99.1967 478.43 94.5631 474.812 92.0295L473.911 87.704C474.538 87.0763 475.36 85.2275 475.36 84.6797C475.36 84.6797 472.792 81.3585 474.949 76.257L474.801 76.6565Z" fill="#DD7961"/>
<path d="M489.431 64.3307C486.966 66.7959 469.345 71.3952 466.4 64.5019C471.399 66.5219 478.738 67.2181 489.431 64.3307Z" fill="#DD7961"/>
<path d="M501.472 74.8418C502.237 75.6065 501.986 78.745 498.642 77.9004C495.298 77.0559 502.214 78.0716 501.415 79.3156" stroke="#85373A" stroke-miterlimit="10"/>
<path d="M471.651 68.679C470.909 67.5948 468.158 65.9399 466.697 68.0056C465.853 69.204 466.949 68.9871 467.428 68.9871C467.896 68.9871 469.973 68.9643 471.468 69.7746C471.913 70.0143 472.324 69.6605 471.651 68.679Z" fill="#66282D"/>
<path d="M474.926 76.2571C474.173 78.9733 470.852 80.788 471.456 83.2075C472.061 85.627 474.173 84.4172 475.531 85.0221L474.926 76.2571Z" fill="#F5AA93"/>
<path d="M481.306 87.7041C481.306 87.8296 481.283 87.9666 481.249 88.0921C479.959 88.7198 477.859 89.2905 474.675 89.2905C472.016 89.2905 470.818 88.6628 470.019 87.9894C469.985 87.8981 469.95 87.7954 469.916 87.7041H481.306Z" fill="white"/>
<path d="M481.249 88.0921C480.975 89.1421 479.743 90.3518 478.887 91.1621C478.636 90.7513 478.168 90.1464 476.421 90.1464C473.317 90.1464 472.975 91.1507 472.598 91.6871C472.495 91.6529 472.416 91.6187 472.381 91.5844C471.388 90.5801 470.498 89.3475 470.03 87.9894C470.829 88.6627 472.016 89.2904 474.687 89.2904C477.859 89.2904 479.959 88.7198 481.249 88.0921Z" fill="#B55846"/>
<path d="M478.898 91.1621C478.692 91.3561 478.51 91.5273 478.373 91.6643C477.654 92.3833 473.625 92.0181 472.609 91.6871C472.986 91.1507 473.328 90.1464 476.433 90.1464C478.179 90.1464 478.647 90.7512 478.898 91.1621Z" fill="#ED7B88"/>
<path d="M469.196 75.6636C470.199 75.6636 471.011 74.8511 471.011 73.8489C471.011 72.8467 470.199 72.0343 469.196 72.0343C468.194 72.0343 467.382 72.8467 467.382 73.8489C467.382 74.8511 468.194 75.6636 469.196 75.6636Z" fill="#85373A"/>
<path d="M469.927 73.4267C470.249 73.4267 470.509 73.1661 470.509 72.8446C470.509 72.5232 470.249 72.2626 469.927 72.2626C469.606 72.2626 469.345 72.5232 469.345 72.8446C469.345 73.1661 469.606 73.4267 469.927 73.4267Z" fill="white"/>
<path d="M496.325 74.7277C495.572 73.4609 493.232 68.1197 489.432 64.3192C478.749 67.2066 471.411 66.5105 466.401 64.4904C465.693 64.2051 465.031 63.8969 464.403 63.566C468.98 60.3932 470.715 51.126 484.752 52.233C491.92 52.8037 493.049 50.6124 497.672 51.4113C501.038 53.42 503.036 56.5128 503.777 60.5416C505.25 68.405 499.418 73.7462 496.325 74.7277Z" fill="#66282D"/>
<path d="M442.24 330.5L433.84 548.005L436.134 325.239L442.24 330.5Z" fill="black"/>
<path d="M262.305 159.605H374.756C376.034 159.605 377.061 158.578 377.061 157.299V156.158C377.061 154.88 376.034 153.853 374.756 153.853H262.305C261.027 153.853 260 154.88 260 156.158V157.299C260 158.578 261.027 159.605 262.305 159.605Z" fill="black"/>
<path d="M346.897 94.9056C346.897 107.95 342.526 118.519 337.128 118.519C335.439 118.519 333.852 117.491 332.471 115.665C344.455 106.855 342.218 87.978 340.46 81.0504H345.037C346.212 84.9536 346.897 89.7356 346.897 94.9056Z" fill="white" stroke="#F9B233" stroke-width="1.3393" stroke-miterlimit="10"/>
<path d="M332.049 116.35C328.865 112.173 326.708 104.013 326.708 94.6431C326.708 89.2334 327.427 84.2346 328.648 80.1716H340.403C342.241 87.4188 344.58 107.151 332.049 116.35Z" fill="#F9B233"/>
<path d="M337.128 155.416V118.53" stroke="#F9B233" stroke-width="2.6786" stroke-miterlimit="10"/>
<path d="M337.128 155.907C345.826 155.907 352.877 154.921 352.877 153.704C352.877 152.488 345.826 151.502 337.128 151.502C328.429 151.502 321.378 152.488 321.378 153.704C321.378 154.921 328.429 155.907 337.128 155.907Z" fill="#F9B233"/>
<path d="M305.662 94.9056C305.662 107.95 301.291 118.519 295.893 118.519C294.204 118.519 292.617 117.491 291.236 115.665C303.22 106.855 300.983 87.978 299.225 81.0504H303.802C304.966 84.9536 305.662 89.7356 305.662 94.9056Z" fill="white" stroke="#F9B233" stroke-width="1.3393" stroke-miterlimit="10"/>
<path d="M290.803 116.35C287.619 112.173 285.462 104.013 285.462 94.6431C285.462 89.2334 286.181 84.2346 287.402 80.1716H299.157C300.995 87.4188 303.334 107.151 290.803 116.35Z" fill="#F9B233"/>
<path d="M295.894 155.416V118.53" stroke="#F9B233" stroke-width="2.6786" stroke-miterlimit="10"/>
<path d="M295.893 155.907C304.592 155.907 311.643 154.921 311.643 153.704C311.643 152.488 304.592 151.502 295.893 151.502C287.195 151.502 280.144 152.488 280.144 153.704C280.144 154.921 287.195 155.907 295.893 155.907Z" fill="#F9B233"/>
<path d="M63.4058 621.673H70.1178L65.1198 631.779L63.4058 621.673Z" fill="white" stroke="black" stroke-width="2.385" stroke-miterlimit="10"/>
<path d="M-15 596.276C-6.67575 605.593 -3.34097 622.25 34.954 614.257C25.62 601.936 12.6372 592.279 -15 596.276Z" fill="#2EAC62"/>
<path d="M57.2285 635.233L65.714 613.756" stroke="#006633" stroke-width="2.385" stroke-miterlimit="10"/>
<path d="M84.3648 581.248C92.5617 599.059 69.9479 613.756 65.7052 613.756C64.5851 604.422 71.6451 588.317 84.3648 581.248Z" fill="#2EAC62"/>
<path d="M70.1177 621.673L72.2136 617.43L79.002 619.221" stroke="#006633" stroke-width="2.385" stroke-miterlimit="10"/>
<path d="M65.1198 631.779L63.4058 635.233" stroke="#020203" stroke-width="2.385" stroke-miterlimit="10"/>
<path d="M-15 596.276C-9.50141 601.775 10.3122 614.257 34.954 614.257L45.2808 619.255L49.6084 635.241" stroke="#006633" stroke-width="2.8097" stroke-miterlimit="10"/>
<path d="M184.629 518.439C172.783 524.362 158.875 527.926 146.444 531.091C137.543 533.356 129.388 535.418 123.27 537.989C122.176 538.456 121.149 538.931 120.19 539.432C118.077 540.526 116.321 541.731 114.997 543.072C117.577 534.29 122.142 520.925 129.643 508.502C136.287 497.505 145.231 487.246 157.144 481.578C161.345 479.575 165.91 478.15 170.874 477.471C182.304 475.876 195.838 478.201 211.816 486.491C208.77 502.036 198.01 511.744 184.629 518.439Z" fill="#2EAC62"/>
<path d="M84.3647 581.248C85.96 586.594 83.5077 599.976 65.4336 614.231" stroke="#006633" stroke-width="2.385" stroke-miterlimit="10"/>
<path d="M211.825 486.482C122.702 493.415 82.5571 583.064 108.777 621.673" stroke="#006633" stroke-width="2.385" stroke-miterlimit="10"/>
<path d="M173.759 577.37C164.349 587.901 160.581 606.739 117.289 597.702C127.828 583.777 142.507 572.856 173.759 577.37Z" fill="#2EAC62"/>
<path d="M173.759 577.37C167.548 583.582 145.146 597.702 117.288 597.702L105.621 603.353L100.725 621.427" stroke="#006633" stroke-width="2.3846" stroke-miterlimit="10"/>
<path d="M97.8313 631.262C86.2487 634.512 76.9231 627.121 77.7887 622.343L94.7511 627.367C94.7511 627.367 97.0507 630.489 97.8313 631.262Z" fill="#A6A6A6"/>
<path d="M78.7135 675.42H106.13L115.456 621.673H91.5521C95.7778 623.667 98.9768 626.018 97.7889 626.34C96.7197 626.62 95.6675 626.832 94.6323 626.968C94.6323 626.968 96.9318 630.082 97.7125 630.863C86.1298 634.113 76.8043 626.722 77.6698 621.945C77.6274 621.86 77.5935 621.766 77.568 621.681H70.1093L65.1113 631.788V631.796L65.6968 635.25" fill="white"/>
<path d="M78.7135 675.42H106.13L115.456 621.673H91.5521C95.7778 623.667 98.9768 626.018 97.7889 626.34C96.7197 626.62 95.6675 626.832 94.6323 626.968C94.6323 626.968 96.9318 630.082 97.7125 630.863C86.1298 634.113 76.8043 626.722 77.6698 621.945C77.6274 621.86 77.5935 621.766 77.568 621.681H70.1093L65.1113 631.788V631.796L65.6968 635.25" stroke="black" stroke-width="2.385" stroke-miterlimit="10"/>
<path d="M97.7972 626.332C96.7281 626.612 95.6759 626.824 94.6406 626.96C86.0703 628.139 78.9765 624.753 77.6782 621.936C77.6357 621.851 77.6018 621.758 77.5764 621.673C77.2454 620.689 77.6527 619.798 79.0019 619.221C81.0808 618.321 84.4496 618.941 87.7928 620.112C89.0826 620.57 90.3639 621.105 91.5604 621.673C95.7777 623.659 98.9767 626.018 97.7972 626.332Z" fill="#2EAC62" stroke="#006633" stroke-width="2.385" stroke-miterlimit="10"/>
</g>
<defs>
<clipPath id="clip0">
<rect width="574" height="633" fill="white"/>
</clipPath>
</defs>
</svg>
