<svg width="377" height="633" viewBox="0 0 377 633" fill="none" xmlns="http://www.w3.org/2000/svg">
<g clip-path="url(#clip0)">
<rect x="-1142" width="1920" height="662" fill="white"/>
<path fill-rule="evenodd" clip-rule="evenodd" d="M-347.5 518.317C-88.1627 515.503 -111 261.133 210.5 356.817C532 452.5 619 152.817 780.5 381.317C942 609.817 924.622 658.749 863 710.317C801.263 761.98 503.492 754.74 361.611 793.551C179.207 843.447 89.9199 933.353 -170.004 940.147C-426.044 946.84 -592.366 869.571 -783.053 823.472C-950.797 782.919 -1038.6 849.659 -1122.49 793.551C-1210.47 734.705 -1197.65 632.082 -1140.99 570.555C-1081.12 505.556 -1039.05 445.573 -829.5 408.817C-623.656 372.712 -593.599 520.986 -347.5 518.317Z" fill="#9BCDA1"/>
<path d="M358.112 545.473C412.174 545.473 456 541.022 456 535.532C456 530.042 412.174 525.592 358.112 525.592C304.05 525.592 260.225 530.042 260.225 535.532C260.225 541.022 304.05 545.473 358.112 545.473Z" fill="#56AE73"/>
<path d="M331.67 86.4726C331.67 86.4726 331.67 118.371 334.671 143.126V143.137C335.63 151.046 336.897 158.225 338.563 163.406L320.451 123.644L324.753 115.632C324.753 115.632 319.093 112.539 319.093 111.181C319.093 109.823 312.747 89.3828 312.747 89.3828L332.845 85.3541L356.983 87.1117C349.679 88.3671 333.963 88.7666 331.67 86.4726Z" fill="#A6A6A6"/>
<path d="M297.18 150.304L267.655 191.379L225.45 164.513L265.988 180.058L297.18 150.304Z" fill="black"/>
<path d="M303.24 301.855L295.296 301.045L298.914 147.885L303.24 301.855Z" fill="black"/>
<path d="M368.259 114.114L361.913 120.46L363.728 126.383L340.548 163.395C342.066 159.275 344.383 152.986 346.814 144.769C350.968 130.754 355.465 111.147 356.983 87.1003L374.068 93.5714L368.259 114.114Z" fill="#A6A6A6"/>
<path d="M392.728 221.292L397.715 311.476L396.163 311.316L348.857 306.5L341.724 305.781L303.24 301.855L303.217 301.239L298.915 147.885L297.169 150.304L265.977 180.058L225.439 164.513L196.941 146.367L204.497 132.318L260.237 158.145L294.418 94.4045L312.724 89.3714C312.724 89.3714 319.07 109.812 319.07 111.17C319.07 112.528 324.731 115.621 324.731 115.621L320.428 123.633L338.54 163.395C336.874 158.225 335.607 151.035 334.648 143.126V143.114C331.647 118.36 331.647 86.4612 331.647 86.4612C333.941 88.7552 349.645 88.3443 356.96 87.0889C355.454 111.136 350.946 130.754 346.791 144.758C344.361 152.975 342.044 159.263 340.526 163.383L363.705 126.372L361.891 120.449L368.236 114.103L374.045 93.5485L400.009 103.204L428.507 175.504L392.728 221.292Z" fill="#3C3C3B"/>
<path d="M381.771 222.878L359.71 225.355L357.61 222.262L379.671 219.786L381.771 222.878Z" fill="#A6A6A6"/>
<path d="M304.895 220.094L326.955 222.57L329.055 219.477L306.983 216.989L304.895 220.094Z" fill="#A6A6A6"/>
<path d="M344.463 109.812C346.335 118.486 347.02 134.589 346.814 144.769C344.383 152.986 342.066 159.275 340.548 163.395C340.16 164.445 339.829 165.358 339.556 166.111C339.213 165.278 338.882 164.376 338.563 163.395C336.896 158.225 335.63 151.035 334.671 143.126V143.114C335.744 128.711 340.617 109.949 340.617 109.949L337.444 103.455L343.105 98.3534L347.864 104.06C347.864 104.071 344.646 110.725 344.463 109.812Z" fill="#2EAC62"/>
<path d="M346.814 144.769C347.019 134.589 346.334 118.497 344.463 109.812C344.657 110.725 347.864 104.071 347.864 104.071L343.105 98.3648L337.444 103.466L340.617 109.96C340.617 109.96 335.755 128.711 334.671 143.126C331.669 118.371 331.669 86.4727 331.669 86.4727C333.963 88.7666 349.667 88.3558 356.983 87.1003C355.465 111.147 350.968 130.754 346.814 144.769Z" fill="white"/>
<path d="M356.982 87.1003C356.982 87.1003 344.634 97.2919 343.161 97.2919C341.838 97.2919 333.552 88.4927 331.954 86.7693C348.537 84.9205 354.472 71.7387 355.67 67.2535L356.138 67.1051L356.982 87.1003Z" fill="#F5AA93"/>
<path d="M338.562 305.45L339.555 165.301" stroke="white" stroke-width="0.752" stroke-miterlimit="10"/>
<path d="M202.739 135.605H157.989C157.989 135.605 153.31 137.305 154.794 138.8C156.289 140.295 172.94 144.769 177.927 144.769C182.915 144.769 198.63 143.263 198.63 143.263L202.739 135.605Z" fill="#F5AA93"/>
<path d="M341.724 305.781L340.936 310.928L297.065 307.094L297.134 301.239H303.217L303.24 301.855L341.724 305.781Z" fill="black"/>
<path d="M340.936 310.928L308.204 524.005H294.84L297.065 307.094L340.936 310.928Z" fill="#3C3C3B"/>
<path d="M396.711 315.79L350.295 311.739L348.857 306.5L396.163 311.316L396.711 315.79Z" fill="black"/>
<path d="M295.97 521.974C295.399 526.961 266.81 536.205 269.23 538.625C271.387 540.782 284.979 541.684 288.038 540.097C294.338 536.833 294.84 534.208 297.328 534.208C299.816 534.208 305.488 535.703 307.075 530.921C308.661 526.139 307.543 521.974 307.543 521.974H295.97Z" fill="black"/>
<path d="M419.388 523.149L409.151 525.592L350.295 311.739L396.711 315.79L419.388 523.149Z" fill="#3C3C3B"/>
<path d="M355.67 67.2649C354.472 71.7501 348.537 84.9205 331.955 86.7808C331.772 86.5868 331.681 86.484 331.681 86.484C331.681 86.484 332.057 75.4365 332.057 74.455L355.67 67.2649Z" fill="#DD7961"/>
<path d="M358.672 27.4228C354.05 26.6353 352.908 28.8151 345.753 28.2445C331.715 27.1374 329.991 36.4046 325.404 39.5774C320.564 36.9867 318.396 33.1976 317.506 31.2575C317.506 31.2575 321.204 33.3004 324.456 30.0477C336.177 18.3268 342.956 24.7636 346.814 24.7636C351.836 24.7636 355.762 25.688 358.672 27.4228Z" fill="#85373A"/>
<path d="M327.709 40.6273C326.864 48.3309 328.302 69.1022 329.193 72.0467C329.661 73.5646 333.05 75.7559 337.056 78.2097C340.822 80.5264 357.108 70.7343 357.565 64.7654C358.238 55.8862 358.056 57.1416 358.056 57.1416C359.185 57.1416 367.117 60.885 365.759 52.2684C364.401 43.6517 358.74 50.739 357.314 50.739C355.944 48.7076 354.883 37.7627 354.883 37.7627L327.709 40.6273Z" fill="#F5AA93"/>
<path d="M341.404 44.9415C342.614 44.0285 346.78 42.9442 348.56 45.2839C349.587 46.642 348.047 46.2083 347.373 46.117C346.7 46.0257 343.744 45.5806 341.507 46.0714C340.834 46.2083 340.297 45.7746 341.404 44.9415Z" fill="#66282D"/>
<path d="M345.364 51.287C346.367 51.287 347.179 50.4745 347.179 49.4723C347.179 48.4702 346.367 47.6577 345.364 47.6577C344.362 47.6577 343.55 48.4702 343.55 49.4723C343.55 50.4745 344.362 51.287 345.364 51.287Z" fill="#85373A"/>
<path d="M346.095 49.05C346.416 49.05 346.677 48.7894 346.677 48.4679C346.677 48.1465 346.416 47.8859 346.095 47.8859C345.773 47.8859 345.513 48.1465 345.513 48.4679C345.513 48.7894 345.773 49.05 346.095 49.05Z" fill="white"/>
<path d="M335.801 52.6565C336.874 47.224 334.089 45.843 332.97 45.7061C332.97 45.7061 328.542 42.0083 327.458 45.7061C327.458 45.7061 327.846 70.449 329.204 72.0468C333.256 76.8402 338.266 78.769 338.243 78.5521C332.388 75.1967 339.43 70.5631 335.812 68.0295L334.911 63.704C335.538 63.0763 336.36 61.2275 336.36 60.6797C336.36 60.6797 333.792 57.3585 335.949 52.257L335.801 52.6565Z" fill="#DD7961"/>
<path d="M350.431 40.3307C347.966 42.7959 330.345 47.3952 327.4 40.5019C332.399 42.5219 339.738 43.2181 350.431 40.3307Z" fill="#DD7961"/>
<path d="M362.472 50.8418C363.237 51.6065 362.986 54.745 359.642 53.9004C356.298 53.0559 363.214 54.0716 362.415 55.3156" stroke="#85373A" stroke-miterlimit="10"/>
<path d="M332.651 44.679C331.909 43.5948 329.158 41.9399 327.697 44.0056C326.853 45.204 327.949 44.9871 328.428 44.9871C328.896 44.9871 330.973 44.9643 332.468 45.7746C332.913 46.0143 333.324 45.6605 332.651 44.679Z" fill="#66282D"/>
<path d="M335.926 52.2571C335.173 54.9733 331.852 56.788 332.456 59.2075C333.061 61.627 335.173 60.4172 336.531 61.0221L335.926 52.2571Z" fill="#F5AA93"/>
<path d="M342.306 63.7041C342.306 63.8296 342.283 63.9666 342.249 64.0921C340.959 64.7198 338.859 65.2905 335.675 65.2905C333.016 65.2905 331.818 64.6628 331.019 63.9894C330.985 63.8981 330.95 63.7954 330.916 63.7041H342.306V63.7041Z" fill="white"/>
<path d="M342.249 64.0921C341.975 65.1421 340.743 66.3518 339.887 67.1621C339.636 66.7513 339.168 66.1464 337.421 66.1464C334.317 66.1464 333.975 67.1507 333.598 67.6871C333.495 67.6529 333.416 67.6187 333.381 67.5844C332.388 66.5801 331.498 65.3475 331.03 63.9894C331.829 64.6627 333.016 65.2904 335.687 65.2904C338.859 65.2904 340.959 64.7198 342.249 64.0921Z" fill="#B55846"/>
<path d="M339.898 67.1621C339.692 67.3561 339.51 67.5273 339.373 67.6643C338.654 68.3833 334.625 68.0181 333.609 67.6871C333.986 67.1507 334.328 66.1464 337.433 66.1464C339.179 66.1464 339.647 66.7512 339.898 67.1621Z" fill="#ED7B88"/>
<path d="M330.196 51.6636C331.199 51.6636 332.011 50.8511 332.011 49.8489C332.011 48.8467 331.199 48.0343 330.196 48.0343C329.194 48.0343 328.382 48.8467 328.382 49.8489C328.382 50.8511 329.194 51.6636 330.196 51.6636Z" fill="#85373A"/>
<path d="M330.927 49.4267C331.249 49.4267 331.509 49.1661 331.509 48.8446C331.509 48.5232 331.249 48.2626 330.927 48.2626C330.606 48.2626 330.345 48.5232 330.345 48.8446C330.345 49.1661 330.606 49.4267 330.927 49.4267Z" fill="white"/>
<path d="M357.325 50.7277C356.572 49.4609 354.232 44.1197 350.432 40.3192C339.749 43.2066 332.411 42.5105 327.401 40.4904C326.693 40.2051 326.031 39.8969 325.403 39.566C329.98 36.3932 331.715 27.126 345.752 28.233C352.92 28.8037 354.049 26.6124 358.672 27.4113C362.038 29.42 364.036 32.5128 364.777 36.5416C366.25 44.405 360.418 49.7462 357.325 50.7277Z" fill="#66282D"/>
<path d="M303.24 306.5L294.84 524.005L297.134 301.239L303.24 306.5Z" fill="black"/>
<path d="M123.305 135.605H235.756C237.034 135.605 238.061 134.578 238.061 133.299V132.158C238.061 130.88 237.034 129.853 235.756 129.853H123.305C122.027 129.853 121 130.88 121 132.158V133.299C121 134.578 122.027 135.605 123.305 135.605Z" fill="black"/>
<path d="M207.897 70.9056C207.897 83.9504 203.526 94.5186 198.128 94.5186C196.439 94.5186 194.852 93.4915 193.471 91.6654C205.455 82.8548 203.218 63.978 201.46 57.0504H206.037C207.212 60.9536 207.897 65.7356 207.897 70.9056Z" fill="white" stroke="#F9B233" stroke-width="1.3393" stroke-miterlimit="10"/>
<path d="M193.049 92.3502C189.865 88.1731 187.708 80.013 187.708 70.6431C187.708 65.2334 188.427 60.2346 189.648 56.1716H201.403C203.241 63.4188 205.58 83.1515 193.049 92.3502Z" fill="#F9B233"/>
<path d="M198.128 131.416V94.53" stroke="#F9B233" stroke-width="2.6786" stroke-miterlimit="10"/>
<path d="M198.128 131.907C206.826 131.907 213.877 130.921 213.877 129.704C213.877 128.488 206.826 127.502 198.128 127.502C189.429 127.502 182.378 128.488 182.378 129.704C182.378 130.921 189.429 131.907 198.128 131.907Z" fill="#F9B233"/>
<path d="M166.662 70.9056C166.662 83.9504 162.291 94.5186 156.893 94.5186C155.204 94.5186 153.617 93.4915 152.236 91.6654C164.22 82.8548 161.983 63.978 160.225 57.0504H164.802C165.966 60.9536 166.662 65.7356 166.662 70.9056Z" fill="white" stroke="#F9B233" stroke-width="1.3393" stroke-miterlimit="10"/>
<path d="M151.803 92.3502C148.619 88.1731 146.462 80.013 146.462 70.6431C146.462 65.2334 147.181 60.2346 148.402 56.1716H160.157C161.995 63.4188 164.334 83.1515 151.803 92.3502Z" fill="#F9B233"/>
<path d="M156.894 131.416V94.53" stroke="#F9B233" stroke-width="2.6786" stroke-miterlimit="10"/>
<path d="M156.893 131.907C165.592 131.907 172.643 130.921 172.643 129.704C172.643 128.488 165.592 127.502 156.893 127.502C148.195 127.502 141.144 128.488 141.144 129.704C141.144 130.921 148.195 131.907 156.893 131.907Z" fill="#F9B233"/>
<path d="M63.4058 621.673H70.1178L65.1198 631.779L63.4058 621.673Z" fill="white" stroke="black" stroke-width="2.385" stroke-miterlimit="10"/>
<path d="M-15 596.276C-6.67575 605.593 -3.34097 622.25 34.954 614.257C25.62 601.936 12.6372 592.279 -15 596.276Z" fill="#2EAC62"/>
<path d="M57.2285 635.233L65.714 613.756" stroke="#006633" stroke-width="2.385" stroke-miterlimit="10"/>
<path d="M84.3648 581.248C92.5617 599.059 69.9479 613.756 65.7052 613.756C64.5851 604.422 71.6451 588.317 84.3648 581.248Z" fill="#2EAC62"/>
<path d="M70.1177 621.673L72.2136 617.43L79.002 619.221" stroke="#006633" stroke-width="2.385" stroke-miterlimit="10"/>
<path d="M65.1198 631.779L63.4058 635.233" stroke="#020203" stroke-width="2.385" stroke-miterlimit="10"/>
<path d="M-15 596.276C-9.50141 601.775 10.3122 614.257 34.954 614.257L45.2808 619.255L49.6084 635.241" stroke="#006633" stroke-width="2.8097" stroke-miterlimit="10"/>
<path d="M184.629 518.439C172.783 524.362 158.875 527.926 146.444 531.091C137.543 533.356 129.388 535.418 123.27 537.989C122.176 538.456 121.149 538.931 120.19 539.432C118.077 540.526 116.321 541.731 114.997 543.072C117.577 534.29 122.142 520.925 129.643 508.502C136.287 497.505 145.231 487.246 157.144 481.578C161.345 479.575 165.91 478.15 170.874 477.471C182.304 475.876 195.838 478.201 211.816 486.491C208.77 502.036 198.01 511.744 184.629 518.439Z" fill="#2EAC62"/>
<path d="M84.3647 581.248C85.96 586.594 83.5077 599.976 65.4336 614.231" stroke="#006633" stroke-width="2.385" stroke-miterlimit="10"/>
<path d="M211.825 486.482C122.702 493.415 82.5571 583.064 108.777 621.673" stroke="#006633" stroke-width="2.385" stroke-miterlimit="10"/>
<path d="M173.759 577.37C164.349 587.901 160.581 606.739 117.289 597.702C127.828 583.777 142.507 572.856 173.759 577.37Z" fill="#2EAC62"/>
<path d="M173.759 577.37C167.548 583.582 145.146 597.702 117.288 597.702L105.621 603.353L100.725 621.427" stroke="#006633" stroke-width="2.3846" stroke-miterlimit="10"/>
<path d="M97.8313 631.262C86.2487 634.512 76.9231 627.121 77.7887 622.343L94.7511 627.367C94.7511 627.367 97.0507 630.489 97.8313 631.262Z" fill="#A6A6A6"/>
<path d="M78.7135 675.42H106.13L115.456 621.673H91.5521C95.7778 623.667 98.9768 626.018 97.7889 626.34C96.7197 626.62 95.6675 626.832 94.6323 626.968C94.6323 626.968 96.9318 630.082 97.7125 630.863C86.1298 634.113 76.8043 626.722 77.6698 621.945C77.6274 621.86 77.5935 621.766 77.568 621.681H70.1093L65.1113 631.788V631.796L65.6968 635.25" fill="white"/>
<path d="M78.7135 675.42H106.13L115.456 621.673H91.5521C95.7778 623.667 98.9768 626.018 97.7889 626.34C96.7197 626.62 95.6675 626.832 94.6323 626.968C94.6323 626.968 96.9318 630.082 97.7125 630.863C86.1298 634.113 76.8043 626.722 77.6698 621.945C77.6274 621.86 77.5935 621.766 77.568 621.681H70.1093L65.1113 631.788V631.796L65.6968 635.25" stroke="black" stroke-width="2.385" stroke-miterlimit="10"/>
<path d="M97.7972 626.332C96.7281 626.612 95.6759 626.824 94.6406 626.96C86.0703 628.139 78.9765 624.753 77.6782 621.936C77.6357 621.851 77.6018 621.758 77.5764 621.673C77.2454 620.689 77.6527 619.798 79.0019 619.221C81.0808 618.321 84.4496 618.941 87.7928 620.112C89.0826 620.57 90.3639 621.105 91.5604 621.673C95.7777 623.659 98.9767 626.018 97.7972 626.332Z" fill="#2EAC62" stroke="#006633" stroke-width="2.385" stroke-miterlimit="10"/>
</g>
<defs>
<clipPath id="clip0">
<rect width="377" height="633" fill="white"/>
</clipPath>
</defs>
</svg>
