<svg width="1917" height="662" viewBox="0 0 1917 662" fill="none" xmlns="http://www.w3.org/2000/svg">
<g clip-path="url(#clip0)">
<rect width="1920" height="662" fill="white"/>
<path d="M812.441 77.351C810.76 67.9576 809.802 58.8018 809.7 50.1296C809.106 -0.0364752 858.101 7.00647 900.367 40.9993C905.883 45.4287 911.279 50.3163 916.438 55.5943C923.21 62.5269 929.574 70.1384 935.234 78.2675C938.916 83.5454 942.294 89.0355 945.306 94.7123C960.8 123.885 966.511 157.768 951.959 190.717C942.251 212.686 929.854 222.461 916.43 223.352C911.194 223.7 905.806 222.699 900.358 220.535C866.484 207.128 830.447 149.096 816.106 93.9741C814.647 88.3991 813.416 82.8326 812.441 77.351Z" fill="white"/>
<path d="M942.709 305.491C945.085 311.796 946.91 318.712 948.072 326.374C950.686 343.634 951.509 359.366 950.796 373.689C949.566 398.475 943.728 419.027 934.563 435.964C915.293 471.569 881.317 491.154 844.549 500.343C805.185 510.178 762.622 508.108 731.472 501.031C730.513 500.81 729.563 500.581 728.621 500.343C691.268 490.975 663.011 466.266 645.658 435.964C634.602 416.643 627.975 395.047 626.252 373.689C624.945 357.516 626.456 341.478 630.979 326.671C655.298 247.086 563.477 244.235 579.667 164.03C585.072 137.233 593.736 114.178 605.123 95.2299C608.628 89.4004 612.387 83.9612 616.392 78.9208C643.478 44.8262 681.671 29.0093 726.262 34.7709C731.769 35.4837 737.361 36.5189 743.055 37.8936C748.341 39.1664 753.704 40.7362 759.135 42.5945C777.675 48.9416 788.808 61.3474 796.776 77.3425C799.364 82.5356 801.621 88.1106 803.683 93.9825C816.692 130.928 822.275 179.592 856.684 219.118C868.232 232.389 884.601 242.377 900.384 254.188C905.891 258.312 911.322 262.657 916.455 267.434C919.773 270.523 922.964 273.798 925.976 277.311C934.19 274.299 944.593 273.849 957.771 277.438C957.975 289.462 951.551 298.381 942.709 305.491Z" fill="white"/>
<path d="M796.759 77.351H743.038V37.8936C748.324 39.1664 753.687 40.7362 759.118 42.5945C777.658 48.9501 788.791 61.3559 796.759 77.351Z" fill="#9BCDA1"/>
<path d="M900.358 40.9993V77.351H812.441C810.76 67.9576 809.802 58.8018 809.7 50.1296C809.106 -0.0364733 858.092 7.00647 900.358 40.9993Z" fill="#9BCDA1"/>
<path d="M900.358 93.9911V220.552C866.484 207.145 830.447 149.113 816.106 93.9911H900.358Z" fill="#9BCDA1"/>
<path d="M900.358 254.197V373.689H743.038V93.9911H803.666C816.675 130.937 822.258 179.601 856.667 219.126C868.215 232.398 884.575 242.385 900.358 254.197Z" fill="#9BCDA1"/>
<path d="M726.245 34.7709V78.9208H616.375C643.461 44.8262 681.654 29.0093 726.245 34.7709Z" fill="#9BCDA1"/>
<path d="M726.245 95.2299V373.689H604.173C602.866 357.516 603.528 341.478 608.051 326.671C632.37 247.086 563.46 244.235 579.65 164.03C585.055 137.233 593.719 114.178 605.106 95.2299H726.245Z" fill="#9BCDA1"/>
<path d="M935.225 78.276H916.43V55.6028C923.201 62.5354 929.565 70.1469 935.225 78.276Z" fill="#9BCDA1"/>
<path d="M916.43 223.369V94.7292H945.306C960.8 123.902 966.511 157.785 951.959 190.734C942.251 212.703 929.845 222.47 916.43 223.369Z" fill="#9BCDA1"/>
<path d="M952.307 326.374C954.92 343.634 955.743 359.366 955.03 373.689H916.422V267.443C935.802 280.51 951.153 318.712 952.307 326.374Z" fill="#9BCDA1"/>
<path d="M842.36 28.7462L869.03 60.2867" stroke="white" stroke-width="3.0221" stroke-miterlimit="10" stroke-linecap="round"/>
<path d="M841.359 44.5123L850.854 55.7471" stroke="white" stroke-width="3.0221" stroke-miterlimit="10" stroke-linecap="round"/>
<path d="M946.435 435.964C927.164 471.569 881.258 490.933 844.541 500.343C818.423 507.038 723.428 509.211 694.671 500.343C657.869 488.998 629.061 466.266 611.708 435.964H946.435Z" fill="#9BCDA1"/>
<path fill-rule="evenodd" clip-rule="evenodd" d="M794.5 518.317C1053.84 515.503 1031 261.133 1352.5 356.817C1674 452.5 1761 152.817 1922.5 381.317C2084 609.817 2066.62 658.749 2005 710.317C1943.26 761.98 1645.49 754.74 1503.61 793.551C1321.21 843.447 1231.92 933.353 971.996 940.147C715.956 946.84 549.634 869.571 358.947 823.472C191.203 782.919 103.403 849.659 19.5145 793.551C-68.4673 734.705 -55.653 632.082 1.0146 570.555C60.879 505.556 102.945 445.573 312.5 408.817C518.344 372.712 548.401 520.986 794.5 518.317Z" fill="#9BCDA1"/>
<path d="M1747.71 528.3C1747.9 523.295 1699.87 517.337 1640.41 514.993C1580.95 512.648 1532.59 514.805 1532.4 519.809C1532.2 524.814 1580.24 530.772 1639.69 533.116C1699.15 535.461 1747.51 533.304 1747.71 528.3Z" fill="#9BCDA1"/>
<path d="M1534.14 583.667C1534.33 578.662 1486.29 572.705 1426.84 570.36C1367.38 568.016 1319.02 570.172 1318.82 575.177C1318.63 580.181 1366.66 586.139 1426.12 588.484C1485.58 590.828 1533.94 588.672 1534.14 583.667Z" fill="#9BCDA1"/>
<path d="M1749.24 170.474L1739.41 476.941C1739.26 481.72 1737.41 485.969 1734.54 489.02C1734.53 489.036 1734.52 489.044 1734.5 489.052C1733.61 489.998 1732.64 490.814 1731.58 491.507L1731.57 491.515C1728.78 493.342 1725.45 494.231 1721.98 493.807L1561.74 474.674C1553.61 473.704 1547.56 465.923 1547.85 456.805L1557.67 150.346C1557.83 145.559 1559.69 141.31 1562.56 138.259L1562.58 138.235L1563.17 137.705L1563.36 137.542L1564.72 136.327C1564.82 136.253 1564.93 136.18 1565.02 136.114C1567.92 134.051 1571.43 133.032 1575.12 133.472L1735.36 152.605C1743.49 153.584 1749.53 161.364 1749.24 170.474Z" fill="#2EAC62"/>
<path d="M1741.35 188.187L1733.47 434.247C1732.93 443.757 1726.18 447.777 1726.18 447.777C1723.58 449.474 1720.5 450.297 1717.27 449.906L1568.49 432.135C1560.94 431.23 1555.33 424.012 1555.6 415.547L1563.48 169.495C1563.62 165.05 1565.35 161.103 1568.02 158.273L1568.04 158.257L1568.59 157.767L1568.76 157.621L1570.02 156.495C1570.11 156.422 1570.21 156.356 1570.3 156.299C1572.98 154.383 1576.25 153.437 1579.67 153.845L1728.45 171.615C1736.01 172.504 1741.62 179.73 1741.35 188.187Z" fill="#9BCDA1"/>
<path d="M1756.69 164.096L1746.87 470.564C1746.7 475.914 1744.4 480.603 1740.93 483.678L1734.5 489.052C1734.52 489.044 1734.53 489.028 1734.54 489.02C1737.41 485.969 1739.26 481.72 1739.41 476.941L1749.24 170.474C1749.53 161.364 1743.48 153.575 1735.35 152.613L1575.12 133.48C1571.43 133.04 1567.92 134.067 1565.02 136.123L1572.4 129.786C1575.32 127.698 1578.86 126.654 1582.57 127.103L1742.8 146.236C1750.94 147.198 1756.99 154.986 1756.69 164.096Z" fill="#2EAC62"/>
<path d="M1644.08 475.826C1650.76 474.262 1654.72 466.744 1652.91 459.034C1651.1 451.324 1644.23 446.341 1637.55 447.905C1630.87 449.469 1626.92 456.988 1628.72 464.698C1630.53 472.408 1637.4 477.39 1644.08 475.826Z" fill="white"/>
<path d="M1645.3 473.826C1651.03 472.485 1654.41 466.045 1652.87 459.44C1651.32 452.835 1645.43 448.567 1639.7 449.907C1633.98 451.247 1630.59 457.688 1632.14 464.293C1633.69 470.898 1639.58 475.166 1645.3 473.826Z" fill="#2EAC62"/>
<path d="M1651.62 157.367C1653.3 156.984 1654.3 155.103 1653.85 153.167C1653.41 151.23 1651.69 149.971 1650.02 150.354C1648.34 150.737 1647.34 152.618 1647.78 154.554C1648.22 156.491 1649.94 157.75 1651.62 157.367Z" fill="white"/>
<path d="M1629.35 219.35L1589.73 214.766C1586.12 214.35 1583.45 211.243 1583.56 207.614L1584.03 193.219C1584.16 189.142 1587.74 186.051 1591.8 186.516L1631.43 191.099C1635.03 191.515 1637.7 194.622 1637.59 198.251L1637.13 212.646C1636.99 216.724 1633.41 219.814 1629.35 219.35Z" fill="white"/>
<path d="M1626.15 273.78L1574.65 267.818C1569.97 267.28 1566.49 263.234 1566.64 258.529L1567.24 239.82C1567.41 234.519 1572.07 230.498 1577.34 231.11L1628.83 237.072C1633.51 237.61 1637 241.655 1636.85 246.361L1636.25 265.069C1636.07 270.371 1631.41 274.391 1626.15 273.78Z" fill="#2EAC62"/>
<path d="M1803.4 288.329L1776.45 285.213C1774 284.928 1772.17 282.816 1772.25 280.353L1772.56 270.558C1772.65 267.785 1775.09 265.681 1777.85 265.999L1804.8 269.115C1807.25 269.4 1809.08 271.512 1809 273.975L1808.69 283.77C1808.6 286.543 1806.16 288.647 1803.4 288.329Z" fill="#2EAC62"/>
<path d="M1750.34 338.363L1681.04 330.346C1674.75 329.62 1670.06 324.181 1670.26 317.844L1671.07 292.676C1671.3 285.548 1677.57 280.133 1684.66 280.956L1753.95 288.973C1760.25 289.699 1764.94 295.139 1764.74 301.476L1763.93 326.643C1763.7 333.771 1757.43 339.178 1750.34 338.363Z" fill="#2EAC62"/>
<path d="M1599.15 416.745L1547.65 410.784C1542.97 410.246 1539.49 406.2 1539.63 401.495L1540.24 382.786C1540.41 377.485 1545.07 373.464 1550.33 374.076L1601.83 380.038C1606.51 380.576 1609.99 384.621 1609.85 389.327L1609.24 408.035C1609.07 413.328 1604.41 417.349 1599.15 416.745Z" fill="#2EAC62"/>
<path d="M1717.07 359.062L1696.09 356.631C1694.18 356.411 1692.76 354.764 1692.83 352.847L1693.07 345.23C1693.14 343.069 1695.04 341.429 1697.18 341.682L1718.17 344.113C1720.08 344.333 1721.49 345.98 1721.43 347.897L1721.18 355.514C1721.12 357.667 1719.22 359.306 1717.07 359.062Z" fill="white"/>
<path d="M1750.65 310.618L1707.79 305.774" stroke="white" stroke-width="2.2045" stroke-miterlimit="10" stroke-linecap="round"/>
<path d="M1632 205.151L1589.15 200.307" stroke="#F9B233" stroke-width="2.2045" stroke-miterlimit="10" stroke-linecap="round"/>
<path d="M1632 210.901L1589.15 206.064" stroke="#F9B233" stroke-width="2.2045" stroke-miterlimit="10" stroke-linecap="round"/>
<path d="M1607.33 196.857L1591.1 195.022" stroke="#F9B233" stroke-width="2.2045" stroke-miterlimit="10" stroke-linecap="round"/>
<path d="M1629.85 199.401L1613.63 197.566" stroke="#F9B233" stroke-width="2.2045" stroke-miterlimit="10" stroke-linecap="round"/>
<path d="M1691.19 312.641L1751.68 319.475" stroke="white" stroke-width="2.2045" stroke-miterlimit="10" stroke-linecap="round"/>
<path d="M1598.44 407.783L1555.59 402.938" stroke="white" stroke-width="2.2045" stroke-miterlimit="10" stroke-linecap="round"/>
<path d="M1538.44 290.996L1486.94 276.944L1541.63 299.388H1543.3L1562.47 264.874L1539.78 290.996H1538.44Z" fill="#F39200"/>
<path d="M1539.78 290.996L1562.47 264.866L1575.03 241.557L1564.49 234.837L1536.23 273.82H1534.56L1498.13 241.264L1479.63 230.172C1477.56 231.632 1465.48 229.226 1460 227.277L1437.14 233.981L1403.27 285.328L1425.09 326.692L1409.38 395.117L1410.59 395.199L1447.76 397.792L1453.37 398.184L1483.61 400.296L1483.71 399.823L1490.16 335.313L1486.93 276.944L1538.1 291.004H1539.78V290.996Z" fill="#F9B233"/>
<path d="M1425.1 326.684L1434.49 299.07L1435.71 283.917" stroke="white" stroke-width="0.8223" stroke-miterlimit="10"/>
<path d="M1458.77 229.723C1458.77 229.723 1459.38 231.901 1466.72 232.382C1475.08 232.937 1477.07 231.648 1478.39 230.351C1465.47 228.313 1464.86 218.983 1464.07 215.427L1463.72 215.296L1458.77 229.723Z" fill="#F5AA93"/>
<path d="M1565.86 236.411C1565.86 236.411 1572.84 211.928 1581.03 207.744C1582.19 207.149 1574.76 218.942 1576.37 219.072C1577.7 219.178 1588.04 207.5 1589.35 208.234C1590.89 209.09 1585.08 214.375 1586.17 216.259C1587.52 218.591 1588.88 223.811 1588.75 228.019C1588.69 229.674 1585.44 233.426 1582.04 235.326C1578.63 237.227 1571.6 240.065 1571.6 240.065L1565.86 236.411Z" fill="#F5AA93"/>
<path d="M1453.38 398.184L1453.3 402.261L1487.69 405.157L1488.43 400.63L1483.72 399.815L1483.62 400.288L1453.38 398.184Z" fill="black"/>
<path d="M1453.3 402.261L1450.13 571.186L1460.45 572.964L1487.69 405.157L1453.3 402.261Z" fill="#3C3C3B"/>
<path d="M1409.58 398.575L1445.96 401.642L1447.78 397.784L1410.61 395.191L1409.58 398.575Z" fill="black"/>
<path d="M1328.99 538.752C1324.75 542.006 1312.28 564.499 1310.69 562.329C1309.28 560.405 1310.21 549.77 1311.8 547.584C1315.08 543.091 1316.43 543.115 1316.74 541.19C1317.04 539.266 1316.4 533.899 1320.29 533.247C1324.18 532.594 1328.18 534.658 1328.18 534.658L1328.99 538.752Z" fill="#F39200"/>
<path d="M1409.67 478.793L1445.96 401.642L1409.58 398.575L1388.11 469.251L1324.43 533.01L1331.08 541.37L1402.2 488.587L1409.67 478.793Z" fill="#3C3C3B"/>
<path d="M1460.5 214.244C1461.28 217.792 1465.46 228.321 1478.37 230.36C1478.52 230.221 1478.6 230.139 1478.6 230.139C1478.6 230.139 1476.54 226.673 1478.73 220.712L1460.5 214.244Z" fill="#F5AA93"/>
<path d="M1461.78 218.249L1458.76 229.723C1459.6 231.722 1466.5 232.708 1468.34 232.472C1473.58 231.811 1473.14 223.786 1478.73 220.858L1461.78 218.249Z" fill="#DD7961"/>
<path d="M1459.57 182.943C1463.23 182.487 1459.38 187.103 1465.01 186.915C1476.04 186.548 1481.71 190.993 1485.19 193.643C1489.06 191.792 1487.8 187.405 1486.27 186.222C1476 178.262 1461.91 181.687 1459.57 182.943Z" fill="#85373A"/>
<path d="M1483.34 194.386C1484.7 208.177 1481.73 216.618 1481.05 218.926C1479.94 222.726 1476 219.586 1472.69 221.217C1470.08 222.506 1459.25 216.903 1459.1 212.214C1458.89 205.232 1458.99 206.227 1458.99 206.227C1458.1 206.187 1458.68 201.195 1459.79 201.244C1460.94 199.695 1462.16 191.172 1462.16 191.172L1483.34 194.386Z" fill="#F5AA93"/>
<path d="M1430.55 233.295C1427.87 239.331 1415.58 282.636 1439.47 284.659C1450.3 285.572 1466.66 262.59 1468.54 241.157C1470.13 222.881 1477.48 234.062 1474.15 212.515C1473.33 207.247 1479.86 207.141 1483.59 194.296C1483.75 193.717 1484.68 193.88 1485.19 193.643C1481.71 190.993 1476.86 181.019 1465.84 181.394C1460.21 181.581 1454.69 185.186 1451.82 190.463C1446.77 199.719 1435.5 222.131 1430.55 233.295Z" fill="#85373A"/>
<path d="M1483 403.876L1460.45 572.964L1488.43 400.63L1483 403.876Z" fill="black"/>
<path d="M1460.84 570.094C1462.25 573.763 1483.83 574.522 1482.46 576.838C1481.26 578.893 1471.12 582.245 1468.49 581.65C1463.06 580.418 1462.17 578.518 1460.28 579.007C1458.39 579.497 1454.39 581.74 1452.25 578.428C1450.1 575.117 1450.14 571.195 1450.14 571.195L1460.84 570.094Z" fill="#F39200"/>
<path d="M1480.65 202.737L1479.82 210.387C1478.09 210.827 1473.12 212.589 1474.16 203.707C1474.94 197.085 1479.3 201.881 1480.65 202.737Z" fill="#F5AA93"/>
<path d="M1483.62 400.288L1494.01 401.666L1495.1 338.11L1486.94 276.944L1490.16 335.305L1483.62 400.288Z" fill="#F39200"/>
<path d="M1342.11 635.473C1396.17 635.473 1440 631.022 1440 625.532C1440 620.042 1396.17 615.592 1342.11 615.592C1288.05 615.592 1244.22 620.042 1244.22 625.532C1244.22 631.022 1288.05 635.473 1342.11 635.473Z" fill="#56AE73"/>
<path d="M1315.67 176.473C1315.67 176.473 1315.67 208.371 1318.67 233.126V233.137C1319.63 241.046 1320.9 248.225 1322.56 253.406L1304.45 213.644L1308.75 205.632C1308.75 205.632 1303.09 202.539 1303.09 201.181C1303.09 199.823 1296.75 179.383 1296.75 179.383L1316.84 175.354L1340.98 177.112C1333.68 178.367 1317.96 178.767 1315.67 176.473Z" fill="#A6A6A6"/>
<path d="M1281.18 240.304L1251.65 281.379L1209.45 254.513L1249.99 270.058L1281.18 240.304Z" fill="black"/>
<path d="M1287.24 391.855L1279.3 391.045L1282.91 237.885L1287.24 391.855Z" fill="black"/>
<path d="M1352.26 204.114L1345.91 210.46L1347.73 216.383L1324.55 253.395C1326.07 249.275 1328.38 242.986 1330.81 234.769C1334.97 220.754 1339.46 201.147 1340.98 177.1L1358.07 183.571L1352.26 204.114Z" fill="#A6A6A6"/>
<path d="M1376.73 311.292L1381.71 401.476L1380.16 401.316L1332.86 396.5L1325.72 395.781L1287.24 391.855L1287.22 391.239L1282.91 237.885L1281.17 240.304L1249.98 270.058L1209.44 254.513L1180.94 236.367L1188.5 222.318L1244.24 248.145L1278.42 184.404L1296.72 179.371C1296.72 179.371 1303.07 199.812 1303.07 201.17C1303.07 202.528 1308.73 205.621 1308.73 205.621L1304.43 213.633L1322.54 253.395C1320.87 248.225 1319.61 241.035 1318.65 233.126V233.114C1315.65 208.36 1315.65 176.461 1315.65 176.461C1317.94 178.755 1333.64 178.344 1340.96 177.089C1339.45 201.136 1334.95 220.754 1330.79 234.758C1328.36 242.975 1326.04 249.263 1324.53 253.383L1347.7 216.372L1345.89 210.449L1352.24 204.103L1358.04 183.549L1384.01 193.204L1412.51 265.504L1376.73 311.292Z" fill="#3C3C3B"/>
<path d="M1377.17 311.714L1377.63 269.076" stroke="white" stroke-width="0.7498" stroke-miterlimit="10"/>
<path d="M1365.77 312.878L1343.71 315.355L1341.61 312.262L1363.67 309.786L1365.77 312.878Z" fill="#A6A6A6"/>
<path d="M1288.89 310.094L1310.96 312.57L1313.06 309.477L1290.98 306.989L1288.89 310.094Z" fill="#A6A6A6"/>
<path d="M1328.46 199.812C1330.33 208.486 1331.02 224.589 1330.81 234.769C1328.38 242.986 1326.07 249.275 1324.55 253.395C1324.16 254.445 1323.83 255.358 1323.56 256.111C1323.21 255.278 1322.88 254.376 1322.56 253.395C1320.9 248.225 1319.63 241.035 1318.67 233.126V233.114C1319.74 218.711 1324.62 199.949 1324.62 199.949L1321.44 193.455L1327.1 188.353L1331.86 194.06C1331.86 194.071 1328.65 200.725 1328.46 199.812Z" fill="#2EAC62"/>
<path d="M1330.81 234.769C1331.02 224.589 1330.33 208.497 1328.46 199.812C1328.66 200.725 1331.86 194.071 1331.86 194.071L1327.1 188.365L1321.44 193.466L1324.62 199.96C1324.62 199.96 1319.75 218.711 1318.67 233.126C1315.67 208.371 1315.67 176.473 1315.67 176.473C1317.96 178.767 1333.67 178.356 1340.98 177.1C1339.46 201.147 1334.97 220.754 1330.81 234.769Z" fill="white"/>
<path d="M1340.98 177.1C1340.98 177.1 1328.63 187.292 1327.16 187.292C1325.84 187.292 1317.55 178.493 1315.95 176.769C1332.54 174.92 1338.47 161.739 1339.67 157.253L1340.14 157.105L1340.98 177.1Z" fill="#F5AA93"/>
<path d="M1322.56 395.45L1323.56 255.301" stroke="white" stroke-width="0.752" stroke-miterlimit="10"/>
<path d="M1186.74 225.605H1141.99C1141.99 225.605 1137.31 227.305 1138.79 228.8C1140.29 230.295 1156.94 234.769 1161.93 234.769C1166.91 234.769 1182.63 233.263 1182.63 233.263L1186.74 225.605Z" fill="#F5AA93"/>
<path d="M1325.72 395.781L1324.94 400.928L1281.07 397.094L1281.13 391.239H1287.22L1287.24 391.855L1325.72 395.781Z" fill="black"/>
<path d="M1324.94 400.928L1292.2 614.005H1278.84L1281.07 397.094L1324.94 400.928Z" fill="#3C3C3B"/>
<path d="M1380.71 405.79L1334.29 401.739L1332.86 396.5L1380.16 401.316L1380.71 405.79Z" fill="black"/>
<path d="M1279.97 611.974C1279.4 616.961 1250.81 626.205 1253.23 628.625C1255.39 630.782 1268.98 631.684 1272.04 630.097C1278.34 626.833 1278.84 624.208 1281.33 624.208C1283.82 624.208 1289.49 625.703 1291.07 620.921C1292.66 616.139 1291.54 611.974 1291.54 611.974H1279.97Z" fill="black"/>
<path d="M1405.23 610.616C1408.67 616.493 1433.31 633.396 1430.32 635.062C1427.66 636.545 1414.34 633.692 1411.83 631.341C1406.66 626.479 1406.9 624.767 1404.51 624.094C1402.11 623.409 1395.22 623.375 1395 618.342C1394.78 613.309 1398.02 608.573 1398.02 608.573L1405.23 610.616Z" fill="black"/>
<path d="M1406.41 612.419L1403.39 613.149L1380.71 405.79L1406.41 612.419Z" fill="#3C3C3B"/>
<path d="M1403.39 613.149L1393.15 615.592L1334.29 401.739L1380.71 405.79L1403.39 613.149Z" fill="#3C3C3B"/>
<path d="M1377.17 241.503V270.731L1383.75 259.626L1377.17 241.503Z" fill="white"/>
<path d="M1339.67 157.265C1338.47 161.75 1332.54 174.92 1315.95 176.781C1315.77 176.587 1315.68 176.484 1315.68 176.484C1315.68 176.484 1316.06 165.436 1316.06 164.455L1339.67 157.265Z" fill="#DD7961"/>
<path d="M1342.67 117.423C1338.05 116.635 1336.91 118.815 1329.75 118.244C1315.71 117.137 1313.99 126.405 1309.4 129.577C1304.56 126.987 1302.4 123.198 1301.51 121.257C1301.51 121.257 1305.2 123.3 1308.46 120.048C1320.18 108.327 1326.96 114.764 1330.81 114.764C1335.84 114.764 1339.76 115.688 1342.67 117.423Z" fill="#85373A"/>
<path d="M1311.71 130.627C1310.86 138.331 1312.3 159.102 1313.19 162.047C1313.66 163.565 1317.05 165.756 1321.06 168.21C1324.82 170.526 1341.11 160.734 1341.56 154.765C1342.24 145.886 1342.06 147.142 1342.06 147.142C1343.19 147.142 1351.12 150.885 1349.76 142.268C1348.4 133.652 1342.74 140.739 1341.31 140.739C1339.94 138.708 1338.88 127.763 1338.88 127.763L1311.71 130.627Z" fill="#F5AA93"/>
<path d="M1325.4 134.941C1326.61 134.028 1330.78 132.944 1332.56 135.284C1333.59 136.642 1332.05 136.208 1331.37 136.117C1330.7 136.026 1327.74 135.581 1325.51 136.071C1324.83 136.208 1324.3 135.775 1325.4 134.941Z" fill="#66282D"/>
<path d="M1329.36 141.287C1330.37 141.287 1331.18 140.475 1331.18 139.472C1331.18 138.47 1330.37 137.658 1329.36 137.658C1328.36 137.658 1327.55 138.47 1327.55 139.472C1327.55 140.475 1328.36 141.287 1329.36 141.287Z" fill="#85373A"/>
<path d="M1330.09 139.05C1330.42 139.05 1330.68 138.789 1330.68 138.468C1330.68 138.146 1330.42 137.886 1330.09 137.886C1329.77 137.886 1329.51 138.146 1329.51 138.468C1329.51 138.789 1329.77 139.05 1330.09 139.05Z" fill="white"/>
<path d="M1319.8 142.656C1320.87 137.224 1318.09 135.843 1316.97 135.706C1316.97 135.706 1312.54 132.008 1311.46 135.706C1311.46 135.706 1311.85 160.449 1313.2 162.047C1317.26 166.84 1322.27 168.769 1322.24 168.552C1316.39 165.197 1323.43 160.563 1319.81 158.03L1318.91 153.704C1319.54 153.076 1320.36 151.227 1320.36 150.68C1320.36 150.68 1317.79 147.359 1319.95 142.257L1319.8 142.656Z" fill="#DD7961"/>
<path d="M1334.43 130.331C1331.97 132.796 1314.35 137.395 1311.4 130.502C1316.4 132.522 1323.74 133.218 1334.43 130.331Z" fill="#DD7961"/>
<path d="M1346.47 140.842C1347.24 141.606 1346.99 144.745 1343.64 143.9C1340.3 143.056 1347.21 144.072 1346.42 145.316" stroke="#85373A" stroke-miterlimit="10"/>
<path d="M1316.65 134.679C1315.91 133.595 1313.16 131.94 1311.7 134.006C1310.85 135.204 1311.95 134.987 1312.43 134.987C1312.9 134.987 1314.97 134.964 1316.47 135.775C1316.91 136.014 1317.32 135.66 1316.65 134.679Z" fill="#66282D"/>
<path d="M1319.93 142.257C1319.17 144.973 1315.85 146.788 1316.46 149.207C1317.06 151.627 1319.17 150.417 1320.53 151.022L1319.93 142.257Z" fill="#F5AA93"/>
<path d="M1326.31 153.704C1326.31 153.83 1326.28 153.967 1326.25 154.092C1324.96 154.72 1322.86 155.29 1319.67 155.29C1317.02 155.29 1315.82 154.663 1315.02 153.989C1314.98 153.898 1314.95 153.795 1314.92 153.704H1326.31Z" fill="white"/>
<path d="M1326.25 154.092C1325.97 155.142 1324.74 156.352 1323.89 157.162C1323.64 156.751 1323.17 156.146 1321.42 156.146C1318.32 156.146 1317.97 157.151 1317.6 157.687C1317.5 157.653 1317.42 157.619 1317.38 157.584C1316.39 156.58 1315.5 155.348 1315.03 153.989C1315.83 154.663 1317.02 155.29 1319.69 155.29C1322.86 155.29 1324.96 154.72 1326.25 154.092Z" fill="#B55846"/>
<path d="M1323.9 157.162C1323.69 157.356 1323.51 157.527 1323.37 157.664C1322.65 158.383 1318.62 158.018 1317.61 157.687C1317.99 157.151 1318.33 156.146 1321.43 156.146C1323.18 156.146 1323.65 156.751 1323.9 157.162Z" fill="#ED7B88"/>
<path d="M1314.2 141.664C1315.2 141.664 1316.01 140.851 1316.01 139.849C1316.01 138.847 1315.2 138.034 1314.2 138.034C1313.19 138.034 1312.38 138.847 1312.38 139.849C1312.38 140.851 1313.19 141.664 1314.2 141.664Z" fill="#85373A"/>
<path d="M1314.93 139.427C1315.25 139.427 1315.51 139.166 1315.51 138.845C1315.51 138.523 1315.25 138.263 1314.93 138.263C1314.61 138.263 1314.35 138.523 1314.35 138.845C1314.35 139.166 1314.61 139.427 1314.93 139.427Z" fill="white"/>
<path d="M1341.32 140.728C1340.57 139.461 1338.23 134.12 1334.43 130.319C1323.75 133.207 1316.41 132.51 1311.4 130.49C1310.69 130.205 1310.03 129.897 1309.4 129.566C1313.98 126.393 1315.71 117.126 1329.75 118.233C1336.92 118.804 1338.05 116.612 1342.67 117.411C1346.04 119.42 1348.04 122.513 1348.78 126.542C1350.25 134.405 1344.42 139.746 1341.32 140.728Z" fill="#66282D"/>
<path d="M1287.24 396.5L1278.84 614.005L1281.13 391.239L1287.24 396.5Z" fill="black"/>
<path d="M1107.31 225.605H1219.76C1221.03 225.605 1222.06 224.578 1222.06 223.299V222.158C1222.06 220.88 1221.03 219.853 1219.76 219.853H1107.31C1106.03 219.853 1105 220.88 1105 222.158V223.299C1105 224.578 1106.03 225.605 1107.31 225.605Z" fill="black"/>
<path d="M1191.9 160.906C1191.9 173.95 1187.53 184.519 1182.13 184.519C1180.44 184.519 1178.85 183.491 1177.47 181.665C1189.45 172.855 1187.22 153.978 1185.46 147.05H1190.04C1191.21 150.954 1191.9 155.736 1191.9 160.906Z" fill="white" stroke="#F9B233" stroke-width="1.3393" stroke-miterlimit="10"/>
<path d="M1177.05 182.35C1173.86 178.173 1171.71 170.013 1171.71 160.643C1171.71 155.233 1172.43 150.235 1173.65 146.172H1185.4C1187.24 153.419 1189.58 173.151 1177.05 182.35Z" fill="#F9B233"/>
<path d="M1182.13 221.416V184.53" stroke="#F9B233" stroke-width="2.6786" stroke-miterlimit="10"/>
<path d="M1182.13 221.907C1190.83 221.907 1197.88 220.921 1197.88 219.704C1197.88 218.488 1190.83 217.502 1182.13 217.502C1173.43 217.502 1166.38 218.488 1166.38 219.704C1166.38 220.921 1173.43 221.907 1182.13 221.907Z" fill="#F9B233"/>
<path d="M1150.66 160.906C1150.66 173.95 1146.29 184.519 1140.89 184.519C1139.2 184.519 1137.62 183.491 1136.24 181.665C1148.22 172.855 1145.98 153.978 1144.23 147.05H1148.8C1149.97 150.954 1150.66 155.736 1150.66 160.906Z" fill="white" stroke="#F9B233" stroke-width="1.3393" stroke-miterlimit="10"/>
<path d="M1135.8 182.35C1132.62 178.173 1130.46 170.013 1130.46 160.643C1130.46 155.233 1131.18 150.235 1132.4 146.172H1144.16C1145.99 153.419 1148.33 173.151 1135.8 182.35Z" fill="#F9B233"/>
<path d="M1140.89 221.416V184.53" stroke="#F9B233" stroke-width="2.6786" stroke-miterlimit="10"/>
<path d="M1140.89 221.907C1149.59 221.907 1156.64 220.921 1156.64 219.704C1156.64 218.488 1149.59 217.502 1140.89 217.502C1132.19 217.502 1125.14 218.488 1125.14 219.704C1125.14 220.921 1132.19 221.907 1140.89 221.907Z" fill="#F9B233"/>
<path d="M1070.41 621.673H1077.12L1072.12 631.779L1070.41 621.673Z" fill="white" stroke="black" stroke-width="2.385" stroke-miterlimit="10"/>
<path d="M1080.63 675.42H1074.41L1066.49 635.233H1072.71L1080.63 675.42Z" fill="#A6A6A6" stroke="black" stroke-width="2.385" stroke-miterlimit="10"/>
<path d="M992 596.276C1000.32 605.593 1003.66 622.25 1041.95 614.257C1032.62 601.936 1019.64 592.279 992 596.276Z" fill="#2EAC62"/>
<path d="M1064.23 635.233L1072.71 613.756" stroke="#006633" stroke-width="2.385" stroke-miterlimit="10"/>
<path d="M1091.36 581.248C1099.56 599.059 1076.95 613.756 1072.71 613.756C1071.59 604.422 1078.65 588.317 1091.36 581.248Z" fill="#2EAC62"/>
<path d="M1077.12 621.673L1079.21 617.43L1086 619.221" stroke="#006633" stroke-width="2.385" stroke-miterlimit="10"/>
<path d="M1072.12 631.779L1070.41 635.233" stroke="#020203" stroke-width="2.385" stroke-miterlimit="10"/>
<path d="M992 596.276C997.499 601.775 1017.31 614.257 1041.95 614.257L1052.28 619.255L1056.61 635.241" stroke="#006633" stroke-width="2.8097" stroke-miterlimit="10"/>
<path d="M1191.63 518.439C1179.78 524.362 1165.88 527.926 1153.44 531.091C1144.54 533.356 1136.39 535.418 1130.27 537.989C1129.18 538.456 1128.15 538.931 1127.19 539.432C1125.08 540.526 1123.32 541.731 1122 543.072C1124.58 534.29 1129.14 520.925 1136.64 508.502C1143.29 497.505 1152.23 487.246 1164.14 481.578C1168.35 479.575 1172.91 478.15 1177.87 477.471C1189.3 475.876 1202.84 478.201 1218.82 486.491C1215.77 502.036 1205.01 511.744 1191.63 518.439Z" fill="#2EAC62"/>
<path d="M1091.36 581.248C1092.96 586.594 1090.51 599.976 1072.43 614.231" stroke="#006633" stroke-width="2.385" stroke-miterlimit="10"/>
<path d="M1218.83 486.482C1129.7 493.415 1089.56 583.064 1115.78 621.673" stroke="#006633" stroke-width="2.385" stroke-miterlimit="10"/>
<path d="M1180.76 577.37C1171.35 587.901 1167.58 606.739 1124.29 597.702C1134.83 583.777 1149.51 572.856 1180.76 577.37Z" fill="#2EAC62"/>
<path d="M1180.76 577.37C1174.55 583.582 1152.15 597.702 1124.29 597.702L1112.62 603.353L1107.72 621.427" stroke="#006633" stroke-width="2.3846" stroke-miterlimit="10"/>
<path d="M1074.41 675.42H1053.49L1044.16 635.233H1066.49L1074.41 675.42Z" fill="white" stroke="black" stroke-width="2.385" stroke-miterlimit="10"/>
<path d="M1104.83 631.262C1093.25 634.512 1083.92 627.121 1084.79 622.343L1101.75 627.367C1101.75 627.367 1104.05 630.489 1104.83 631.262Z" fill="#A6A6A6"/>
<path d="M1085.71 675.42H1113.13L1122.46 621.673H1098.55C1102.78 623.667 1105.98 626.018 1104.79 626.34C1103.72 626.62 1102.67 626.832 1101.63 626.968C1101.63 626.968 1103.93 630.082 1104.71 630.863C1093.13 634.113 1083.8 626.722 1084.67 621.945C1084.63 621.86 1084.59 621.766 1084.57 621.681H1077.11L1072.11 631.788V631.796L1072.7 635.25" fill="white"/>
<path d="M1085.71 675.42H1113.13L1122.46 621.673H1098.55C1102.78 623.667 1105.98 626.018 1104.79 626.34C1103.72 626.62 1102.67 626.832 1101.63 626.968C1101.63 626.968 1103.93 630.082 1104.71 630.863C1093.13 634.113 1083.8 626.722 1084.67 621.945C1084.63 621.86 1084.59 621.766 1084.57 621.681H1077.11L1072.11 631.788V631.796L1072.7 635.25" stroke="black" stroke-width="2.385" stroke-miterlimit="10"/>
<path d="M1104.8 626.332C1103.73 626.612 1102.68 626.824 1101.64 626.96C1093.07 628.139 1085.98 624.753 1084.68 621.936C1084.64 621.851 1084.6 621.758 1084.58 621.673C1084.25 620.689 1084.65 619.798 1086 619.221C1088.08 618.321 1091.45 618.941 1094.79 620.112C1096.08 620.57 1097.36 621.105 1098.56 621.673C1102.78 623.659 1105.98 626.018 1104.8 626.332Z" fill="#2EAC62" stroke="#006633" stroke-width="2.385" stroke-miterlimit="10"/>
<path d="M1072.37 633.383L1080.66 675.42H1085.99" fill="white"/>
<path d="M1072.37 633.383L1080.66 675.42H1085.99" stroke="black" stroke-width="2.4948" stroke-miterlimit="10"/>
<path d="M-22.9324 652.966C5.3667 652.966 28.3077 651.039 28.3077 648.663C28.3077 646.286 5.3667 644.36 -22.9324 644.36C-51.2315 644.36 -74.1725 646.286 -74.1725 648.663C-74.1725 651.039 -51.2315 652.966 -22.9324 652.966Z" fill="#56AE73"/>
<path d="M212.836 652.966C241.135 652.966 264.076 651.039 264.076 648.663C264.076 646.286 241.135 644.36 212.836 644.36C184.537 644.36 161.596 646.286 161.596 648.663C161.596 651.039 184.537 652.966 212.836 652.966Z" fill="#56AE73"/>
<path d="M-21.5805 648.59H8.11709L18.2234 590.485H-7.67439C-3.0926 592.637 0.371151 595.182 -0.914967 595.525C-2.06955 595.831 -3.21682 596.05 -4.33487 596.203C-4.33487 596.203 -1.84302 599.573 -0.99535 600.411C-13.5423 603.927 -23.6413 595.941 -22.7059 590.77C-22.757 590.675 -22.7863 590.58 -22.8155 590.478H-30.8976L-36.3124 601.403V601.411L-35.6767 605.137" fill="white"/>
<path d="M-21.5805 648.59H8.11709L18.2233 590.485H-7.67439C-3.0926 592.637 0.371152 595.182 -0.914966 595.525C-2.06955 595.831 -3.21682 596.05 -4.33487 596.203C-4.33487 596.203 -1.84302 599.573 -0.995349 600.411C-13.5423 603.927 -23.6413 595.941 -22.7059 590.77C-22.757 590.675 -22.7863 590.58 -22.8155 590.478H-30.8976L-36.3124 601.403V601.411L-35.6767 605.137" stroke="black" stroke-width="3" stroke-miterlimit="10"/>
<path d="M175.919 203.732C156.992 213.344 140.12 189.539 139.937 184.959C149.985 183.347 167.727 190.29 175.919 203.732Z" fill="#95C11F"/>
<path d="M175.919 203.732C170.204 205.679 156.138 203.87 139.937 184.959" stroke="#006633" stroke-width="3" stroke-miterlimit="10"/>
<path d="M61.2352 513.317C31.1941 493.502 -13.6154 537.238 -11.6862 591.878" stroke="#006633" stroke-width="3" stroke-miterlimit="10"/>
<path d="M-0.91497 595.525C-2.06955 595.831 -3.21682 596.05 -4.33487 596.203C-13.6227 597.472 -21.3029 593.818 -22.7059 590.77C-22.757 590.675 -22.7863 590.58 -22.8155 590.478C-23.1736 589.413 -22.7351 588.451 -21.2736 587.831C-19.0229 586.861 -15.3692 587.524 -11.752 588.793C-10.3562 589.289 -8.96781 589.866 -7.66708 590.485C-3.09259 592.637 0.371147 595.182 -0.91497 595.525Z" fill="#2EAC62" stroke="#006633" stroke-width="3" stroke-miterlimit="10"/>
<path d="M298.458 578.7C282.426 576.928 262.944 585.351 242.636 539.178C262.586 539.747 293.409 544.459 298.458 578.7Z" fill="#F9B233"/>
<path d="M213.611 563.887L200.706 531.265" stroke="#006633" stroke-width="2.8091" stroke-miterlimit="10"/>
<path d="M179.887 560.336L190.205 557.615L193.398 564.055" stroke="#006633" stroke-width="2.8091" stroke-miterlimit="10"/>
<path d="M298.458 578.7C289.894 566.761 273.773 548.433 242.373 538.609L231.85 533.76L220.977 563.712" stroke="#F39200" stroke-width="3" stroke-miterlimit="10"/>
<path d="M8.30709 178.403C-36.9482 250.371 216.738 482.183 205.09 564.456" stroke="#006633" stroke-width="3" stroke-miterlimit="10"/>
<path d="M141.384 185.754C46.2695 169.578 -4.11565 505.703 -2.42031 589.472" stroke="#006633" stroke-width="3" stroke-miterlimit="10"/>
<path d="M319.226 336.838C314.995 333.162 311.1 329.312 307.571 325.395C278.129 292.773 272.093 253.361 280.255 239.876C280.504 239.439 280.789 239.059 281.081 238.68C284.267 234.472 289.17 233.648 295.447 237.659C305.159 243.836 312.196 259.728 316.814 277.071C318.561 283.788 319.979 290.68 321.009 297.339C324.714 320.771 323.947 340.908 319.226 336.838Z" fill="#2EAC62"/>
<path d="M-114.817 267.065C-105.449 215.247 -57.4311 195.571 -30.6491 189.459C97.1442 160.301 149.4 378.124 217.798 563.574" stroke="#006633" stroke-width="3" stroke-miterlimit="10"/>
<path d="M59.6129 513.317C76.4347 518.225 114.353 533.183 92.3285 575.717C62.9013 569.999 69.7995 523.279 59.6129 513.317Z" fill="#2EAC62"/>
<path d="M59.8833 512.639C59.8833 512.639 101.119 532.301 92.3285 575.717" stroke="#006633" stroke-width="3" stroke-miterlimit="10"/>
<path d="M175.605 506.038C167.113 532.629 201.692 549.447 207.692 548.703C207.663 535.328 194.845 513.798 175.605 506.038Z" fill="#2EAC62"/>
<path d="M175.605 506.038C174.282 513.864 179.624 531.718 207.692 548.703" stroke="#006633" stroke-width="3" stroke-miterlimit="10"/>
<path d="M189.533 156.18L166.974 182.975" stroke="#F9B233" stroke-width="3" stroke-miterlimit="10" stroke-linecap="round"/>
<path d="M185.309 172.182L171.498 188.584" stroke="#F9B233" stroke-width="3" stroke-miterlimit="10" stroke-linecap="round"/>
<path d="M319.226 336.838C302.499 30.3524 -50.2112 370.7 -50.2112 605.473" stroke="#006633" stroke-width="3" stroke-miterlimit="10"/>
<path d="M-7.37476 121.181C31.3257 135.359 26.627 174.216 2.65842 197.058C-13.5057 175.529 0.809626 136.03 -7.37476 121.181Z" fill="#2EAC62"/>
<path d="M2.89953 198.437C3.19183 191.866 28.4611 147.961 -6.3006 122.253" stroke="#006633" stroke-width="3" stroke-miterlimit="10"/>
<path d="M102.719 153.969C104.23 153.327 105.155 152.103 104.785 151.236C104.415 150.369 102.89 150.187 101.379 150.83C99.8675 151.472 98.9428 152.696 99.3131 153.563C99.6834 154.43 101.208 154.612 102.719 153.969Z" fill="white"/>
<path d="M237.701 153.677C239.212 153.034 240.137 151.81 239.767 150.943C239.397 150.076 237.872 149.895 236.36 150.537C234.849 151.18 233.925 152.404 234.295 153.271C234.665 154.138 236.19 154.32 237.701 153.677Z" fill="white"/>
<path d="M252.932 564.354L237.521 648.137H220.553L234.627 564.354H252.932Z" fill="#A6A6A6" stroke="black" stroke-width="2.9724" stroke-miterlimit="10"/>
<path d="M234.627 564.354L220.553 648.137H188.524L174.465 564.354H234.627Z" fill="white" stroke="black" stroke-width="2.9724" stroke-miterlimit="10"/>
<path d="M151.285 569.678C152.908 570.108 154.515 570.422 156.086 570.633C169.13 572.42 179.923 567.286 181.889 562.998C181.955 562.866 181.999 562.728 182.05 562.596C182.554 561.101 181.94 559.752 179.887 558.877C176.723 557.513 171.6 558.447 166.514 560.226C164.556 560.926 162.605 561.736 160.778 562.596C154.347 565.623 149.48 569.197 151.285 569.678Z" fill="#2EAC62" stroke="#006633" stroke-width="2.8091" stroke-miterlimit="10"/>
</g>
<defs>
<clipPath id="clip0">
<rect width="1920" height="662" fill="white"/>
</clipPath>
</defs>
</svg>
