<svg width="24" height="25" viewBox="0 0 24 25" fill="none" xmlns="http://www.w3.org/2000/svg">
    <g clip-path="url(#clip0)">
        <path d="M16.1433 12.3253L9.55405 7.55748C9.52202 7.53423 9.48419 7.52031 9.44473 7.51724C9.40528 7.51418 9.36575 7.5221 9.33052 7.54013C9.2953 7.55816 9.26575 7.5856 9.24516 7.61939C9.22457 7.65318 9.21374 7.69202 9.21387 7.73159V8.98784C9.21387 9.26105 9.34512 9.52088 9.56744 9.68159L13.4621 12.4994L9.56744 15.3173C9.34512 15.478 9.21387 15.7352 9.21387 16.0111V17.2673C9.21387 17.4414 9.41208 17.5432 9.55405 17.4414L16.1433 12.6736C16.2612 12.5878 16.2612 12.4111 16.1433 12.3253Z" fill="#F6F7F8"/>
        <path d="M12 0.5C5.37321 0.5 0 5.87321 0 12.5C0 19.1268 5.37321 24.5 12 24.5C18.6268 24.5 24 19.1268 24 12.5C24 5.87321 18.6268 0.5 12 0.5ZM12 22.4643C6.49821 22.4643 2.03571 18.0018 2.03571 12.5C2.03571 6.99821 6.49821 2.53571 12 2.53571C17.5018 2.53571 21.9643 6.99821 21.9643 12.5C21.9643 18.0018 17.5018 22.4643 12 22.4643Z" fill="#F6F7F8"/>
    </g>
    <defs>
        <clipPath id="clip0">
            <rect width="24" height="24" fill="white" transform="translate(0 0.5)"/>
        </clipPath>
    </defs>
</svg>