<svg width="173" height="35" viewBox="0 0 173 35" fill="none" xmlns="http://www.w3.org/2000/svg">
<path d="M47.4522 16.7988C46.2922 16.7988 45.4055 17.2321 44.7922 18.0988C44.1788 18.9655 43.8722 20.1521 43.8722 21.6588C43.8722 23.1788 44.1522 24.3588 44.7122 25.1988C45.2855 26.0255 46.1988 26.4388 47.4522 26.4388C48.0388 26.4388 48.6188 26.3721 49.1922 26.2388C49.7788 26.1055 50.4122 25.9188 51.0922 25.6788V28.2188C50.4655 28.4721 49.8455 28.6588 49.2322 28.7788C48.6188 28.8988 47.9322 28.9588 47.1722 28.9588C45.7055 28.9588 44.4922 28.6588 43.5322 28.0588C42.5855 27.4455 41.8855 26.5921 41.4322 25.4988C40.9788 24.3921 40.7522 23.1055 40.7522 21.6388C40.7522 20.1988 41.0122 18.9255 41.5322 17.8188C42.0522 16.7121 42.8055 15.8455 43.7922 15.2188C44.7922 14.5921 46.0122 14.2788 47.4522 14.2788C48.1588 14.2788 48.8655 14.3721 49.5722 14.5588C50.2922 14.7321 50.9788 14.9721 51.6322 15.2788L50.6522 17.7388C50.1188 17.4855 49.5788 17.2655 49.0322 17.0788C48.4988 16.8921 47.9722 16.7988 47.4522 16.7988ZM63.4065 17.8388V28.7588H60.4265V20.0788H56.4665V28.7588H53.4865V17.8388H63.4065ZM70.6134 17.6188C72.0801 17.6188 73.2001 17.9388 73.9734 18.5788C74.7601 19.2055 75.1534 20.1721 75.1534 21.4788V28.7588H73.0734L72.4934 27.2788H72.4134C71.9467 27.8655 71.4534 28.2921 70.9334 28.5588C70.4134 28.8255 69.7001 28.9588 68.7934 28.9588C67.8201 28.9588 67.0134 28.6788 66.3734 28.1188C65.7334 27.5455 65.4134 26.6721 65.4134 25.4988C65.4134 24.3388 65.8201 23.4855 66.6334 22.9388C67.4467 22.3788 68.6667 22.0721 70.2934 22.0188L72.1934 21.9588V21.4788C72.1934 20.9055 72.0401 20.4855 71.7334 20.2188C71.4401 19.9521 71.0267 19.8188 70.4934 19.8188C69.9601 19.8188 69.4401 19.8988 68.9334 20.0588C68.4267 20.2055 67.9201 20.3921 67.4134 20.6188L66.4334 18.5988C67.0201 18.2921 67.6667 18.0521 68.3734 17.8788C69.0934 17.7055 69.8401 17.6188 70.6134 17.6188ZM71.0334 23.7388C70.0734 23.7655 69.4067 23.9388 69.0334 24.2588C68.6601 24.5788 68.4734 24.9988 68.4734 25.5188C68.4734 25.9721 68.6067 26.2988 68.8734 26.4988C69.1401 26.6855 69.4867 26.7788 69.9134 26.7788C70.5534 26.7788 71.0934 26.5921 71.5334 26.2188C71.9734 25.8321 72.1934 25.2921 72.1934 24.5988V23.6988L71.0334 23.7388ZM82.2437 28.9588C80.6171 28.9588 79.3571 28.5121 78.4637 27.6188C77.5837 26.7121 77.1437 25.2921 77.1437 23.3588C77.1437 22.0255 77.3704 20.9388 77.8237 20.0988C78.2771 19.2588 78.9037 18.6388 79.7037 18.2388C80.5171 17.8388 81.4504 17.6388 82.5037 17.6388C83.2504 17.6388 83.8971 17.7121 84.4437 17.8588C85.0037 18.0055 85.4904 18.1788 85.9037 18.3788L85.0237 20.6788C84.5571 20.4921 84.1171 20.3388 83.7037 20.2188C83.3037 20.0988 82.9037 20.0388 82.5037 20.0388C80.9571 20.0388 80.1837 21.1388 80.1837 23.3388C80.1837 24.4321 80.3837 25.2388 80.7837 25.7588C81.1971 26.2788 81.7704 26.5388 82.5037 26.5388C83.1304 26.5388 83.6837 26.4588 84.1637 26.2988C84.6437 26.1255 85.1104 25.8921 85.5637 25.5988V28.1388C85.1104 28.4321 84.6304 28.6388 84.1237 28.7588C83.6304 28.8921 83.0037 28.9588 82.2437 28.9588ZM90.5572 22.1588C90.5572 22.3855 90.5438 22.6655 90.5172 22.9988C90.5038 23.3321 90.4838 23.6721 90.4572 24.0188C90.4438 24.3655 90.4238 24.6721 90.3972 24.9388C90.3705 25.2055 90.3505 25.3921 90.3372 25.4988L95.3772 17.8388H98.9572V28.7588H96.0772V24.3988C96.0772 24.0388 96.0905 23.6455 96.1172 23.2188C96.1438 22.7788 96.1705 22.3721 96.1972 21.9988C96.2372 21.6121 96.2638 21.3188 96.2772 21.1188L91.2572 28.7588H87.6772V17.8388H90.5572V22.1588ZM101.012 22.2188C101.012 19.8055 101.465 17.9321 102.372 16.5988C103.292 15.2655 104.805 14.4121 106.912 14.0388C107.618 13.9188 108.332 13.8188 109.052 13.7388C109.785 13.6455 110.538 13.5521 111.312 13.4588L111.652 16.0588C111.198 16.1121 110.698 16.1721 110.152 16.2388C109.618 16.3055 109.085 16.3721 108.552 16.4388C108.032 16.4921 107.565 16.5521 107.152 16.6188C106.485 16.7255 105.932 16.8921 105.492 17.1188C105.052 17.3321 104.712 17.6788 104.472 18.1588C104.245 18.6388 104.105 19.3321 104.052 20.2388H104.192C104.352 19.9855 104.572 19.7321 104.852 19.4788C105.145 19.2255 105.505 19.0121 105.932 18.8388C106.358 18.6655 106.845 18.5788 107.392 18.5788C108.698 18.5788 109.732 18.9788 110.492 19.7788C111.265 20.5788 111.652 21.7721 111.652 23.3588C111.652 24.5988 111.425 25.6321 110.972 26.4588C110.518 27.2855 109.892 27.9121 109.092 28.3388C108.292 28.7521 107.365 28.9588 106.312 28.9588C104.698 28.9588 103.412 28.3788 102.452 27.2188C101.492 26.0588 101.012 24.3921 101.012 22.2188ZM106.492 26.5388C107.118 26.5388 107.625 26.3255 108.012 25.8988C108.412 25.4721 108.612 24.7121 108.612 23.6188C108.612 22.7521 108.465 22.0655 108.172 21.5588C107.892 21.0388 107.398 20.7788 106.692 20.7788C106.265 20.7788 105.865 20.8855 105.492 21.0988C105.132 21.2988 104.825 21.5321 104.572 21.7988C104.318 22.0521 104.145 22.2721 104.052 22.4588C104.052 23.1388 104.125 23.7921 104.272 24.4188C104.418 25.0455 104.665 25.5588 105.012 25.9588C105.372 26.3455 105.865 26.5388 106.492 26.5388ZM123.633 23.2788C123.633 25.0921 123.153 26.4921 122.193 27.4788C121.246 28.4655 119.953 28.9588 118.313 28.9588C117.3 28.9588 116.393 28.7388 115.593 28.2988C114.806 27.8588 114.186 27.2188 113.733 26.3788C113.28 25.5255 113.053 24.4921 113.053 23.2788C113.053 21.4655 113.526 20.0721 114.473 19.0988C115.42 18.1255 116.72 17.6388 118.373 17.6388C119.4 17.6388 120.306 17.8588 121.093 18.2988C121.88 18.7388 122.5 19.3788 122.953 20.2188C123.406 21.0455 123.633 22.0655 123.633 23.2788ZM116.093 23.2788C116.093 24.3588 116.266 25.1788 116.613 25.7388C116.973 26.2855 117.553 26.5588 118.353 26.5588C119.14 26.5588 119.706 26.2855 120.053 25.7388C120.413 25.1788 120.593 24.3588 120.593 23.2788C120.593 22.1988 120.413 21.3921 120.053 20.8588C119.706 20.3121 119.133 20.0388 118.333 20.0388C117.546 20.0388 116.973 20.3121 116.613 20.8588C116.266 21.3921 116.093 22.1988 116.093 23.2788Z" fill="#27AE60"/>
<path d="M142.899 28.7588H139.459L134.279 21.5188V28.7588H131.259V14.4788H134.279V21.3988L139.399 14.4788H142.619L137.419 21.3388L142.899 28.7588ZM146.576 28.9588C145.883 28.9588 145.263 28.9055 144.716 28.7988C144.183 28.6921 143.683 28.5188 143.216 28.2788V25.9588C143.696 26.1721 144.203 26.3588 144.736 26.5188C145.283 26.6655 145.843 26.7388 146.416 26.7388C147.096 26.7388 147.643 26.5455 148.056 26.1588C148.469 25.7721 148.703 25.1321 148.756 24.2388H144.636V22.2588H148.756C148.663 20.6455 147.963 19.8388 146.656 19.8388C146.189 19.8388 145.736 19.9055 145.296 20.0388C144.869 20.1588 144.476 20.2988 144.116 20.4588L143.276 18.4188C143.703 18.2321 144.216 18.0588 144.816 17.8988C145.429 17.7255 146.083 17.6388 146.776 17.6388C147.736 17.6388 148.596 17.8055 149.356 18.1388C150.116 18.4721 150.716 19.0388 151.156 19.8388C151.609 20.6388 151.836 21.7521 151.836 23.1788C151.836 25.1521 151.376 26.6121 150.456 27.5588C149.536 28.4921 148.243 28.9588 146.576 28.9588ZM170.15 17.8388V28.7588H153.89V17.8388H156.87V26.5188H160.53V17.8388H163.51V26.5188H167.17V17.8388H170.15Z" fill="white"/>
<path fill-rule="evenodd" clip-rule="evenodd" d="M25.9292 2.04559C27.7115 1.60306 29.5692 2.49991 30.0785 4.04876C30.1642 4.30934 30.2076 4.57903 30.2076 4.85003V7.29167H33.564C35.4177 7.29167 36.9204 8.5975 36.9204 10.2083V27.7083C36.9204 29.3192 35.4177 30.625 33.564 30.625H6.71284C4.85916 30.625 3.35645 29.3192 3.35645 27.7083H3.40126C3.37147 27.5515 3.35645 27.3926 3.35645 27.2333V9.85003C3.35645 8.5478 4.34986 7.40334 5.79077 7.04559L25.9292 2.04559ZM17.0171 27.7083H33.564V16.0416H30.2077V13.125H33.564V10.2083H30.2076V22.2333C30.2076 23.5356 29.2142 24.68 27.7733 25.0378L17.0171 27.7083ZM6.71284 9.85001V27.2333L26.8512 22.2333V4.85001L6.71284 9.85001ZM23.4948 13.125C23.4948 13.9304 22.7435 14.5833 21.8166 14.5833C20.8898 14.5833 20.1384 13.9304 20.1384 13.125C20.1384 12.3196 20.8898 11.6667 21.8166 11.6667C22.7435 11.6667 23.4948 12.3196 23.4948 13.125Z" fill="#27AE60"/>
</svg>
