<svg width="172" height="35" viewBox="0 0 172 35" fill="none" xmlns="http://www.w3.org/2000/svg">
<path d="M47.4523 16.7988C46.2923 16.7988 45.4056 17.2321 44.7923 18.0988C44.179 18.9655 43.8723 20.1521 43.8723 21.6588C43.8723 23.1788 44.1523 24.3588 44.7123 25.1988C45.2856 26.0255 46.199 26.4388 47.4523 26.4388C48.039 26.4388 48.619 26.3721 49.1923 26.2388C49.779 26.1055 50.4123 25.9188 51.0923 25.6788V28.2188C50.4656 28.4721 49.8456 28.6588 49.2323 28.7788C48.619 28.8988 47.9323 28.9588 47.1723 28.9588C45.7056 28.9588 44.4923 28.6588 43.5323 28.0588C42.5856 27.4455 41.8856 26.5921 41.4323 25.4988C40.979 24.3921 40.7523 23.1055 40.7523 21.6388C40.7523 20.1988 41.0123 18.9255 41.5323 17.8188C42.0523 16.7121 42.8056 15.8455 43.7923 15.2188C44.7923 14.5921 46.0123 14.2788 47.4523 14.2788C48.159 14.2788 48.8656 14.3721 49.5723 14.5588C50.2923 14.7321 50.979 14.9721 51.6323 15.2788L50.6523 17.7388C50.119 17.4855 49.579 17.2655 49.0323 17.0788C48.499 16.8921 47.9723 16.7988 47.4523 16.7988ZM63.4067 17.8388V28.7588H60.4267V20.0788H56.4667V28.7588H53.4867V17.8388H63.4067ZM70.6135 17.6188C72.0802 17.6188 73.2002 17.9388 73.9735 18.5788C74.7602 19.2055 75.1535 20.1721 75.1535 21.4788V28.7588H73.0735L72.4935 27.2788H72.4135C71.9469 27.8655 71.4535 28.2921 70.9335 28.5588C70.4135 28.8255 69.7002 28.9588 68.7935 28.9588C67.8202 28.9588 67.0135 28.6788 66.3735 28.1188C65.7335 27.5455 65.4135 26.6721 65.4135 25.4988C65.4135 24.3388 65.8202 23.4855 66.6335 22.9388C67.4469 22.3788 68.6669 22.0721 70.2935 22.0188L72.1935 21.9588V21.4788C72.1935 20.9055 72.0402 20.4855 71.7335 20.2188C71.4402 19.9521 71.0269 19.8188 70.4935 19.8188C69.9602 19.8188 69.4402 19.8988 68.9335 20.0588C68.4269 20.2055 67.9202 20.3921 67.4135 20.6188L66.4335 18.5988C67.0202 18.2921 67.6669 18.0521 68.3735 17.8788C69.0935 17.7055 69.8402 17.6188 70.6135 17.6188ZM71.0335 23.7388C70.0735 23.7655 69.4069 23.9388 69.0335 24.2588C68.6602 24.5788 68.4735 24.9988 68.4735 25.5188C68.4735 25.9721 68.6069 26.2988 68.8735 26.4988C69.1402 26.6855 69.4869 26.7788 69.9135 26.7788C70.5535 26.7788 71.0935 26.5921 71.5335 26.2188C71.9735 25.8321 72.1935 25.2921 72.1935 24.5988V23.6988L71.0335 23.7388ZM82.2438 28.9588C80.6172 28.9588 79.3572 28.5121 78.4638 27.6188C77.5838 26.7121 77.1438 25.2921 77.1438 23.3588C77.1438 22.0255 77.3705 20.9388 77.8238 20.0988C78.2772 19.2588 78.9038 18.6388 79.7038 18.2388C80.5172 17.8388 81.4505 17.6388 82.5038 17.6388C83.2505 17.6388 83.8972 17.7121 84.4438 17.8588C85.0038 18.0055 85.4905 18.1788 85.9038 18.3788L85.0238 20.6788C84.5572 20.4921 84.1172 20.3388 83.7038 20.2188C83.3038 20.0988 82.9038 20.0388 82.5038 20.0388C80.9572 20.0388 80.1838 21.1388 80.1838 23.3388C80.1838 24.4321 80.3838 25.2388 80.7838 25.7588C81.1972 26.2788 81.7705 26.5388 82.5038 26.5388C83.1305 26.5388 83.6838 26.4588 84.1638 26.2988C84.6438 26.1255 85.1105 25.8921 85.5638 25.5988V28.1388C85.1105 28.4321 84.6305 28.6388 84.1238 28.7588C83.6305 28.8921 83.0038 28.9588 82.2438 28.9588ZM90.5573 22.1588C90.5573 22.3855 90.544 22.6655 90.5173 22.9988C90.504 23.3321 90.484 23.6721 90.4573 24.0188C90.444 24.3655 90.424 24.6721 90.3973 24.9388C90.3706 25.2055 90.3506 25.3921 90.3373 25.4988L95.3773 17.8388H98.9573V28.7588H96.0773V24.3988C96.0773 24.0388 96.0906 23.6455 96.1173 23.2188C96.144 22.7788 96.1706 22.3721 96.1973 21.9988C96.2373 21.6121 96.264 21.3188 96.2773 21.1188L91.2573 28.7588H87.6773V17.8388H90.5573V22.1588ZM101.012 22.2188C101.012 19.8055 101.465 17.9321 102.372 16.5988C103.292 15.2655 104.805 14.4121 106.912 14.0388C107.618 13.9188 108.332 13.8188 109.052 13.7388C109.785 13.6455 110.538 13.5521 111.312 13.4588L111.652 16.0588C111.198 16.1121 110.698 16.1721 110.152 16.2388C109.618 16.3055 109.085 16.3721 108.552 16.4388C108.032 16.4921 107.565 16.5521 107.152 16.6188C106.485 16.7255 105.932 16.8921 105.492 17.1188C105.052 17.3321 104.712 17.6788 104.472 18.1588C104.245 18.6388 104.105 19.3321 104.052 20.2388H104.192C104.352 19.9855 104.572 19.7321 104.852 19.4788C105.145 19.2255 105.505 19.0121 105.932 18.8388C106.358 18.6655 106.845 18.5788 107.392 18.5788C108.698 18.5788 109.732 18.9788 110.492 19.7788C111.265 20.5788 111.652 21.7721 111.652 23.3588C111.652 24.5988 111.425 25.6321 110.972 26.4588C110.518 27.2855 109.892 27.9121 109.092 28.3388C108.292 28.7521 107.365 28.9588 106.312 28.9588C104.698 28.9588 103.412 28.3788 102.452 27.2188C101.492 26.0588 101.012 24.3921 101.012 22.2188ZM106.492 26.5388C107.118 26.5388 107.625 26.3255 108.012 25.8988C108.412 25.4721 108.612 24.7121 108.612 23.6188C108.612 22.7521 108.465 22.0655 108.172 21.5588C107.892 21.0388 107.398 20.7788 106.692 20.7788C106.265 20.7788 105.865 20.8855 105.492 21.0988C105.132 21.2988 104.825 21.5321 104.572 21.7988C104.318 22.0521 104.145 22.2721 104.052 22.4588C104.052 23.1388 104.125 23.7921 104.272 24.4188C104.418 25.0455 104.665 25.5588 105.012 25.9588C105.372 26.3455 105.865 26.5388 106.492 26.5388ZM123.633 23.2788C123.633 25.0921 123.153 26.4921 122.193 27.4788C121.247 28.4655 119.953 28.9588 118.313 28.9588C117.3 28.9588 116.393 28.7388 115.593 28.2988C114.807 27.8588 114.187 27.2188 113.733 26.3788C113.28 25.5255 113.053 24.4921 113.053 23.2788C113.053 21.4655 113.527 20.0721 114.473 19.0988C115.42 18.1255 116.72 17.6388 118.373 17.6388C119.4 17.6388 120.307 17.8588 121.093 18.2988C121.88 18.7388 122.5 19.3788 122.953 20.2188C123.407 21.0455 123.633 22.0655 123.633 23.2788ZM116.093 23.2788C116.093 24.3588 116.267 25.1788 116.613 25.7388C116.973 26.2855 117.553 26.5588 118.353 26.5588C119.14 26.5588 119.707 26.2855 120.053 25.7388C120.413 25.1788 120.593 24.3588 120.593 23.2788C120.593 22.1988 120.413 21.3921 120.053 20.8588C119.707 20.3121 119.133 20.0388 118.333 20.0388C117.547 20.0388 116.973 20.3121 116.613 20.8588C116.267 21.3921 116.093 22.1988 116.093 23.2788Z" fill="#27AE60"/>
<path d="M142.899 28.7588H139.459L134.279 21.5188V28.7588H131.259V14.4788H134.279V21.3988L139.399 14.4788H142.619L137.419 21.3388L142.899 28.7588ZM146.576 28.9588C145.883 28.9588 145.263 28.9055 144.716 28.7988C144.183 28.6921 143.683 28.5188 143.216 28.2788V25.9588C143.696 26.1721 144.203 26.3588 144.736 26.5188C145.283 26.6655 145.843 26.7388 146.416 26.7388C147.096 26.7388 147.643 26.5455 148.056 26.1588C148.47 25.7721 148.703 25.1321 148.756 24.2388H144.636V22.2588H148.756C148.663 20.6455 147.963 19.8388 146.656 19.8388C146.19 19.8388 145.736 19.9055 145.296 20.0388C144.87 20.1588 144.476 20.2988 144.116 20.4588L143.276 18.4188C143.703 18.2321 144.216 18.0588 144.816 17.8988C145.43 17.7255 146.083 17.6388 146.776 17.6388C147.736 17.6388 148.596 17.8055 149.356 18.1388C150.116 18.4721 150.716 19.0388 151.156 19.8388C151.61 20.6388 151.836 21.7521 151.836 23.1788C151.836 25.1521 151.376 26.6121 150.456 27.5588C149.536 28.4921 148.243 28.9588 146.576 28.9588ZM170.151 17.8388V28.7588H153.891V17.8388H156.871V26.5188H160.531V17.8388H163.511V26.5188H167.171V17.8388H170.151Z" fill="#060606"/>
<path fill-rule="evenodd" clip-rule="evenodd" d="M25.9292 2.04559C27.7115 1.60306 29.5692 2.49991 30.0785 4.04876C30.1642 4.30934 30.2076 4.57903 30.2076 4.85003V7.29167H33.564C35.4177 7.29167 36.9204 8.5975 36.9204 10.2083V27.7083C36.9204 29.3192 35.4177 30.625 33.564 30.625H6.71284C4.85916 30.625 3.35645 29.3192 3.35645 27.7083H3.40126C3.37147 27.5515 3.35645 27.3926 3.35645 27.2333V9.85003C3.35645 8.5478 4.34986 7.40334 5.79077 7.04559L25.9292 2.04559ZM17.0171 27.7083H33.564V16.0416H30.2077V13.125H33.564V10.2083H30.2076V22.2333C30.2076 23.5356 29.2142 24.68 27.7733 25.0378L17.0171 27.7083ZM6.71284 9.85001V27.2333L26.8512 22.2333V4.85001L6.71284 9.85001ZM23.4948 13.125C23.4948 13.9304 22.7435 14.5833 21.8166 14.5833C20.8898 14.5833 20.1384 13.9304 20.1384 13.125C20.1384 12.3196 20.8898 11.6667 21.8166 11.6667C22.7435 11.6667 23.4948 12.3196 23.4948 13.125Z" fill="#27AE60"/>
</svg>
