<svg width="149" height="35" viewBox="0 0 149 35" fill="none" xmlns="http://www.w3.org/2000/svg">
<path d="M50.3122 32.8188C48.9788 32.8188 47.9055 32.4921 47.0922 31.8388C46.2788 31.1988 45.8722 30.2588 45.8722 29.0188C45.8722 28.9788 45.8722 28.9388 45.8722 28.8988C44.1922 28.6855 42.8722 27.9921 41.9122 26.8188C40.9655 25.6455 40.4922 24.0921 40.4922 22.1588C40.4922 20.7321 40.7522 19.5121 41.2722 18.4988C41.7922 17.4855 42.5322 16.7121 43.4922 16.1788C44.4655 15.6321 45.6255 15.3588 46.9722 15.3588C48.3055 15.3588 49.4522 15.6321 50.4122 16.1788C51.3855 16.7121 52.1322 17.4855 52.6522 18.4988C53.1722 19.5121 53.4322 20.7321 53.4322 22.1588C53.4322 24.1055 52.9522 25.6655 51.9922 26.8388C51.0322 28.0121 49.6988 28.6988 47.9922 28.8988C48.0988 29.4455 48.3655 29.8121 48.7922 29.9988C49.2322 30.1988 49.7455 30.2988 50.3322 30.2988C50.9055 30.2988 51.3855 30.2388 51.7722 30.1188C52.1722 29.9988 52.4988 29.8321 52.7522 29.6188L53.2722 31.9988C52.9255 32.2655 52.4788 32.4655 51.9322 32.5988C51.3855 32.7455 50.8455 32.8188 50.3122 32.8188ZM46.9722 18.0588C46.0122 18.0588 45.2788 18.4055 44.7722 19.0988C44.2655 19.7788 44.0122 20.7988 44.0122 22.1588C44.0122 23.5188 44.2655 24.5455 44.7722 25.2388C45.2788 25.9188 46.0122 26.2588 46.9722 26.2588C47.9188 26.2588 48.6455 25.9188 49.1522 25.2388C49.6588 24.5455 49.9122 23.5188 49.9122 22.1588C49.9122 20.7988 49.6588 19.7788 49.1522 19.0988C48.6455 18.4055 47.9188 18.0588 46.9722 18.0588ZM55.1192 28.7588V18.7588H58.1192L58.2592 20.9188C58.4992 20.1855 58.8659 19.6121 59.3592 19.1988C59.8659 18.7721 60.5125 18.5588 61.2992 18.5588C61.5525 18.5588 61.7659 18.5855 61.9392 18.6388C62.1259 18.6788 62.2725 18.7255 62.3792 18.7788L62.0392 21.5788C61.9059 21.5388 61.7325 21.4988 61.5192 21.4588C61.3192 21.4188 61.0725 21.3988 60.7792 21.3988C60.1659 21.3988 59.6325 21.5921 59.1792 21.9788C58.7392 22.3655 58.5192 22.9455 58.5192 23.7188V28.7588H55.1192ZM63.489 25.3188C64.1157 25.3188 64.6024 25.4788 64.949 25.7988C65.309 26.1188 65.489 26.5655 65.489 27.1388C65.489 27.6988 65.309 28.1388 64.949 28.4588C64.6024 28.7788 64.1157 28.9388 63.489 28.9388C62.8624 28.9388 62.369 28.7788 62.009 28.4588C61.6624 28.1388 61.489 27.6988 61.489 27.1388C61.489 26.5655 61.6624 26.1188 62.009 25.7988C62.369 25.4788 62.8624 25.3188 63.489 25.3188Z" fill="#27AE60"/>
<path d="M71.9498 18.5588C72.9632 18.5588 73.8032 18.7055 74.4698 18.9988C75.1498 19.2921 75.6765 19.6721 76.0498 20.1388C76.4232 20.6055 76.6632 21.1121 76.7698 21.6588L73.6298 22.6988C73.5498 22.1255 73.3832 21.6988 73.1298 21.4188C72.8765 21.1255 72.5165 20.9788 72.0498 20.9788C71.4098 20.9788 70.9232 21.2055 70.5898 21.6588C70.2698 22.1121 70.1098 22.8255 70.1098 23.7988C70.1098 24.7855 70.2832 25.4921 70.6298 25.9188C70.9898 26.3321 71.4698 26.5388 72.0698 26.5388C73.0165 26.5388 73.5698 25.9988 73.7298 24.9188L76.7898 25.8988C76.6432 26.7655 76.1565 27.4921 75.3298 28.0788C74.5165 28.6655 73.4365 28.9588 72.0898 28.9588C70.4498 28.9588 69.1365 28.5055 68.1498 27.5988C67.1765 26.6788 66.6898 25.3988 66.6898 23.7588C66.6898 22.6655 66.9098 21.7321 67.3498 20.9588C67.8032 20.1855 68.4232 19.5921 69.2098 19.1788C69.9965 18.7655 70.9098 18.5588 71.9498 18.5588ZM83.7375 22.4188C83.7375 21.9521 83.6041 21.5855 83.3375 21.3188C83.0841 21.0388 82.7375 20.8988 82.2975 20.8988C81.8575 20.8988 81.4775 21.0121 81.1575 21.2388C80.8508 21.4521 80.6375 21.8388 80.5175 22.3988L77.6375 21.7188C77.8241 20.7588 78.3175 19.9921 79.1175 19.4188C79.9175 18.8455 81.0441 18.5588 82.4975 18.5588C83.9641 18.5588 85.0975 18.8855 85.8975 19.5388C86.7108 20.1788 87.1175 21.1188 87.1175 22.3588V26.0188C87.1175 26.5388 87.3508 26.7988 87.8175 26.7988C88.0575 26.7988 88.2508 26.7721 88.3975 26.7188L88.1975 28.6588C87.7975 28.8455 87.3108 28.9388 86.7375 28.9388C86.1108 28.9388 85.5708 28.8188 85.1175 28.5788C84.6641 28.3255 84.3575 27.9455 84.1975 27.4388C83.9175 27.9588 83.4708 28.3455 82.8575 28.5988C82.2575 28.8388 81.6175 28.9588 80.9375 28.9588C79.9108 28.9588 79.0908 28.7255 78.4775 28.2588C77.8775 27.7788 77.5775 27.0921 77.5775 26.1988C77.5775 25.4788 77.7908 24.8855 78.2175 24.4188C78.6575 23.9388 79.3441 23.6055 80.2775 23.4188L83.7375 22.6988V22.4188ZM80.9375 25.8788C80.9375 26.1721 81.0441 26.3921 81.2575 26.5388C81.4708 26.6855 81.7241 26.7588 82.0175 26.7588C82.4708 26.7588 82.8708 26.6255 83.2175 26.3588C83.5641 26.0788 83.7375 25.6455 83.7375 25.0588V24.4988L82.1175 24.8388C81.7175 24.9188 81.4175 25.0388 81.2175 25.1988C81.0308 25.3455 80.9375 25.5721 80.9375 25.8788ZM96.2204 18.7588V21.1788H93.3804V28.7588H89.9804V21.1788H88.3804V18.7588H89.9804V17.8388C89.9804 16.9855 90.1604 16.2988 90.5204 15.7788C90.8938 15.2455 91.3804 14.8588 91.9804 14.6188C92.5938 14.3655 93.2538 14.2388 93.9604 14.2388C94.5071 14.2388 94.9871 14.2988 95.4004 14.4188C95.8138 14.5255 96.1204 14.6521 96.3204 14.7988L95.9804 16.9188C95.8338 16.8388 95.6671 16.7721 95.4804 16.7188C95.2938 16.6521 95.0604 16.6188 94.7804 16.6188C94.3004 16.6188 93.9138 16.7255 93.6204 16.9388C93.3271 17.1521 93.1804 17.5255 93.1804 18.0588V18.7588H96.2204ZM101.964 28.9588C100.297 28.9588 98.9774 28.5055 98.004 27.5988C97.044 26.6921 96.564 25.4121 96.564 23.7588C96.564 22.6655 96.784 21.7321 97.224 20.9588C97.6774 20.1721 98.2907 19.5788 99.064 19.1788C99.8507 18.7655 100.764 18.5588 101.804 18.5588C102.857 18.5588 103.751 18.7655 104.484 19.1788C105.231 19.5788 105.797 20.1388 106.184 20.8588C106.571 21.5655 106.764 22.3788 106.764 23.2988C106.764 23.5521 106.751 23.7988 106.724 24.0388C106.711 24.2655 106.697 24.4588 106.684 24.6188H99.864C99.9574 25.3121 100.184 25.8121 100.544 26.1188C100.904 26.4121 101.377 26.5588 101.964 26.5588C102.471 26.5588 102.871 26.4588 103.164 26.2588C103.471 26.0588 103.697 25.7788 103.844 25.4188L106.564 26.3188C106.377 26.8921 106.051 27.3788 105.584 27.7788C105.131 28.1655 104.584 28.4588 103.944 28.6588C103.317 28.8588 102.657 28.9588 101.964 28.9588ZM101.804 20.9388C100.724 20.9388 100.084 21.5588 99.884 22.7988H103.544C103.397 21.5588 102.817 20.9388 101.804 20.9388Z" fill="#060606"/>
<path fill-rule="evenodd" clip-rule="evenodd" d="M25.9292 2.04559C27.7115 1.60306 29.5692 2.49991 30.0785 4.04876C30.1642 4.30934 30.2076 4.57903 30.2076 4.85003V7.29167H33.564C35.4177 7.29167 36.9204 8.5975 36.9204 10.2083V27.7083C36.9204 29.3192 35.4177 30.625 33.564 30.625H6.71284C4.85916 30.625 3.35645 29.3192 3.35645 27.7083H3.40126C3.37147 27.5515 3.35645 27.3926 3.35645 27.2333V9.85003C3.35645 8.5478 4.34986 7.40334 5.79077 7.04559L25.9292 2.04559ZM17.0171 27.7083H33.564V16.0416H30.2077V13.125H33.564V10.2083H30.2076V22.2333C30.2076 23.5356 29.2142 24.68 27.7733 25.0378L17.0171 27.7083ZM6.71284 9.85001V27.2333L26.8512 22.2333V4.85001L6.71284 9.85001ZM23.4948 13.125C23.4948 13.9304 22.7435 14.5833 21.8166 14.5833C20.8898 14.5833 20.1384 13.9304 20.1384 13.125C20.1384 12.3196 20.8898 11.6667 21.8166 11.6667C22.7435 11.6667 23.4948 12.3196 23.4948 13.125Z" fill="#27AE60"/>
</svg>
