<svg width="153" height="43" viewBox="0 0 153 43" fill="none" xmlns="http://www.w3.org/2000/svg">
<g filter="url(#filter0_d)">
<path d="M54.3122 32.8188C52.9788 32.8188 51.9055 32.4921 51.0922 31.8388C50.2788 31.1988 49.8722 30.2588 49.8722 29.0188C49.8722 28.9788 49.8722 28.9388 49.8722 28.8988C48.1922 28.6855 46.8722 27.9921 45.9122 26.8188C44.9655 25.6455 44.4922 24.0921 44.4922 22.1588C44.4922 20.7321 44.7522 19.5121 45.2722 18.4988C45.7922 17.4855 46.5322 16.7121 47.4922 16.1788C48.4655 15.6321 49.6255 15.3588 50.9722 15.3588C52.3055 15.3588 53.4522 15.6321 54.4122 16.1788C55.3855 16.7121 56.1322 17.4855 56.6522 18.4988C57.1722 19.5121 57.4322 20.7321 57.4322 22.1588C57.4322 24.1055 56.9522 25.6655 55.9922 26.8388C55.0322 28.0121 53.6988 28.6988 51.9922 28.8988C52.0988 29.4455 52.3655 29.8121 52.7922 29.9988C53.2322 30.1988 53.7455 30.2988 54.3322 30.2988C54.9055 30.2988 55.3855 30.2388 55.7722 30.1188C56.1722 29.9988 56.4988 29.8321 56.7522 29.6188L57.2722 31.9988C56.9255 32.2655 56.4788 32.4655 55.9322 32.5988C55.3855 32.7455 54.8455 32.8188 54.3122 32.8188ZM50.9722 18.0588C50.0122 18.0588 49.2788 18.4055 48.7722 19.0988C48.2655 19.7788 48.0122 20.7988 48.0122 22.1588C48.0122 23.5188 48.2655 24.5455 48.7722 25.2388C49.2788 25.9188 50.0122 26.2588 50.9722 26.2588C51.9188 26.2588 52.6455 25.9188 53.1522 25.2388C53.6588 24.5455 53.9122 23.5188 53.9122 22.1588C53.9122 20.7988 53.6588 19.7788 53.1522 19.0988C52.6455 18.4055 51.9188 18.0588 50.9722 18.0588ZM59.1192 28.7588V18.7588H62.1192L62.2592 20.9188C62.4992 20.1855 62.8659 19.6121 63.3592 19.1988C63.8659 18.7721 64.5125 18.5588 65.2992 18.5588C65.5525 18.5588 65.7659 18.5855 65.9392 18.6388C66.1259 18.6788 66.2725 18.7255 66.3792 18.7788L66.0392 21.5788C65.9059 21.5388 65.7325 21.4988 65.5192 21.4588C65.3192 21.4188 65.0725 21.3988 64.7792 21.3988C64.1659 21.3988 63.6325 21.5921 63.1792 21.9788C62.7392 22.3655 62.5192 22.9455 62.5192 23.7188V28.7588H59.1192ZM67.489 25.3188C68.1157 25.3188 68.6024 25.4788 68.949 25.7988C69.309 26.1188 69.489 26.5655 69.489 27.1388C69.489 27.6988 69.309 28.1388 68.949 28.4588C68.6024 28.7788 68.1157 28.9388 67.489 28.9388C66.8624 28.9388 66.369 28.7788 66.009 28.4588C65.6624 28.1388 65.489 27.6988 65.489 27.1388C65.489 26.5655 65.6624 26.1188 66.009 25.7988C66.369 25.4788 66.8624 25.3188 67.489 25.3188Z" fill="#27AE60"/>
<path d="M75.9498 18.5588C76.9632 18.5588 77.8032 18.7055 78.4698 18.9988C79.1498 19.2921 79.6765 19.6721 80.0498 20.1388C80.4232 20.6055 80.6632 21.1121 80.7698 21.6588L77.6298 22.6988C77.5498 22.1255 77.3832 21.6988 77.1298 21.4188C76.8765 21.1255 76.5165 20.9788 76.0498 20.9788C75.4098 20.9788 74.9232 21.2055 74.5898 21.6588C74.2698 22.1121 74.1098 22.8255 74.1098 23.7988C74.1098 24.7855 74.2832 25.4921 74.6298 25.9188C74.9898 26.3321 75.4698 26.5388 76.0698 26.5388C77.0165 26.5388 77.5698 25.9988 77.7298 24.9188L80.7898 25.8988C80.6432 26.7655 80.1565 27.4921 79.3298 28.0788C78.5165 28.6655 77.4365 28.9588 76.0898 28.9588C74.4498 28.9588 73.1365 28.5055 72.1498 27.5988C71.1765 26.6788 70.6898 25.3988 70.6898 23.7588C70.6898 22.6655 70.9098 21.7321 71.3498 20.9588C71.8032 20.1855 72.4232 19.5921 73.2098 19.1788C73.9965 18.7655 74.9098 18.5588 75.9498 18.5588ZM87.7375 22.4188C87.7375 21.9521 87.6041 21.5855 87.3375 21.3188C87.0841 21.0388 86.7375 20.8988 86.2975 20.8988C85.8575 20.8988 85.4775 21.0121 85.1575 21.2388C84.8508 21.4521 84.6375 21.8388 84.5175 22.3988L81.6375 21.7188C81.8241 20.7588 82.3175 19.9921 83.1175 19.4188C83.9175 18.8455 85.0441 18.5588 86.4975 18.5588C87.9641 18.5588 89.0975 18.8855 89.8975 19.5388C90.7108 20.1788 91.1175 21.1188 91.1175 22.3588V26.0188C91.1175 26.5388 91.3508 26.7988 91.8175 26.7988C92.0575 26.7988 92.2508 26.7721 92.3975 26.7188L92.1975 28.6588C91.7975 28.8455 91.3108 28.9388 90.7375 28.9388C90.1108 28.9388 89.5708 28.8188 89.1175 28.5788C88.6641 28.3255 88.3575 27.9455 88.1975 27.4388C87.9175 27.9588 87.4708 28.3455 86.8575 28.5988C86.2575 28.8388 85.6175 28.9588 84.9375 28.9588C83.9108 28.9588 83.0908 28.7255 82.4775 28.2588C81.8775 27.7788 81.5775 27.0921 81.5775 26.1988C81.5775 25.4788 81.7908 24.8855 82.2175 24.4188C82.6575 23.9388 83.3441 23.6055 84.2775 23.4188L87.7375 22.6988V22.4188ZM84.9375 25.8788C84.9375 26.1721 85.0441 26.3921 85.2575 26.5388C85.4708 26.6855 85.7241 26.7588 86.0175 26.7588C86.4708 26.7588 86.8708 26.6255 87.2175 26.3588C87.5641 26.0788 87.7375 25.6455 87.7375 25.0588V24.4988L86.1175 24.8388C85.7175 24.9188 85.4175 25.0388 85.2175 25.1988C85.0308 25.3455 84.9375 25.5721 84.9375 25.8788ZM100.22 18.7588V21.1788H97.3804V28.7588H93.9804V21.1788H92.3804V18.7588H93.9804V17.8388C93.9804 16.9855 94.1604 16.2988 94.5204 15.7788C94.8938 15.2455 95.3804 14.8588 95.9804 14.6188C96.5938 14.3655 97.2538 14.2388 97.9604 14.2388C98.5071 14.2388 98.9871 14.2988 99.4004 14.4188C99.8138 14.5255 100.12 14.6521 100.32 14.7988L99.9804 16.9188C99.8338 16.8388 99.6671 16.7721 99.4804 16.7188C99.2938 16.6521 99.0604 16.6188 98.7804 16.6188C98.3004 16.6188 97.9138 16.7255 97.6204 16.9388C97.3271 17.1521 97.1804 17.5255 97.1804 18.0588V18.7588H100.22ZM105.964 28.9588C104.297 28.9588 102.977 28.5055 102.004 27.5988C101.044 26.6921 100.564 25.4121 100.564 23.7588C100.564 22.6655 100.784 21.7321 101.224 20.9588C101.677 20.1721 102.291 19.5788 103.064 19.1788C103.851 18.7655 104.764 18.5588 105.804 18.5588C106.857 18.5588 107.751 18.7655 108.484 19.1788C109.231 19.5788 109.797 20.1388 110.184 20.8588C110.571 21.5655 110.764 22.3788 110.764 23.2988C110.764 23.5521 110.751 23.7988 110.724 24.0388C110.711 24.2655 110.697 24.4588 110.684 24.6188H103.864C103.957 25.3121 104.184 25.8121 104.544 26.1188C104.904 26.4121 105.377 26.5588 105.964 26.5588C106.471 26.5588 106.871 26.4588 107.164 26.2588C107.471 26.0588 107.697 25.7788 107.844 25.4188L110.564 26.3188C110.377 26.8921 110.051 27.3788 109.584 27.7788C109.131 28.1655 108.584 28.4588 107.944 28.6588C107.317 28.8588 106.657 28.9588 105.964 28.9588ZM105.804 20.9388C104.724 20.9388 104.084 21.5588 103.884 22.7988H107.544C107.397 21.5588 106.817 20.9388 105.804 20.9388Z" fill="#060606"/>
<path fill-rule="evenodd" clip-rule="evenodd" d="M29.9292 2.04559C31.7115 1.60306 33.5692 2.49991 34.0785 4.04876C34.1642 4.30934 34.2076 4.57903 34.2076 4.85003V7.29167H37.564C39.4177 7.29167 40.9204 8.5975 40.9204 10.2083V27.7083C40.9204 29.3192 39.4177 30.625 37.564 30.625H10.7128C8.85916 30.625 7.35645 29.3192 7.35645 27.7083H7.40126C7.37147 27.5515 7.35645 27.3926 7.35645 27.2333V9.85003C7.35645 8.5478 8.34986 7.40334 9.79077 7.04559L29.9292 2.04559ZM21.0171 27.7083H37.564V16.0416H34.2077V13.125H37.564V10.2083H34.2076V22.2333C34.2076 23.5356 33.2142 24.68 31.7733 25.0378L21.0171 27.7083ZM10.7128 9.85001V27.2333L30.8512 22.2333V4.85001L10.7128 9.85001ZM27.4948 13.125C27.4948 13.9304 26.7435 14.5833 25.8166 14.5833C24.8898 14.5833 24.1384 13.9304 24.1384 13.125C24.1384 12.3196 24.8898 11.6667 25.8166 11.6667C26.7435 11.6667 27.4948 12.3196 27.4948 13.125Z" fill="#27AE60"/>
</g>
<defs>
<filter id="filter0_d" x="0" y="0" width="156.592" height="43" filterUnits="userSpaceOnUse" color-interpolation-filters="sRGB">
<feFlood flood-opacity="0" result="BackgroundImageFix"/>
<feColorMatrix in="SourceAlpha" type="matrix" values="0 0 0 0 0 0 0 0 0 0 0 0 0 0 0 0 0 0 127 0" result="hardAlpha"/>
<feOffset dy="4"/>
<feGaussianBlur stdDeviation="2"/>
<feComposite in2="hardAlpha" operator="out"/>
<feColorMatrix type="matrix" values="0 0 0 0 0 0 0 0 0 0 0 0 0 0 0 0 0 0 0.25 0"/>
<feBlend mode="normal" in2="BackgroundImageFix" result="effect1_dropShadow"/>
<feBlend mode="normal" in="SourceGraphic" in2="effect1_dropShadow" result="shape"/>
</filter>
</defs>
</svg>
