<svg width="22" height="23" viewBox="0 0 22 23" fill="none" xmlns="http://www.w3.org/2000/svg">
<path fill-rule="evenodd" clip-rule="evenodd" d="M11 0.5C17.0751 0.5 22 5.42487 22 11.5C22 17.5751 17.0751 22.5 11 22.5C4.92487 22.5 0 17.5751 0 11.5C0 5.42487 4.92487 0.5 11 0.5ZM2.06565 10.4074C2.35719 10.7805 3.16782 11.258 4.40826 11.6475C4.89668 11.8009 5.4316 11.9357 6.00555 12.0502C6.00186 11.8679 6 11.6844 6 11.5C6 8.17236 6.60556 5.1673 7.65455 3.14231C4.66412 4.34042 2.46628 7.09699 2.06565 10.4074ZM6.12914 14.1108C4.52334 13.8317 3.14644 13.4093 2.10296 12.8658C2.58837 16.0542 4.74677 18.6927 7.65455 19.8577C6.88867 18.3792 6.35916 16.3783 6.12914 14.1108ZM8.17891 14.3773C9.07601 14.4581 10.0209 14.5 11 14.5C11.9633 14.5 12.9124 14.4454 13.8253 14.3441C13.3742 17.9417 12.127 20.5 11 20.5C9.87647 20.5 8.63347 17.9574 8.17891 14.3773ZM13.9863 12.3045C13.0367 12.4275 12.028 12.5 11 12.5C9.95577 12.5 8.95341 12.4483 8.01531 12.3502C8.00522 12.0706 8 11.787 8 11.5C8 6.48399 9.5936 2.5 11 2.5C12.4064 2.5 14 6.48399 14 11.5C14 11.7713 13.9953 12.0397 13.9863 12.3045ZM15.8792 14.0269C15.6539 16.3289 15.1208 18.361 14.3454 19.8577C17.3046 18.6721 19.4876 15.9606 19.9212 12.6964C18.861 13.2479 17.4647 13.709 15.8792 14.0269ZM19.9285 10.3601C19.458 10.8883 17.9737 11.5157 15.9962 11.9541C15.9987 11.8035 16 11.6521 16 11.5C16 8.17236 15.3944 5.1673 14.3454 3.14231C17.3216 4.33471 19.5128 7.07077 19.9285 10.3601Z" fill="white"/>
</svg>
