<svg width="290" height="62" viewBox="0 0 290 62" fill="none" xmlns="http://www.w3.org/2000/svg">
<path d="M11 16C11 7.16344 18.1634 0 27 0H274C282.837 0 290 7.16344 290 16V46C290 54.8366 282.837 62 274 62H23H0L8.29078 49.6303C10.057 46.9952 11 43.8945 11 40.7222V16Z" fill="#27AE60"/>
<path d="M33.9596 12.1504H35.8845V18.8301C35.8845 19.5273 35.8669 20.2334 35.8317 20.9482C35.7966 21.6572 35.7702 22.1377 35.7526 22.3896H35.8317L42.3971 12.1504H44.8493V25H42.9157V18.373C42.9157 17.3594 42.9714 16.1289 43.0827 14.6816H43.0124L36.4206 25H33.9596V12.1504ZM49.7012 15.2793V19.1816H54.2803V15.2793H56.3457V25H54.2803V20.8076H49.7012V25H47.6358V15.2793H49.7012ZM67.5697 20.1221C67.5697 21.71 67.1625 22.9492 66.348 23.8398C65.5336 24.7305 64.3998 25.1758 62.9467 25.1758C62.0385 25.1758 61.2357 24.9707 60.5385 24.5605C59.8412 24.1504 59.3051 23.5615 58.9301 22.7939C58.5551 22.0264 58.3676 21.1357 58.3676 20.1221C58.3676 18.5459 58.7719 17.3154 59.5805 16.4307C60.3891 15.5459 61.5287 15.1035 62.9994 15.1035C64.4057 15.1035 65.5189 15.5576 66.3393 16.4658C67.1596 17.3682 67.5697 18.5869 67.5697 20.1221ZM60.4945 20.1221C60.4945 22.3662 61.3236 23.4883 62.9818 23.4883C64.6225 23.4883 65.4428 22.3662 65.4428 20.1221C65.4428 17.9014 64.6166 16.791 62.9643 16.791C62.0971 16.791 61.4672 17.0781 61.0746 17.6523C60.6879 18.2266 60.4945 19.0498 60.4945 20.1221ZM73.5115 25.1758C72.0408 25.1758 70.9216 24.748 70.1541 23.8926C69.3923 23.0312 69.0115 21.7979 69.0115 20.1924C69.0115 18.5576 69.4099 17.3008 70.2068 16.4219C71.0095 15.543 72.1668 15.1035 73.6785 15.1035C74.7039 15.1035 75.6267 15.2939 76.447 15.6748L75.823 17.3359C74.95 16.9961 74.2293 16.8262 73.6609 16.8262C71.9793 16.8262 71.1384 17.9424 71.1384 20.1748C71.1384 21.2646 71.3464 22.085 71.7625 22.6357C72.1843 23.1807 72.7996 23.4531 73.6082 23.4531C74.5281 23.4531 75.3982 23.2246 76.2185 22.7676V24.5693C75.8494 24.7861 75.4539 24.9414 75.032 25.0352C74.616 25.1289 74.1091 25.1758 73.5115 25.1758ZM85.4474 15.2793V16.8965H82.2833V25H80.2091V16.8965H77.045V15.2793H85.4474ZM91.8901 25.1758C90.6597 25.1758 89.7046 24.7334 89.0249 23.8486H88.9018C88.9839 24.6689 89.0249 25.167 89.0249 25.3428V29.3242H86.9595V15.2793H88.6294C88.6763 15.4609 88.7729 15.8945 88.9194 16.5801H89.0249C89.6694 15.5957 90.6362 15.1035 91.9253 15.1035C93.1382 15.1035 94.0815 15.543 94.7554 16.4219C95.435 17.3008 95.7749 18.5342 95.7749 20.1221C95.7749 21.71 95.4292 22.9492 94.7378 23.8398C94.0522 24.7305 93.103 25.1758 91.8901 25.1758ZM91.3891 16.791C90.5688 16.791 89.9682 17.0312 89.5874 17.5117C89.2124 17.9922 89.0249 18.7598 89.0249 19.8145V20.1221C89.0249 21.3057 89.2124 22.1641 89.5874 22.6973C89.9624 23.2246 90.5747 23.4883 91.4243 23.4883C92.1391 23.4883 92.6899 23.1953 93.0766 22.6094C93.4634 22.0234 93.6567 21.1885 93.6567 20.1045C93.6567 19.0146 93.4634 18.1914 93.0766 17.6348C92.6958 17.0723 92.1333 16.791 91.3891 16.791ZM103.896 25L103.483 23.6465H103.413C102.944 24.2383 102.472 24.6426 101.998 24.8594C101.523 25.0703 100.914 25.1758 100.17 25.1758C99.2147 25.1758 98.4676 24.918 97.9286 24.4023C97.3953 23.8867 97.1287 23.1572 97.1287 22.2139C97.1287 21.2119 97.5008 20.4561 98.245 19.9463C98.9891 19.4365 100.123 19.1582 101.646 19.1113L103.325 19.0586V18.54C103.325 17.9189 103.179 17.4561 102.886 17.1514C102.598 16.8408 102.15 16.6855 101.541 16.6855C101.043 16.6855 100.565 16.7588 100.108 16.9053C99.6512 17.0518 99.2118 17.2246 98.7899 17.4238L98.1219 15.9473C98.6493 15.6719 99.2264 15.4639 99.8534 15.3232C100.48 15.1768 101.072 15.1035 101.629 15.1035C102.865 15.1035 103.797 15.373 104.424 15.9121C105.056 16.4512 105.373 17.2979 105.373 18.4521V25H103.896ZM100.82 23.5938C101.57 23.5938 102.171 23.3857 102.622 22.9697C103.079 22.5479 103.307 21.959 103.307 21.2031V20.3594L102.059 20.4121C101.087 20.4473 100.378 20.6113 99.9325 20.9043C99.493 21.1914 99.2733 21.6338 99.2733 22.2314C99.2733 22.665 99.4022 23.002 99.66 23.2422C99.9178 23.4766 100.305 23.5938 100.82 23.5938ZM109.961 15.2793V19.1816H114.54V15.2793H116.606V25H114.54V20.8076H109.961V25H107.896V15.2793H109.961ZM121.273 15.2793V19.1816H125.852V15.2793H127.918V25H125.852V20.8076H121.273V25H119.208V15.2793H121.273ZM132.585 19.1641H134.554C135.913 19.1641 136.918 19.3984 137.568 19.8672C138.219 20.3359 138.544 21.0391 138.544 21.9766C138.544 22.9785 138.204 23.7344 137.524 24.2441C136.851 24.748 135.86 25 134.554 25H130.519V15.2793H132.585V19.1641ZM136.496 22.0293C136.496 21.543 136.314 21.2031 135.951 21.0098C135.594 20.8164 135.078 20.7197 134.404 20.7197H132.585V23.4707H134.141C134.973 23.4707 135.573 23.3535 135.942 23.1191C136.311 22.8848 136.496 22.5215 136.496 22.0293ZM142.147 25H140.073V15.2793H142.147V25ZM148.994 25.1758C147.483 25.1758 146.299 24.7363 145.444 23.8574C144.594 22.9727 144.169 21.7568 144.169 20.21C144.169 18.6221 144.565 17.374 145.356 16.4658C146.147 15.5576 147.234 15.1035 148.616 15.1035C149.9 15.1035 150.913 15.4932 151.658 16.2725C152.402 17.0518 152.774 18.124 152.774 19.4893V20.6055H146.296C146.325 21.5488 146.58 22.2754 147.061 22.7852C147.541 23.2891 148.218 23.541 149.091 23.541C149.665 23.541 150.199 23.4883 150.691 23.3828C151.189 23.2715 151.722 23.0898 152.29 22.8379V24.5166C151.786 24.7568 151.277 24.9268 150.761 25.0264C150.245 25.126 149.657 25.1758 148.994 25.1758ZM148.616 16.668C147.96 16.668 147.433 16.876 147.034 17.292C146.642 17.708 146.408 18.3145 146.331 19.1113H150.743C150.732 18.3086 150.538 17.7021 150.163 17.292C149.788 16.876 149.273 16.668 148.616 16.668ZM165.36 15.2793V16.8965H161.142V25H159.076V15.2793H165.36ZM175.495 20.1221C175.495 21.71 175.087 22.9492 174.273 23.8398C173.458 24.7305 172.325 25.1758 170.871 25.1758C169.963 25.1758 169.161 24.9707 168.463 24.5605C167.766 24.1504 167.23 23.5615 166.855 22.7939C166.48 22.0264 166.292 21.1357 166.292 20.1221C166.292 18.5459 166.697 17.3154 167.505 16.4307C168.314 15.5459 169.453 15.1035 170.924 15.1035C172.33 15.1035 173.444 15.5576 174.264 16.4658C175.084 17.3682 175.495 18.5869 175.495 20.1221ZM168.419 20.1221C168.419 22.3662 169.248 23.4883 170.907 23.4883C172.547 23.4883 173.368 22.3662 173.368 20.1221C173.368 17.9014 172.541 16.791 170.889 16.791C170.022 16.791 169.392 17.0781 168.999 17.6523C168.613 18.2266 168.419 19.0498 168.419 20.1221ZM181.436 25.1758C179.966 25.1758 178.846 24.748 178.079 23.8926C177.317 23.0312 176.936 21.7979 176.936 20.1924C176.936 18.5576 177.335 17.3008 178.132 16.4219C178.934 15.543 180.092 15.1035 181.603 15.1035C182.629 15.1035 183.551 15.2939 184.372 15.6748L183.748 17.3359C182.875 16.9961 182.154 16.8262 181.586 16.8262C179.904 16.8262 179.063 17.9424 179.063 20.1748C179.063 21.2646 179.271 22.085 179.687 22.6357C180.109 23.1807 180.724 23.4531 181.533 23.4531C182.453 23.4531 183.323 23.2246 184.143 22.7676V24.5693C183.774 24.7861 183.379 24.9414 182.957 25.0352C182.541 25.1289 182.034 25.1758 181.436 25.1758ZM193.372 15.2793V16.8965H190.208V25H188.134V16.8965H184.97V15.2793H193.372ZM196.862 15.2793V20.2627C196.862 20.8428 196.815 21.6953 196.721 22.8203L201.599 15.2793H204.122V25H202.135V20.1045C202.135 19.835 202.15 19.3984 202.179 18.7949C202.214 18.1914 202.244 17.752 202.267 17.4766L197.407 25H194.884V15.2793H196.862ZM209.545 15.2793H211.795L213.773 20.79C214.071 21.5752 214.271 22.3135 214.37 23.0049H214.441C214.493 22.6826 214.59 22.293 214.731 21.8359C214.871 21.373 215.615 19.1875 216.963 15.2793H219.195L215.038 26.292C214.282 28.3135 213.023 29.3242 211.259 29.3242C210.802 29.3242 210.357 29.2744 209.923 29.1748V27.54C210.234 27.6104 210.588 27.6455 210.986 27.6455C211.983 27.6455 212.683 27.0684 213.087 25.9141L213.447 25L209.545 15.2793ZM228.75 17.7666C228.75 18.915 228.079 19.6094 226.737 19.8496V19.9199C227.487 20.0078 228.061 20.2451 228.46 20.6318C228.858 21.0186 229.057 21.5195 229.057 22.1348C229.057 23.0547 228.706 23.7637 228.002 24.2617C227.305 24.7539 226.289 25 224.953 25H220.312V15.2793H224.935C227.478 15.2793 228.75 16.1084 228.75 17.7666ZM226.939 22.0117C226.939 21.543 226.757 21.2119 226.394 21.0186C226.031 20.8193 225.486 20.7197 224.759 20.7197H222.377V23.4707H224.812C226.23 23.4707 226.939 22.9844 226.939 22.0117ZM226.684 17.9424C226.684 17.5557 226.532 17.2773 226.227 17.1074C225.928 16.9316 225.48 16.8438 224.882 16.8438H222.377V19.1816H224.575C225.266 19.1816 225.791 19.0938 226.148 18.918C226.505 18.7363 226.684 18.4111 226.684 17.9424ZM232.81 15.2793V20.2627C232.81 20.8428 232.764 21.6953 232.67 22.8203L237.548 15.2793H240.07V25H238.084V20.1045C238.084 19.835 238.099 19.3984 238.128 18.7949C238.163 18.1914 238.192 17.752 238.216 17.4766L233.355 25H230.833V15.2793H232.81ZM251.98 28.4365H250.055V25H243.393V28.4365H241.486V23.4004H242.277C242.968 22.4102 243.516 21.2148 243.92 19.8145C244.33 18.4082 244.573 16.8965 244.65 15.2793H250.556V23.4004H251.98V28.4365ZM248.526 23.4004V16.8613H246.434C246.323 18.0684 246.088 19.2578 245.731 20.4297C245.379 21.6016 244.948 22.5918 244.439 23.4004H248.526ZM254.415 25H252.103L254.81 21.0186C254.154 20.8311 253.638 20.4971 253.263 20.0166C252.888 19.5303 252.701 18.9297 252.701 18.2148C252.701 17.2949 253.029 16.5771 253.685 16.0615C254.341 15.54 255.238 15.2793 256.375 15.2793H260.804V25H258.73V21.2559H256.77L254.415 25ZM254.713 18.2324C254.713 18.7305 254.901 19.1055 255.276 19.3574C255.657 19.6035 256.167 19.7266 256.805 19.7266H258.73V16.8438H256.48C255.918 16.8438 255.481 16.9639 255.171 17.2041C254.866 17.4443 254.713 17.7871 254.713 18.2324ZM270.701 15.2793V16.8965H267.537V25H265.463V16.8965H262.299V15.2793H270.701ZM35.9681 40.2793V45.2627C35.9681 45.8428 35.9212 46.6953 35.8275 47.8203L40.7054 40.2793H43.2279V50H41.2416V45.1045C41.2416 44.835 41.2562 44.3984 41.2855 43.7949C41.3207 43.1914 41.35 42.752 41.3734 42.4766L36.513 50H33.9906V40.2793H35.9681ZM47.8777 40.2793V44.1816H52.4568V40.2793H54.5222V50H52.4568V45.8076H47.8777V50H45.8122V40.2793H47.8777ZM64.4278 40.2793V41.8965H61.2637V50H59.1895V41.8965H56.0255V40.2793H64.4278ZM70.185 50.1758C68.6733 50.1758 67.4897 49.7363 66.6342 48.8574C65.7846 47.9727 65.3598 46.7568 65.3598 45.21C65.3598 43.6221 65.7553 42.374 66.5463 41.4658C67.3373 40.5576 68.4243 40.1035 69.8071 40.1035C71.0903 40.1035 72.1039 40.4932 72.8481 41.2725C73.5922 42.0518 73.9643 43.124 73.9643 44.4893V45.6055H67.4868C67.5161 46.5488 67.7709 47.2754 68.2514 47.7852C68.7319 48.2891 69.4086 48.541 70.2817 48.541C70.8559 48.541 71.3891 48.4883 71.8813 48.3828C72.3793 48.2715 72.9125 48.0898 73.4809 47.8379V49.5166C72.977 49.7568 72.4672 49.9268 71.9516 50.0264C71.436 50.126 70.8471 50.1758 70.185 50.1758ZM69.8071 41.668C69.1508 41.668 68.6235 41.876 68.225 42.292C67.8325 42.708 67.5981 43.3145 67.5219 44.1113H71.934C71.9223 43.3086 71.7289 42.7021 71.3539 42.292C70.9789 41.876 70.4633 41.668 69.8071 41.668ZM80.8816 50.1758C79.6512 50.1758 78.6961 49.7334 78.0164 48.8486H77.8934C77.9754 49.6689 78.0164 50.167 78.0164 50.3428V54.3242H75.951V40.2793H77.6209C77.6678 40.4609 77.7645 40.8945 77.9109 41.5801H78.0164C78.6609 40.5957 79.6277 40.1035 80.9168 40.1035C82.1297 40.1035 83.073 40.543 83.7469 41.4219C84.4266 42.3008 84.7664 43.5342 84.7664 45.1221C84.7664 46.71 84.4207 47.9492 83.7293 48.8398C83.0438 49.7305 82.0945 50.1758 80.8816 50.1758ZM80.3807 41.791C79.5604 41.791 78.9598 42.0312 78.5789 42.5117C78.2039 42.9922 78.0164 43.7598 78.0164 44.8145V45.1221C78.0164 46.3057 78.2039 47.1641 78.5789 47.6973C78.9539 48.2246 79.5662 48.4883 80.4158 48.4883C81.1307 48.4883 81.6814 48.1953 82.0682 47.6094C82.4549 47.0234 82.6482 46.1885 82.6482 45.1045C82.6482 44.0146 82.4549 43.1914 82.0682 42.6348C81.6873 42.0723 81.1248 41.791 80.3807 41.791ZM98.1789 45.1396C98.1789 46.5986 97.7365 47.7617 96.8517 48.6289C95.9728 49.4961 94.7541 49.9883 93.1955 50.1055V54.3242H91.2355V50.1055C89.6945 49.9883 88.4728 49.4902 87.5705 48.6113C86.674 47.7266 86.2257 46.5693 86.2257 45.1396C86.2257 43.6572 86.6623 42.4883 87.5353 41.6328C88.4084 40.7715 89.6476 40.2852 91.2531 40.1738V36.3242H93.1955V40.1738C94.7541 40.3145 95.9728 40.8213 96.8517 41.6943C97.7365 42.5674 98.1789 43.7158 98.1789 45.1396ZM88.3703 45.1396C88.3703 46.1006 88.6105 46.874 89.091 47.46C89.5714 48.0459 90.2921 48.3887 91.2531 48.4883V41.791C90.2863 41.9023 89.5627 42.248 89.0822 42.8281C88.6076 43.4082 88.3703 44.1787 88.3703 45.1396ZM96.0431 45.1396C96.0431 44.1904 95.8029 43.4287 95.3224 42.8545C94.8478 42.2803 94.1388 41.9375 93.1955 41.8262V48.4883C94.1505 48.377 94.8625 48.0312 95.3312 47.4512C95.8058 46.8652 96.0431 46.0947 96.0431 45.1396ZM104.455 50.1758C102.943 50.1758 101.759 49.7363 100.904 48.8574C100.054 47.9727 99.6294 46.7568 99.6294 45.21C99.6294 43.6221 100.025 42.374 100.816 41.4658C101.607 40.5576 102.694 40.1035 104.077 40.1035C105.36 40.1035 106.374 40.4932 107.118 41.2725C107.862 42.0518 108.234 43.124 108.234 44.4893V45.6055H101.756C101.786 46.5488 102.041 47.2754 102.521 47.7852C103.001 48.2891 103.678 48.541 104.551 48.541C105.126 48.541 105.659 48.4883 106.151 48.3828C106.649 48.2715 107.182 48.0898 107.751 47.8379V49.5166C107.247 49.7568 106.737 49.9268 106.221 50.0264C105.706 50.126 105.117 50.1758 104.455 50.1758ZM104.077 41.668C103.42 41.668 102.893 41.876 102.495 42.292C102.102 42.708 101.868 43.3145 101.792 44.1113H106.204C106.192 43.3086 105.999 42.7021 105.624 42.292C105.249 41.876 104.733 41.668 104.077 41.668ZM112.198 40.2793V45.2627C112.198 45.8428 112.151 46.6953 112.058 47.8203L116.935 40.2793H119.458V50H117.472V45.1045C117.472 44.835 117.486 44.3984 117.516 43.7949C117.551 43.1914 117.58 42.752 117.603 42.4766L112.743 50H110.221V40.2793H112.198ZM114.773 39.0928C113.531 39.0928 112.62 38.8701 112.04 38.4248C111.466 37.9736 111.146 37.2236 111.082 36.1748H112.954C112.989 36.5967 113.068 36.9248 113.191 37.1592C113.32 37.3936 113.502 37.5635 113.736 37.6689C113.976 37.7686 114.34 37.8184 114.826 37.8184C115.4 37.8184 115.837 37.6924 116.136 37.4404C116.434 37.1826 116.616 36.7607 116.681 36.1748H118.588C118.5 37.1826 118.145 37.9209 117.524 38.3896C116.903 38.8584 115.986 39.0928 114.773 39.0928ZM125.962 50.1758C124.491 50.1758 123.372 49.748 122.605 48.8926C121.843 48.0312 121.462 46.7979 121.462 45.1924C121.462 43.5576 121.861 42.3008 122.657 41.4219C123.46 40.543 124.617 40.1035 126.129 40.1035C127.155 40.1035 128.077 40.2939 128.898 40.6748L128.274 42.3359C127.401 41.9961 126.68 41.8262 126.112 41.8262C124.43 41.8262 123.589 42.9424 123.589 45.1748C123.589 46.2646 123.797 47.085 124.213 47.6357C124.635 48.1807 125.25 48.4531 126.059 48.4531C126.979 48.4531 127.849 48.2246 128.669 47.7676V49.5693C128.3 49.7861 127.905 49.9414 127.483 50.0352C127.067 50.1289 126.56 50.1758 125.962 50.1758ZM136.976 40.2793V44.1816H141.555V40.2793H143.62V50H141.555V45.8076H136.976V50H134.91V40.2793H136.976ZM152.304 50L151.891 48.6465H151.821C151.352 49.2383 150.88 49.6426 150.406 49.8594C149.931 50.0703 149.322 50.1758 148.577 50.1758C147.622 50.1758 146.875 49.918 146.336 49.4023C145.803 48.8867 145.536 48.1572 145.536 47.2139C145.536 46.2119 145.909 45.4561 146.653 44.9463C147.397 44.4365 148.531 44.1582 150.054 44.1113L151.733 44.0586V43.54C151.733 42.9189 151.586 42.4561 151.293 42.1514C151.006 41.8408 150.558 41.6855 149.949 41.6855C149.451 41.6855 148.973 41.7588 148.516 41.9053C148.059 42.0518 147.619 42.2246 147.198 42.4238L146.53 40.9473C147.057 40.6719 147.634 40.4639 148.261 40.3232C148.888 40.1768 149.48 40.1035 150.036 40.1035C151.273 40.1035 152.204 40.373 152.831 40.9121C153.464 41.4512 153.781 42.2979 153.781 43.4521V50H152.304ZM149.228 48.5938C149.978 48.5938 150.578 48.3857 151.03 47.9697C151.487 47.5479 151.715 46.959 151.715 46.2031V45.3594L150.467 45.4121C149.494 45.4473 148.785 45.6113 148.34 45.9043C147.901 46.1914 147.681 46.6338 147.681 47.2314C147.681 47.665 147.81 48.002 148.068 48.2422C148.326 48.4766 148.712 48.5938 149.228 48.5938ZM164.539 50.1758C163.068 50.1758 161.949 49.748 161.182 48.8926C160.42 48.0312 160.039 46.7979 160.039 45.1924C160.039 43.5576 160.438 42.3008 161.234 41.4219C162.037 40.543 163.194 40.1035 164.706 40.1035C165.731 40.1035 166.654 40.2939 167.475 40.6748L166.851 42.3359C165.978 41.9961 165.257 41.8262 164.689 41.8262C163.007 41.8262 162.166 42.9424 162.166 45.1748C162.166 46.2646 162.374 47.085 162.79 47.6357C163.212 48.1807 163.827 48.4531 164.636 48.4531C165.556 48.4531 166.426 48.2246 167.246 47.7676V49.5693C166.877 49.7861 166.481 49.9414 166.06 50.0352C165.644 50.1289 165.137 50.1758 164.539 50.1758ZM177.609 42.7666C177.609 43.915 176.938 44.6094 175.596 44.8496V44.9199C176.346 45.0078 176.92 45.2451 177.319 45.6318C177.717 46.0186 177.916 46.5195 177.916 47.1348C177.916 48.0547 177.565 48.7637 176.862 49.2617C176.164 49.7539 175.148 50 173.812 50H169.171V40.2793H173.794C176.337 40.2793 177.609 41.1084 177.609 42.7666ZM175.798 47.0117C175.798 46.543 175.617 46.2119 175.253 46.0186C174.89 45.8193 174.345 45.7197 173.619 45.7197H171.237V48.4707H173.671C175.089 48.4707 175.798 47.9844 175.798 47.0117ZM175.543 42.9424C175.543 42.5557 175.391 42.2773 175.086 42.1074C174.788 41.9316 174.339 41.8438 173.742 41.8438H171.237V44.1816H173.434C174.125 44.1816 174.65 44.0938 175.007 43.918C175.365 43.7363 175.543 43.4111 175.543 42.9424ZM188.314 45.1221C188.314 46.71 187.907 47.9492 187.093 48.8398C186.278 49.7305 185.144 50.1758 183.691 50.1758C182.783 50.1758 181.98 49.9707 181.283 49.5605C180.586 49.1504 180.05 48.5615 179.675 47.7939C179.3 47.0264 179.112 46.1357 179.112 45.1221C179.112 43.5459 179.516 42.3154 180.325 41.4307C181.134 40.5459 182.273 40.1035 183.744 40.1035C185.15 40.1035 186.263 40.5576 187.084 41.4658C187.904 42.3682 188.314 43.5869 188.314 45.1221ZM181.239 45.1221C181.239 47.3662 182.068 48.4883 183.726 48.4883C185.367 48.4883 186.187 47.3662 186.187 45.1221C186.187 42.9014 185.361 41.791 183.709 41.791C182.842 41.791 182.212 42.0781 181.819 42.6523C181.432 43.2266 181.239 44.0498 181.239 45.1221ZM194.581 50.1758C193.069 50.1758 191.886 49.7363 191.03 48.8574C190.181 47.9727 189.756 46.7568 189.756 45.21C189.756 43.6221 190.151 42.374 190.943 41.4658C191.734 40.5576 192.82 40.1035 194.203 40.1035C195.486 40.1035 196.5 40.4932 197.244 41.2725C197.988 42.0518 198.36 43.124 198.36 44.4893V45.6055H191.883C191.912 46.5488 192.167 47.2754 192.648 47.7852C193.128 48.2891 193.805 48.541 194.678 48.541C195.252 48.541 195.785 48.4883 196.277 48.3828C196.776 48.2715 197.309 48.0898 197.877 47.8379V49.5166C197.373 49.7568 196.863 49.9268 196.348 50.0264C195.832 50.126 195.243 50.1758 194.581 50.1758ZM194.203 41.668C193.547 41.668 193.02 41.876 192.621 42.292C192.229 42.708 191.994 43.3145 191.918 44.1113H196.33C196.318 43.3086 196.125 42.7021 195.75 42.292C195.375 41.876 194.859 41.668 194.203 41.668ZM191.47 37.7041C191.47 37.3408 191.567 37.0801 191.76 36.9219C191.959 36.7578 192.199 36.6758 192.481 36.6758C192.791 36.6758 193.037 36.7666 193.219 36.9482C193.406 37.1299 193.5 37.3818 193.5 37.7041C193.5 38.0146 193.406 38.2637 193.219 38.4512C193.031 38.6387 192.785 38.7324 192.481 38.7324C192.199 38.7324 191.959 38.6475 191.76 38.4775C191.567 38.3076 191.47 38.0498 191.47 37.7041ZM194.924 37.7041C194.924 37.3408 195.021 37.0801 195.214 36.9219C195.413 36.7578 195.653 36.6758 195.935 36.6758C196.245 36.6758 196.494 36.7666 196.682 36.9482C196.869 37.1299 196.963 37.3818 196.963 37.7041C196.963 38.0205 196.866 38.2725 196.673 38.46C196.48 38.6416 196.234 38.7324 195.935 38.7324C195.653 38.7324 195.413 38.6475 195.214 38.4775C195.021 38.3076 194.924 38.0498 194.924 37.7041ZM205.928 48.0225L206.042 47.6006C206.283 46.7275 206.491 46.0566 206.666 45.5879L208.846 40.2793H211.597V50H209.69V42.1514L209.532 42.6787C209.268 43.6221 209.045 44.3164 208.864 44.7617L206.737 50H205.172L203.045 44.7266C202.752 43.9648 202.483 43.1064 202.237 42.1514V50H200.347V40.2793H203.081L205.19 45.4297C205.377 45.9043 205.624 46.7686 205.928 48.0225ZM219.499 50H217.188L219.895 46.0186C219.238 45.8311 218.723 45.4971 218.348 45.0166C217.973 44.5303 217.785 43.9297 217.785 43.2148C217.785 42.2949 218.113 41.5771 218.77 41.0615C219.426 40.54 220.322 40.2793 221.459 40.2793H225.889V50H223.815V46.2559H221.855L219.499 50ZM219.798 43.2324C219.798 43.7305 219.986 44.1055 220.361 44.3574C220.741 44.6035 221.251 44.7266 221.89 44.7266H223.815V41.8438H221.565C221.002 41.8438 220.566 41.9639 220.255 42.2041C219.95 42.4443 219.798 42.7871 219.798 43.2324ZM230.627 44.1641C231.57 44.1641 232.264 44.0615 232.71 43.8564C233.155 43.6455 233.378 43.3232 233.378 42.8896C233.378 42.0986 232.674 41.7031 231.268 41.7031C230.331 41.7031 229.373 41.9141 228.394 42.3359L227.726 40.7979C228.857 40.335 230.105 40.1035 231.47 40.1035C232.677 40.1035 233.615 40.3262 234.283 40.7715C234.951 41.2109 235.285 41.8438 235.285 42.6699C235.285 43.7598 234.661 44.4746 233.413 44.8145V44.8848C234.192 45.0957 234.749 45.3975 235.083 45.79C235.422 46.1826 235.592 46.6689 235.592 47.249C235.592 48.1396 235.2 48.8516 234.415 49.3848C233.635 49.9121 232.545 50.1758 231.145 50.1758C229.616 50.1758 228.447 49.9736 227.638 49.5693V47.7852C228.711 48.2891 229.821 48.541 230.969 48.541C231.795 48.541 232.431 48.4268 232.877 48.1982C233.328 47.9639 233.553 47.6094 233.553 47.1348C233.553 46.6484 233.328 46.291 232.877 46.0625C232.425 45.834 231.728 45.7197 230.785 45.7197H229.598V44.1641H230.627ZM239.539 44.1641H241.508C242.867 44.1641 243.872 44.3984 244.522 44.8672C245.173 45.3359 245.498 46.0391 245.498 46.9766C245.498 47.9785 245.158 48.7344 244.478 49.2441C243.805 49.748 242.814 50 241.508 50H237.474V40.2793H239.539V44.1641ZM243.45 47.0293C243.45 46.543 243.268 46.2031 242.905 46.0098C242.548 45.8164 242.032 45.7197 241.358 45.7197H239.539V48.4707H241.095C241.927 48.4707 242.527 48.3535 242.896 48.1191C243.266 47.8848 243.45 47.5215 243.45 47.0293ZM249.101 50H247.027V40.2793H249.101V50ZM257.733 40.2793H260L255.984 44.9639L260.343 50H257.97L253.769 45.0693V50H251.703V40.2793H253.769V44.999L257.733 40.2793ZM265.837 50.1758C264.325 50.1758 263.141 49.7363 262.286 48.8574C261.436 47.9727 261.011 46.7568 261.011 45.21C261.011 43.6221 261.407 42.374 262.198 41.4658C262.989 40.5576 264.076 40.1035 265.459 40.1035C266.742 40.1035 267.756 40.4932 268.5 41.2725C269.244 42.0518 269.616 43.124 269.616 44.4893V45.6055H263.138C263.168 46.5488 263.423 47.2754 263.903 47.7852C264.383 48.2891 265.06 48.541 265.933 48.541C266.507 48.541 267.041 48.4883 267.533 48.3828C268.031 48.2715 268.564 48.0898 269.132 47.8379V49.5166C268.629 49.7568 268.119 49.9268 267.603 50.0264C267.088 50.126 266.499 50.1758 265.837 50.1758ZM265.459 41.668C264.802 41.668 264.275 41.876 263.877 42.292C263.484 42.708 263.25 43.3145 263.173 44.1113H267.586C267.574 43.3086 267.381 42.7021 267.006 42.292C266.631 41.876 266.115 41.668 265.459 41.668Z" fill="white"/>
</svg>
