<svg width="221" height="62" viewBox="0 0 221 62" fill="none" xmlns="http://www.w3.org/2000/svg">
<path d="M212.617 16C212.617 7.16344 205.454 0 196.617 0H16C7.16344 0 -6.19888e-06 7.16344 -6.19888e-06 16V46C-6.19888e-06 54.8366 7.16344 62 16 62H203.472H221L214.368 49.0166C213.217 46.7632 212.617 44.2689 212.617 41.7386V16Z" fill="#27AE60"/>
<path d="M35.2798 25H33.1792V13.9521H29.5229C29.06 17.7021 28.688 20.2539 28.4067 21.6074C28.1313 22.9609 27.7417 23.9043 27.2378 24.4375C26.7339 24.9648 26.0659 25.2197 25.2339 25.2021C24.8061 25.2021 24.3989 25.1289 24.0122 24.9824V23.2334C24.3462 23.3799 24.6714 23.4531 24.9878 23.4531C25.4096 23.4531 25.7378 23.2012 25.9721 22.6973C26.2124 22.1875 26.4731 21.0654 26.7544 19.3311C27.0415 17.5967 27.3813 15.2031 27.7739 12.1504H35.2798V25ZM40.0789 15.2793V20.2627C40.0789 20.8428 40.0321 21.6953 39.9383 22.8203L44.8162 15.2793H47.3387V25H45.3524V20.1045C45.3524 19.835 45.367 19.3984 45.3963 18.7949C45.4315 18.1914 45.4608 17.752 45.4842 17.4766L40.6239 25H38.1014V15.2793H40.0789ZM51.7424 15.2793V18.8301C51.7424 19.8262 52.258 20.3242 53.2893 20.3242C53.7873 20.3242 54.2736 20.2568 54.7482 20.1221C55.2228 19.9814 55.7326 19.7588 56.2775 19.4541V15.2793H58.343V25H56.2775V20.8779C55.7092 21.2295 55.1584 21.4902 54.6252 21.6602C54.0978 21.8242 53.5207 21.9062 52.8937 21.9062C51.8801 21.9062 51.0891 21.6455 50.5207 21.124C49.9523 20.5967 49.6682 19.8613 49.6682 18.918V15.2793H51.7424ZM63.0015 15.2793V19.1816H67.5806V15.2793H69.646V25H67.5806V20.8076H63.0015V25H60.9361V15.2793H63.0015ZM74.3134 19.1641H76.2821C77.6415 19.1641 78.6464 19.3984 79.2968 19.8672C79.9472 20.3359 80.2724 21.0391 80.2724 21.9766C80.2724 22.9785 79.9325 23.7344 79.2528 24.2441C78.579 24.748 77.5888 25 76.2821 25H72.248V15.2793H74.3134V19.1641ZM78.2245 22.0293C78.2245 21.543 78.0429 21.2031 77.6796 21.0098C77.3222 20.8164 76.8066 20.7197 76.1327 20.7197H74.3134V23.4707H75.8691C76.7011 23.4707 77.3017 23.3535 77.6708 23.1191C78.04 22.8848 78.2245 22.5215 78.2245 22.0293ZM83.8759 25H81.8017V15.2793H83.8759V25ZM88.4554 15.2793V20.2627C88.4554 20.8428 88.4085 21.6953 88.3147 22.8203L93.1927 15.2793H95.7151V25H93.7288V20.1045C93.7288 19.835 93.7434 19.3984 93.7727 18.7949C93.8079 18.1914 93.8372 17.752 93.8606 17.4766L89.0003 25H86.4778V15.2793H88.4554ZM91.0305 14.0928C89.7884 14.0928 88.8772 13.8701 88.2971 13.4248C87.7229 12.9736 87.4036 12.2236 87.3391 11.1748H89.2112C89.2464 11.5967 89.3255 11.9248 89.4485 12.1592C89.5774 12.3936 89.7591 12.5635 89.9934 12.6689C90.2337 12.7686 90.597 12.8184 91.0833 12.8184C91.6575 12.8184 92.094 12.6924 92.3929 12.4404C92.6917 12.1826 92.8733 11.7607 92.9378 11.1748H94.845C94.7571 12.1826 94.4026 12.9209 93.7815 13.3896C93.1604 13.8584 92.2434 14.0928 91.0305 14.0928ZM111.114 15.2793V25H109.04V16.9141H104.681V25H102.615V15.2793H111.114ZM118.647 25.1758C117.416 25.1758 116.461 24.7334 115.782 23.8486H115.659C115.741 24.6689 115.782 25.167 115.782 25.3428V29.3242H113.716V15.2793H115.386C115.433 15.4609 115.53 15.8945 115.676 16.5801H115.782C116.426 15.5957 117.393 15.1035 118.682 15.1035C119.895 15.1035 120.838 15.543 121.512 16.4219C122.192 17.3008 122.532 18.5342 122.532 20.1221C122.532 21.71 122.186 22.9492 121.494 23.8398C120.809 24.7305 119.86 25.1758 118.647 25.1758ZM118.146 16.791C117.326 16.791 116.725 17.0312 116.344 17.5117C115.969 17.9922 115.782 18.7598 115.782 19.8145V20.1221C115.782 21.3057 115.969 22.1641 116.344 22.6973C116.719 23.2246 117.331 23.4883 118.181 23.4883C118.896 23.4883 119.447 23.1953 119.833 22.6094C120.22 22.0234 120.413 21.1885 120.413 20.1045C120.413 19.0146 120.22 18.1914 119.833 17.6348C119.452 17.0723 118.89 16.791 118.146 16.791ZM133.193 20.1221C133.193 21.71 132.786 22.9492 131.971 23.8398C131.157 24.7305 130.023 25.1758 128.57 25.1758C127.662 25.1758 126.859 24.9707 126.162 24.5605C125.465 24.1504 124.928 23.5615 124.553 22.7939C124.178 22.0264 123.991 21.1357 123.991 20.1221C123.991 18.5459 124.395 17.3154 125.204 16.4307C126.012 15.5459 127.152 15.1035 128.623 15.1035C130.029 15.1035 131.142 15.5576 131.963 16.4658C132.783 17.3682 133.193 18.5869 133.193 20.1221ZM126.118 20.1221C126.118 22.3662 126.947 23.4883 128.605 23.4883C130.246 23.4883 131.066 22.3662 131.066 20.1221C131.066 17.9014 130.24 16.791 128.588 16.791C127.72 16.791 127.091 17.0781 126.698 17.6523C126.311 18.2266 126.118 19.0498 126.118 20.1221ZM146.588 20.1396C146.588 21.5986 146.146 22.7617 145.261 23.6289C144.382 24.4961 143.163 24.9883 141.605 25.1055V29.3242H139.645V25.1055C138.104 24.9883 136.882 24.4902 135.98 23.6113C135.083 22.7266 134.635 21.5693 134.635 20.1396C134.635 18.6572 135.071 17.4883 135.944 16.6328C136.817 15.7715 138.057 15.2852 139.662 15.1738V11.3242H141.605V15.1738C143.163 15.3145 144.382 15.8213 145.261 16.6943C146.146 17.5674 146.588 18.7158 146.588 20.1396ZM136.779 20.1396C136.779 21.1006 137.02 21.874 137.5 22.46C137.981 23.0459 138.701 23.3887 139.662 23.4883V16.791C138.695 16.9023 137.972 17.248 137.491 17.8281C137.017 18.4082 136.779 19.1787 136.779 20.1396ZM144.452 20.1396C144.452 19.1904 144.212 18.4287 143.732 17.8545C143.257 17.2803 142.548 16.9375 141.605 16.8262V23.4883C142.56 23.377 143.272 23.0312 143.74 22.4512C144.215 21.8652 144.452 21.0947 144.452 20.1396ZM150.596 15.2793V20.2627C150.596 20.8428 150.549 21.6953 150.456 22.8203L155.333 15.2793H157.856V25H155.87V20.1045C155.87 19.835 155.884 19.3984 155.914 18.7949C155.949 18.1914 155.978 17.752 156.001 17.4766L151.141 25H148.619V15.2793H150.596ZM168.429 25H166.346V16.8965H163.666C163.502 18.9824 163.279 20.6113 162.998 21.7832C162.722 22.9551 162.359 23.8105 161.908 24.3496C161.463 24.8887 160.883 25.1582 160.168 25.1582C159.717 25.1582 159.339 25.0938 159.034 24.9648V23.3477C159.251 23.4297 159.468 23.4707 159.684 23.4707C160.282 23.4707 160.751 22.7998 161.091 21.458C161.436 20.1104 161.706 18.0508 161.899 15.2793H168.429V25ZM173.097 19.1641H175.531C178.244 19.1641 179.601 20.1016 179.601 21.9766C179.601 22.9668 179.255 23.7197 178.564 24.2354C177.872 24.7451 176.861 25 175.531 25H171.031V15.2793H173.097V19.1641ZM177.527 22.0293C177.527 21.543 177.342 21.2031 176.973 21.0098C176.604 20.8164 176.082 20.7197 175.408 20.7197H173.097V23.4707H175.444C176.123 23.4707 176.639 23.3477 176.99 23.1016C177.348 22.8555 177.527 22.498 177.527 22.0293ZM56.203 50.1758C54.7323 50.1758 53.6132 49.748 52.8456 48.8926C52.0839 48.0312 51.703 46.7979 51.703 45.1924C51.703 43.5576 52.1014 42.3008 52.8983 41.4219C53.7011 40.543 54.8583 40.1035 56.37 40.1035C57.3954 40.1035 58.3182 40.2939 59.1386 40.6748L58.5145 42.3359C57.6415 41.9961 56.9208 41.8262 56.3524 41.8262C54.6708 41.8262 53.83 42.9424 53.83 45.1748C53.83 46.2646 54.038 47.085 54.454 47.6357C54.8759 48.1807 55.4911 48.4531 56.2997 48.4531C57.2196 48.4531 58.0897 48.2246 58.91 47.7676V49.5693C58.5409 49.7861 58.1454 49.9414 57.7235 50.0352C57.3075 50.1289 56.8007 50.1758 56.203 50.1758ZM69.4573 45.1221C69.4573 46.71 69.05 47.9492 68.2356 48.8398C67.4211 49.7305 66.2873 50.1758 64.8342 50.1758C63.926 50.1758 63.1233 49.9707 62.426 49.5605C61.7287 49.1504 61.1926 48.5615 60.8176 47.7939C60.4426 47.0264 60.2551 46.1357 60.2551 45.1221C60.2551 43.5459 60.6594 42.3154 61.468 41.4307C62.2766 40.5459 63.4162 40.1035 64.887 40.1035C66.2932 40.1035 67.4065 40.5576 68.2268 41.4658C69.0471 42.3682 69.4573 43.5869 69.4573 45.1221ZM62.3821 45.1221C62.3821 47.3662 63.2112 48.4883 64.8694 48.4883C66.51 48.4883 67.3303 47.3662 67.3303 45.1221C67.3303 42.9014 66.5041 41.791 64.8518 41.791C63.9846 41.791 63.3547 42.0781 62.9621 42.6523C62.5754 43.2266 62.3821 44.0498 62.3821 45.1221ZM78.7828 40.2793V41.8965H75.6188V50H73.5445V41.8965H70.3805V40.2793H78.7828ZM85.2255 50.1758C83.9951 50.1758 83.04 49.7334 82.3603 48.8486H82.2373C82.3193 49.6689 82.3603 50.167 82.3603 50.3428V54.3242H80.2949V40.2793H81.9648C82.0117 40.4609 82.1084 40.8945 82.2548 41.5801H82.3603C83.0048 40.5957 83.9716 40.1035 85.2607 40.1035C86.4736 40.1035 87.417 40.543 88.0908 41.4219C88.7705 42.3008 89.1103 43.5342 89.1103 45.1221C89.1103 46.71 88.7646 47.9492 88.0732 48.8398C87.3877 49.7305 86.4384 50.1758 85.2255 50.1758ZM84.7246 41.791C83.9043 41.791 83.3037 42.0312 82.9228 42.5117C82.5478 42.9922 82.3603 43.7598 82.3603 44.8145V45.1221C82.3603 46.3057 82.5478 47.1641 82.9228 47.6973C83.2978 48.2246 83.9101 48.4883 84.7597 48.4883C85.4746 48.4883 86.0254 48.1953 86.4121 47.6094C86.7988 47.0234 86.9921 46.1885 86.9921 45.1045C86.9921 44.0146 86.7988 43.1914 86.4121 42.6348C86.0312 42.0723 85.4687 41.791 84.7246 41.791ZM89.6732 40.2793H91.9232L93.9007 45.79C94.1995 46.5752 94.3988 47.3135 94.4984 48.0049H94.5687C94.6214 47.6826 94.7181 47.293 94.8587 46.8359C94.9993 46.373 95.7435 44.1875 97.0911 40.2793H99.3236L95.1663 51.292C94.4105 53.3135 93.1507 54.3242 91.387 54.3242C90.93 54.3242 90.4847 54.2744 90.0511 54.1748V52.54C90.3616 52.6104 90.7161 52.6455 91.1146 52.6455C92.1107 52.6455 92.8109 52.0684 93.2152 50.9141L93.5755 50L89.6732 40.2793ZM109.765 53.4365H107.841V50H101.178V53.4365H99.2712V48.4004H100.062C100.754 47.4102 101.301 46.2148 101.706 44.8145C102.116 43.4082 102.359 41.8965 102.435 40.2793H108.341V48.4004H109.765V53.4365ZM106.311 48.4004V41.8613H104.219C104.108 43.0684 103.874 44.2578 103.516 45.4297C103.165 46.6016 102.734 47.5918 102.224 48.4004H106.311ZM113.272 40.2793V44.1816H117.852V40.2793H119.917V50H117.852V45.8076H113.272V50H111.207V40.2793H113.272ZM124.496 40.2793V45.2627C124.496 45.8428 124.45 46.6953 124.356 47.8203L129.234 40.2793H131.756V50H129.77V45.1045C129.77 44.835 129.785 44.3984 129.814 43.7949C129.849 43.1914 129.878 42.752 129.902 42.4766L125.041 50H122.519V40.2793H124.496ZM140.37 40.2793H142.637L138.621 44.9639L142.98 50H140.607L136.406 45.0693V50H134.341V40.2793H136.406V44.999L140.37 40.2793ZM150.311 50L149.898 48.6465H149.827C149.359 49.2383 148.887 49.6426 148.412 49.8594C147.938 50.0703 147.328 50.1758 146.584 50.1758C145.629 50.1758 144.882 49.918 144.343 49.4023C143.81 48.8867 143.543 48.1572 143.543 47.2139C143.543 46.2119 143.915 45.4561 144.659 44.9463C145.403 44.4365 146.537 44.1582 148.061 44.1113L149.739 44.0586V43.54C149.739 42.9189 149.593 42.4561 149.3 42.1514C149.013 41.8408 148.565 41.6855 147.955 41.6855C147.457 41.6855 146.98 41.7588 146.523 41.9053C146.066 42.0518 145.626 42.2246 145.204 42.4238L144.536 40.9473C145.064 40.6719 145.641 40.4639 146.268 40.3232C146.895 40.1768 147.486 40.1035 148.043 40.1035C149.279 40.1035 150.211 40.373 150.838 40.9121C151.471 41.4512 151.787 42.2979 151.787 43.4521V50H150.311ZM147.234 48.5938C147.984 48.5938 148.585 48.3857 149.036 47.9697C149.493 47.5479 149.722 46.959 149.722 46.2031V45.3594L148.474 45.4121C147.501 45.4473 146.792 45.6113 146.347 45.9043C145.907 46.1914 145.688 46.6338 145.688 47.2314C145.688 47.665 145.817 48.002 146.074 48.2422C146.332 48.4766 146.719 48.5938 147.234 48.5938Z" fill="white"/>
</svg>
