<svg width="322" height="63" viewBox="0 0 322 63" fill="none" xmlns="http://www.w3.org/2000/svg">
<path d="M0 25.4252C0 16.5886 7.16344 9.42519 16 9.42519H146.497C151.742 9.42519 156.654 6.85443 159.643 2.54475L161.409 0C163.626 5.68351 169.103 9.42519 175.204 9.42519H306C314.837 9.42519 322 16.5886 322 25.4252V47C322 55.8366 314.837 63 306 63H16C7.16343 63 0 55.8366 0 47V25.4252Z" fill="#27AE60"/>
<path d="M40.9284 43H38.8278V31.9521H35.1716C34.7087 35.7021 34.3366 38.2539 34.0554 39.6074C33.78 40.9609 33.3903 41.9043 32.8864 42.4375C32.3825 42.9648 31.7145 43.2197 30.8825 43.2021C30.4548 43.2021 30.0475 43.1289 29.6608 42.9824V41.2334C29.9948 41.3799 30.32 41.4531 30.6364 41.4531C31.0583 41.4531 31.3864 41.2012 31.6208 40.6973C31.861 40.1875 32.1218 39.0654 32.403 37.3311C32.6901 35.5967 33.03 33.2031 33.4225 30.1504H40.9284V43ZM45.7276 33.2793V38.2627C45.7276 38.8428 45.6807 39.6953 45.587 40.8203L50.4649 33.2793H52.9874V43H51.001V38.1045C51.001 37.835 51.0157 37.3984 51.045 36.7949C51.0801 36.1914 51.1094 35.752 51.1329 35.4766L46.2725 43H43.75V33.2793H45.7276ZM57.391 33.2793V36.8301C57.391 37.8262 57.9066 38.3242 58.9379 38.3242C59.4359 38.3242 59.9223 38.2568 60.3969 38.1221C60.8715 37.9814 61.3813 37.7588 61.9262 37.4541V33.2793H63.9916V43H61.9262V38.8779C61.3578 39.2295 60.807 39.4902 60.2738 39.6602C59.7465 39.8242 59.1693 39.9062 58.5424 39.9062C57.5287 39.9062 56.7377 39.6455 56.1693 39.124C55.601 38.5967 55.3168 37.8613 55.3168 36.918V33.2793H57.391ZM68.6502 33.2793V37.1816H73.2293V33.2793H75.2947V43H73.2293V38.8076H68.6502V43H66.5847V33.2793H68.6502ZM79.962 37.1641H81.9308C83.2902 37.1641 84.295 37.3984 84.9454 37.8672C85.5958 38.3359 85.921 39.0391 85.921 39.9766C85.921 40.9785 85.5812 41.7344 84.9015 42.2441C84.2277 42.748 83.2374 43 81.9308 43H77.8966V33.2793H79.962V37.1641ZM83.8732 40.0293C83.8732 39.543 83.6915 39.2031 83.3283 39.0098C82.9708 38.8164 82.4552 38.7197 81.7814 38.7197H79.962V41.4707H81.5177C82.3497 41.4707 82.9503 41.3535 83.3195 41.1191C83.6886 40.8848 83.8732 40.5215 83.8732 40.0293ZM89.5245 43H87.4503V33.2793H89.5245V43ZM94.104 33.2793V38.2627C94.104 38.8428 94.0571 39.6953 93.9634 40.8203L98.8413 33.2793H101.364V43H99.3774V38.1045C99.3774 37.835 99.3921 37.3984 99.4214 36.7949C99.4565 36.1914 99.4858 35.752 99.5093 35.4766L94.6489 43H92.1265V33.2793H94.104ZM96.6792 32.0928C95.437 32.0928 94.5259 31.8701 93.9458 31.4248C93.3716 30.9736 93.0522 30.2236 92.9878 29.1748H94.8599C94.895 29.5967 94.9741 29.9248 95.0972 30.1592C95.2261 30.3936 95.4077 30.5635 95.6421 30.6689C95.8823 30.7686 96.2456 30.8184 96.7319 30.8184C97.3061 30.8184 97.7427 30.6924 98.0415 30.4404C98.3403 30.1826 98.522 29.7607 98.5864 29.1748H100.494C100.406 30.1826 100.051 30.9209 99.4302 31.3896C98.8091 31.8584 97.8921 32.0928 96.6792 32.0928ZM116.763 33.2793V43H114.689V34.9141H110.329V43H108.264V33.2793H116.763ZM124.295 43.1758C123.065 43.1758 122.11 42.7334 121.43 41.8486H121.307C121.389 42.6689 121.43 43.167 121.43 43.3428V47.3242H119.365V33.2793H121.035C121.082 33.4609 121.178 33.8945 121.325 34.5801H121.43C122.075 33.5957 123.042 33.1035 124.331 33.1035C125.544 33.1035 126.487 33.543 127.161 34.4219C127.84 35.3008 128.18 36.5342 128.18 38.1221C128.18 39.71 127.835 40.9492 127.143 41.8398C126.458 42.7305 125.508 43.1758 124.295 43.1758ZM123.795 34.791C122.974 34.791 122.374 35.0312 121.993 35.5117C121.618 35.9922 121.43 36.7598 121.43 37.8145V38.1221C121.43 39.3057 121.618 40.1641 121.993 40.6973C122.368 41.2246 122.98 41.4883 123.83 41.4883C124.545 41.4883 125.095 41.1953 125.482 40.6094C125.869 40.0234 126.062 39.1885 126.062 38.1045C126.062 37.0146 125.869 36.1914 125.482 35.6348C125.101 35.0723 124.539 34.791 123.795 34.791ZM138.842 38.1221C138.842 39.71 138.435 40.9492 137.62 41.8398C136.806 42.7305 135.672 43.1758 134.219 43.1758C133.31 43.1758 132.508 42.9707 131.81 42.5605C131.113 42.1504 130.577 41.5615 130.202 40.7939C129.827 40.0264 129.64 39.1357 129.64 38.1221C129.64 36.5459 130.044 35.3154 130.852 34.4307C131.661 33.5459 132.801 33.1035 134.271 33.1035C135.678 33.1035 136.791 33.5576 137.611 34.4658C138.432 35.3682 138.842 36.5869 138.842 38.1221ZM131.767 38.1221C131.767 40.3662 132.596 41.4883 134.254 41.4883C135.894 41.4883 136.715 40.3662 136.715 38.1221C136.715 35.9014 135.889 34.791 134.236 34.791C133.369 34.791 132.739 35.0781 132.347 35.6523C131.96 36.2266 131.767 37.0498 131.767 38.1221ZM152.237 38.1396C152.237 39.5986 151.794 40.7617 150.909 41.6289C150.031 42.4961 148.812 42.9883 147.253 43.1055V47.3242H145.293V43.1055C143.752 42.9883 142.531 42.4902 141.628 41.6113C140.732 40.7266 140.283 39.5693 140.283 38.1396C140.283 36.6572 140.72 35.4883 141.593 34.6328C142.466 33.7715 143.705 33.2852 145.311 33.1738V29.3242H147.253V33.1738C148.812 33.3145 150.031 33.8213 150.909 34.6943C151.794 35.5674 152.237 36.7158 152.237 38.1396ZM142.428 38.1396C142.428 39.1006 142.668 39.874 143.149 40.46C143.629 41.0459 144.35 41.3887 145.311 41.4883V34.791C144.344 34.9023 143.62 35.248 143.14 35.8281C142.665 36.4082 142.428 37.1787 142.428 38.1396ZM150.101 38.1396C150.101 37.1904 149.861 36.4287 149.38 35.8545C148.906 35.2803 148.197 34.9375 147.253 34.8262V41.4883C148.208 41.377 148.92 41.0312 149.389 40.4512C149.864 39.8652 150.101 39.0947 150.101 38.1396ZM156.245 33.2793V38.2627C156.245 38.8428 156.198 39.6953 156.104 40.8203L160.982 33.2793H163.505V43H161.518V38.1045C161.518 37.835 161.533 37.3984 161.562 36.7949C161.597 36.1914 161.627 35.752 161.65 35.4766L156.79 43H154.267V33.2793H156.245ZM174.078 43H171.995V34.8965H169.314C169.15 36.9824 168.928 38.6113 168.646 39.7832C168.371 40.9551 168.008 41.8105 167.557 42.3496C167.111 42.8887 166.531 43.1582 165.816 43.1582C165.365 43.1582 164.987 43.0938 164.683 42.9648V41.3477C164.899 41.4297 165.116 41.4707 165.333 41.4707C165.931 41.4707 166.399 40.7998 166.739 39.458C167.085 38.1104 167.354 36.0508 167.548 33.2793H174.078V43ZM178.745 37.1641H181.18C183.893 37.1641 185.249 38.1016 185.249 39.9766C185.249 40.9668 184.904 41.7197 184.212 42.2354C183.521 42.7451 182.51 43 181.18 43H176.68V33.2793H178.745V37.1641ZM183.175 40.0293C183.175 39.543 182.991 39.2031 182.621 39.0098C182.252 38.8164 181.731 38.7197 181.057 38.7197H178.745V41.4707H181.092C181.772 41.4707 182.287 41.3477 182.639 41.1016C182.996 40.8555 183.175 40.498 183.175 40.0293ZM195.419 43.1758C193.948 43.1758 192.829 42.748 192.062 41.8926C191.3 41.0312 190.919 39.7979 190.919 38.1924C190.919 36.5576 191.317 35.3008 192.114 34.4219C192.917 33.543 194.074 33.1035 195.586 33.1035C196.611 33.1035 197.534 33.2939 198.355 33.6748L197.731 35.3359C196.858 34.9961 196.137 34.8262 195.568 34.8262C193.887 34.8262 193.046 35.9424 193.046 38.1748C193.046 39.2646 193.254 40.085 193.67 40.6357C194.092 41.1807 194.707 41.4531 195.516 41.4531C196.436 41.4531 197.306 41.2246 198.126 40.7676V42.5693C197.757 42.7861 197.361 42.9414 196.94 43.0352C196.524 43.1289 196.017 43.1758 195.419 43.1758ZM208.673 38.1221C208.673 39.71 208.266 40.9492 207.452 41.8398C206.637 42.7305 205.503 43.1758 204.05 43.1758C203.142 43.1758 202.339 42.9707 201.642 42.5605C200.945 42.1504 200.409 41.5615 200.034 40.7939C199.659 40.0264 199.471 39.1357 199.471 38.1221C199.471 36.5459 199.875 35.3154 200.684 34.4307C201.493 33.5459 202.632 33.1035 204.103 33.1035C205.509 33.1035 206.623 33.5576 207.443 34.4658C208.263 35.3682 208.673 36.5869 208.673 38.1221ZM201.598 38.1221C201.598 40.3662 202.427 41.4883 204.085 41.4883C205.726 41.4883 206.546 40.3662 206.546 38.1221C206.546 35.9014 205.72 34.791 204.068 34.791C203.201 34.791 202.571 35.0781 202.178 35.6523C201.791 36.2266 201.598 37.0498 201.598 38.1221ZM217.999 33.2793V34.8965H214.835V43H212.761V34.8965H209.596V33.2793H217.999ZM224.442 43.1758C223.211 43.1758 222.256 42.7334 221.576 41.8486H221.453C221.535 42.6689 221.576 43.167 221.576 43.3428V47.3242H219.511V33.2793H221.181C221.228 33.4609 221.324 33.8945 221.471 34.5801H221.576C222.221 33.5957 223.188 33.1035 224.477 33.1035C225.69 33.1035 226.633 33.543 227.307 34.4219C227.986 35.3008 228.326 36.5342 228.326 38.1221C228.326 39.71 227.981 40.9492 227.289 41.8398C226.604 42.7305 225.654 43.1758 224.442 43.1758ZM223.941 34.791C223.12 34.791 222.52 35.0312 222.139 35.5117C221.764 35.9922 221.576 36.7598 221.576 37.8145V38.1221C221.576 39.3057 221.764 40.1641 222.139 40.6973C222.514 41.2246 223.126 41.4883 223.976 41.4883C224.691 41.4883 225.241 41.1953 225.628 40.6094C226.015 40.0234 226.208 39.1885 226.208 38.1045C226.208 37.0146 226.015 36.1914 225.628 35.6348C225.247 35.0723 224.685 34.791 223.941 34.791ZM228.889 33.2793H231.139L233.117 38.79C233.416 39.5752 233.615 40.3135 233.714 41.0049H233.785C233.837 40.6826 233.934 40.293 234.075 39.8359C234.215 39.373 234.96 37.1875 236.307 33.2793H238.54L234.382 44.292C233.626 46.3135 232.367 47.3242 230.603 47.3242C230.146 47.3242 229.701 47.2744 229.267 47.1748V45.54C229.578 45.6104 229.932 45.6455 230.331 45.6455C231.327 45.6455 232.027 45.0684 232.431 43.9141L232.792 43L228.889 33.2793ZM248.981 46.4365H247.057V43H240.394V46.4365H238.487V41.4004H239.278C239.97 40.4102 240.517 39.2148 240.922 37.8145C241.332 36.4082 241.575 34.8965 241.651 33.2793H247.558V41.4004H248.981V46.4365ZM245.527 41.4004V34.8613H243.435C243.324 36.0684 243.09 37.2578 242.732 38.4297C242.381 39.6016 241.95 40.5918 241.44 41.4004H245.527ZM252.489 33.2793V37.1816H257.068V33.2793H259.133V43H257.068V38.8076H252.489V43H250.423V33.2793H252.489ZM263.713 33.2793V38.2627C263.713 38.8428 263.666 39.6953 263.572 40.8203L268.45 33.2793H270.972V43H268.986V38.1045C268.986 37.835 269.001 37.3984 269.03 36.7949C269.065 36.1914 269.094 35.752 269.118 35.4766L264.257 43H261.735V33.2793H263.713ZM279.586 33.2793H281.853L277.837 37.9639L282.196 43H279.823L275.622 38.0693V43H273.557V33.2793H275.622V37.999L279.586 33.2793ZM289.527 43L289.114 41.6465H289.043C288.575 42.2383 288.103 42.6426 287.628 42.8594C287.154 43.0703 286.544 43.1758 285.8 43.1758C284.845 43.1758 284.098 42.918 283.559 42.4023C283.026 41.8867 282.759 41.1572 282.759 40.2139C282.759 39.2119 283.131 38.4561 283.875 37.9463C284.619 37.4365 285.753 37.1582 287.277 37.1113L288.955 37.0586V36.54C288.955 35.9189 288.809 35.4561 288.516 35.1514C288.229 34.8408 287.781 34.6855 287.171 34.6855C286.673 34.6855 286.196 34.7588 285.739 34.9053C285.282 35.0518 284.842 35.2246 284.42 35.4238L283.752 33.9473C284.28 33.6719 284.857 33.4639 285.484 33.3232C286.111 33.1768 286.702 33.1035 287.259 33.1035C288.495 33.1035 289.427 33.373 290.054 33.9121C290.687 34.4512 291.003 35.2979 291.003 36.4521V43H289.527ZM286.451 41.5938C287.201 41.5938 287.801 41.3857 288.252 40.9697C288.709 40.5479 288.938 39.959 288.938 39.2031V38.3594L287.69 38.4121C286.717 38.4473 286.008 38.6113 285.563 38.9043C285.123 39.1914 284.904 39.6338 284.904 40.2314C284.904 40.665 285.033 41.002 285.29 41.2422C285.548 41.4766 285.935 41.5938 286.451 41.5938Z" fill="white"/>
</svg>
