<svg width="322" height="63" viewBox="0 0 322 63" fill="none" xmlns="http://www.w3.org/2000/svg">
<path d="M0 25.4252C0 16.5886 7.16344 9.42519 16 9.42519H146.497C151.742 9.42519 156.654 6.85443 159.643 2.54475L161.409 0C163.626 5.68351 169.103 9.42519 175.204 9.42519H306C314.837 9.42519 322 16.5886 322 25.4252V47C322 55.8366 314.837 63 306 63H16C7.16343 63 0 55.8366 0 47V25.4252Z" fill="#27AE60"/>
<path d="M43.4596 19.1504H45.3845V25.8301C45.3845 26.5273 45.3669 27.2334 45.3317 27.9482C45.2966 28.6572 45.2702 29.1377 45.2526 29.3896H45.3317L51.8971 19.1504H54.3493V32H52.4157V25.373C52.4157 24.3594 52.4714 23.1289 52.5827 21.6816H52.5124L45.9206 32H43.4596V19.1504ZM59.2012 22.2793V26.1816H63.7803V22.2793H65.8457V32H63.7803V27.8076H59.2012V32H57.1358V22.2793H59.2012ZM77.0697 27.1221C77.0697 28.71 76.6625 29.9492 75.848 30.8398C75.0336 31.7305 73.8998 32.1758 72.4467 32.1758C71.5385 32.1758 70.7357 31.9707 70.0385 31.5605C69.3412 31.1504 68.8051 30.5615 68.4301 29.7939C68.0551 29.0264 67.8676 28.1357 67.8676 27.1221C67.8676 25.5459 68.2719 24.3154 69.0805 23.4307C69.8891 22.5459 71.0287 22.1035 72.4994 22.1035C73.9057 22.1035 75.0189 22.5576 75.8393 23.4658C76.6596 24.3682 77.0697 25.5869 77.0697 27.1221ZM69.9945 27.1221C69.9945 29.3662 70.8236 30.4883 72.4818 30.4883C74.1225 30.4883 74.9428 29.3662 74.9428 27.1221C74.9428 24.9014 74.1166 23.791 72.4643 23.791C71.5971 23.791 70.9672 24.0781 70.5746 24.6523C70.1879 25.2266 69.9945 26.0498 69.9945 27.1221ZM83.0115 32.1758C81.5408 32.1758 80.4216 31.748 79.6541 30.8926C78.8923 30.0312 78.5115 28.7979 78.5115 27.1924C78.5115 25.5576 78.9099 24.3008 79.7068 23.4219C80.5095 22.543 81.6668 22.1035 83.1785 22.1035C84.2039 22.1035 85.1267 22.2939 85.947 22.6748L85.323 24.3359C84.45 23.9961 83.7293 23.8262 83.1609 23.8262C81.4793 23.8262 80.6384 24.9424 80.6384 27.1748C80.6384 28.2646 80.8464 29.085 81.2625 29.6357C81.6843 30.1807 82.2996 30.4531 83.1082 30.4531C84.0281 30.4531 84.8982 30.2246 85.7185 29.7676V31.5693C85.3494 31.7861 84.9539 31.9414 84.532 32.0352C84.116 32.1289 83.6091 32.1758 83.0115 32.1758ZM94.9474 22.2793V23.8965H91.7833V32H89.7091V23.8965H86.545V22.2793H94.9474ZM101.39 32.1758C100.16 32.1758 99.2046 31.7334 98.5249 30.8486H98.4018C98.4839 31.6689 98.5249 32.167 98.5249 32.3428V36.3242H96.4595V22.2793H98.1294C98.1763 22.4609 98.2729 22.8945 98.4194 23.5801H98.5249C99.1694 22.5957 100.136 22.1035 101.425 22.1035C102.638 22.1035 103.582 22.543 104.255 23.4219C104.935 24.3008 105.275 25.5342 105.275 27.1221C105.275 28.71 104.929 29.9492 104.238 30.8398C103.552 31.7305 102.603 32.1758 101.39 32.1758ZM100.889 23.791C100.069 23.791 99.4682 24.0312 99.0874 24.5117C98.7124 24.9922 98.5249 25.7598 98.5249 26.8145V27.1221C98.5249 28.3057 98.7124 29.1641 99.0874 29.6973C99.4624 30.2246 100.075 30.4883 100.924 30.4883C101.639 30.4883 102.19 30.1953 102.577 29.6094C102.963 29.0234 103.157 28.1885 103.157 27.1045C103.157 26.0146 102.963 25.1914 102.577 24.6348C102.196 24.0723 101.633 23.791 100.889 23.791ZM113.396 32L112.983 30.6465H112.913C112.444 31.2383 111.972 31.6426 111.498 31.8594C111.023 32.0703 110.414 32.1758 109.67 32.1758C108.715 32.1758 107.968 31.918 107.429 31.4023C106.895 30.8867 106.629 30.1572 106.629 29.2139C106.629 28.2119 107.001 27.4561 107.745 26.9463C108.489 26.4365 109.623 26.1582 111.146 26.1113L112.825 26.0586V25.54C112.825 24.9189 112.679 24.4561 112.386 24.1514C112.098 23.8408 111.65 23.6855 111.041 23.6855C110.543 23.6855 110.065 23.7588 109.608 23.9053C109.151 24.0518 108.712 24.2246 108.29 24.4238L107.622 22.9473C108.149 22.6719 108.726 22.4639 109.353 22.3232C109.98 22.1768 110.572 22.1035 111.129 22.1035C112.365 22.1035 113.297 22.373 113.924 22.9121C114.556 23.4512 114.873 24.2979 114.873 25.4521V32H113.396ZM110.32 30.5938C111.07 30.5938 111.671 30.3857 112.122 29.9697C112.579 29.5479 112.807 28.959 112.807 28.2031V27.3594L111.559 27.4121C110.587 27.4473 109.878 27.6113 109.432 27.9043C108.993 28.1914 108.773 28.6338 108.773 29.2314C108.773 29.665 108.902 30.002 109.16 30.2422C109.418 30.4766 109.805 30.5938 110.32 30.5938ZM119.461 22.2793V26.1816H124.04V22.2793H126.106V32H124.04V27.8076H119.461V32H117.396V22.2793H119.461ZM130.773 22.2793V26.1816H135.352V22.2793H137.418V32H135.352V27.8076H130.773V32H128.708V22.2793H130.773ZM142.085 26.1641H144.054C145.413 26.1641 146.418 26.3984 147.068 26.8672C147.719 27.3359 148.044 28.0391 148.044 28.9766C148.044 29.9785 147.704 30.7344 147.024 31.2441C146.351 31.748 145.36 32 144.054 32H140.019V22.2793H142.085V26.1641ZM145.996 29.0293C145.996 28.543 145.814 28.2031 145.451 28.0098C145.094 27.8164 144.578 27.7197 143.904 27.7197H142.085V30.4707H143.641C144.473 30.4707 145.073 30.3535 145.442 30.1191C145.811 29.8848 145.996 29.5215 145.996 29.0293ZM151.647 32H149.573V22.2793H151.647V32ZM158.494 32.1758C156.983 32.1758 155.799 31.7363 154.944 30.8574C154.094 29.9727 153.669 28.7568 153.669 27.21C153.669 25.6221 154.065 24.374 154.856 23.4658C155.647 22.5576 156.734 22.1035 158.116 22.1035C159.4 22.1035 160.413 22.4932 161.158 23.2725C161.902 24.0518 162.274 25.124 162.274 26.4893V27.6055H155.796C155.825 28.5488 156.08 29.2754 156.561 29.7852C157.041 30.2891 157.718 30.541 158.591 30.541C159.165 30.541 159.699 30.4883 160.191 30.3828C160.689 30.2715 161.222 30.0898 161.79 29.8379V31.5166C161.286 31.7568 160.777 31.9268 160.261 32.0264C159.745 32.126 159.157 32.1758 158.494 32.1758ZM158.116 23.668C157.46 23.668 156.933 23.876 156.534 24.292C156.142 24.708 155.908 25.3145 155.831 26.1113H160.243C160.232 25.3086 160.038 24.7021 159.663 24.292C159.288 23.876 158.773 23.668 158.116 23.668ZM174.86 22.2793V23.8965H170.642V32H168.576V22.2793H174.86ZM184.995 27.1221C184.995 28.71 184.587 29.9492 183.773 30.8398C182.958 31.7305 181.825 32.1758 180.371 32.1758C179.463 32.1758 178.661 31.9707 177.963 31.5605C177.266 31.1504 176.73 30.5615 176.355 29.7939C175.98 29.0264 175.792 28.1357 175.792 27.1221C175.792 25.5459 176.197 24.3154 177.005 23.4307C177.814 22.5459 178.953 22.1035 180.424 22.1035C181.83 22.1035 182.944 22.5576 183.764 23.4658C184.584 24.3682 184.995 25.5869 184.995 27.1221ZM177.919 27.1221C177.919 29.3662 178.748 30.4883 180.407 30.4883C182.047 30.4883 182.868 29.3662 182.868 27.1221C182.868 24.9014 182.041 23.791 180.389 23.791C179.522 23.791 178.892 24.0781 178.499 24.6523C178.113 25.2266 177.919 26.0498 177.919 27.1221ZM190.936 32.1758C189.466 32.1758 188.346 31.748 187.579 30.8926C186.817 30.0312 186.436 28.7979 186.436 27.1924C186.436 25.5576 186.835 24.3008 187.632 23.4219C188.434 22.543 189.592 22.1035 191.103 22.1035C192.129 22.1035 193.051 22.2939 193.872 22.6748L193.248 24.3359C192.375 23.9961 191.654 23.8262 191.086 23.8262C189.404 23.8262 188.563 24.9424 188.563 27.1748C188.563 28.2646 188.771 29.085 189.187 29.6357C189.609 30.1807 190.224 30.4531 191.033 30.4531C191.953 30.4531 192.823 30.2246 193.643 29.7676V31.5693C193.274 31.7861 192.879 31.9414 192.457 32.0352C192.041 32.1289 191.534 32.1758 190.936 32.1758ZM202.872 22.2793V23.8965H199.708V32H197.634V23.8965H194.47V22.2793H202.872ZM206.362 22.2793V27.2627C206.362 27.8428 206.315 28.6953 206.221 29.8203L211.099 22.2793H213.622V32H211.635V27.1045C211.635 26.835 211.65 26.3984 211.679 25.7949C211.714 25.1914 211.744 24.752 211.767 24.4766L206.907 32H204.384V22.2793H206.362ZM219.045 22.2793H221.295L223.273 27.79C223.571 28.5752 223.771 29.3135 223.87 30.0049H223.941C223.993 29.6826 224.09 29.293 224.231 28.8359C224.371 28.373 225.115 26.1875 226.463 22.2793H228.695L224.538 33.292C223.782 35.3135 222.523 36.3242 220.759 36.3242C220.302 36.3242 219.857 36.2744 219.423 36.1748V34.54C219.734 34.6104 220.088 34.6455 220.486 34.6455C221.483 34.6455 222.183 34.0684 222.587 32.9141L222.947 32L219.045 22.2793ZM238.25 24.7666C238.25 25.915 237.579 26.6094 236.237 26.8496V26.9199C236.987 27.0078 237.561 27.2451 237.96 27.6318C238.358 28.0186 238.557 28.5195 238.557 29.1348C238.557 30.0547 238.206 30.7637 237.502 31.2617C236.805 31.7539 235.789 32 234.453 32H229.812V22.2793H234.435C236.978 22.2793 238.25 23.1084 238.25 24.7666ZM236.439 29.0117C236.439 28.543 236.257 28.2119 235.894 28.0186C235.531 27.8193 234.986 27.7197 234.259 27.7197H231.877V30.4707H234.312C235.73 30.4707 236.439 29.9844 236.439 29.0117ZM236.184 24.9424C236.184 24.5557 236.032 24.2773 235.727 24.1074C235.428 23.9316 234.98 23.8438 234.382 23.8438H231.877V26.1816H234.075C234.766 26.1816 235.291 26.0938 235.648 25.918C236.005 25.7363 236.184 25.4111 236.184 24.9424ZM242.31 22.2793V27.2627C242.31 27.8428 242.264 28.6953 242.17 29.8203L247.048 22.2793H249.57V32H247.584V27.1045C247.584 26.835 247.599 26.3984 247.628 25.7949C247.663 25.1914 247.692 24.752 247.716 24.4766L242.855 32H240.333V22.2793H242.31ZM261.48 35.4365H259.555V32H252.893V35.4365H250.986V30.4004H251.777C252.468 29.4102 253.016 28.2148 253.42 26.8145C253.83 25.4082 254.073 23.8965 254.15 22.2793H260.056V30.4004H261.48V35.4365ZM258.026 30.4004V23.8613H255.934C255.823 25.0684 255.588 26.2578 255.231 27.4297C254.879 28.6016 254.448 29.5918 253.939 30.4004H258.026ZM263.915 32H261.603L264.31 28.0186C263.654 27.8311 263.138 27.4971 262.763 27.0166C262.388 26.5303 262.201 25.9297 262.201 25.2148C262.201 24.2949 262.529 23.5771 263.185 23.0615C263.841 22.54 264.738 22.2793 265.875 22.2793H270.304V32H268.23V28.2559H266.27L263.915 32ZM264.213 25.2324C264.213 25.7305 264.401 26.1055 264.776 26.3574C265.157 26.6035 265.667 26.7266 266.305 26.7266H268.23V23.8438H265.98C265.418 23.8438 264.981 23.9639 264.671 24.2041C264.366 24.4443 264.213 24.7871 264.213 25.2324ZM280.201 22.2793V23.8965H277.037V32H274.963V23.8965H271.799V22.2793H280.201ZM45.4681 47.2793V52.2627C45.4681 52.8428 45.4212 53.6953 45.3275 54.8203L50.2054 47.2793H52.7279V57H50.7416V52.1045C50.7416 51.835 50.7562 51.3984 50.7855 50.7949C50.8207 50.1914 50.85 49.752 50.8734 49.4766L46.013 57H43.4906V47.2793H45.4681ZM57.3777 47.2793V51.1816H61.9568V47.2793H64.0222V57H61.9568V52.8076H57.3777V57H55.3122V47.2793H57.3777ZM73.9278 47.2793V48.8965H70.7637V57H68.6895V48.8965H65.5255V47.2793H73.9278ZM79.685 57.1758C78.1733 57.1758 76.9897 56.7363 76.1342 55.8574C75.2846 54.9727 74.8598 53.7568 74.8598 52.21C74.8598 50.6221 75.2553 49.374 76.0463 48.4658C76.8373 47.5576 77.9243 47.1035 79.3071 47.1035C80.5903 47.1035 81.6039 47.4932 82.3481 48.2725C83.0922 49.0518 83.4643 50.124 83.4643 51.4893V52.6055H76.9868C77.0161 53.5488 77.2709 54.2754 77.7514 54.7852C78.2319 55.2891 78.9086 55.541 79.7817 55.541C80.3559 55.541 80.8891 55.4883 81.3813 55.3828C81.8793 55.2715 82.4125 55.0898 82.9809 54.8379V56.5166C82.477 56.7568 81.9672 56.9268 81.4516 57.0264C80.936 57.126 80.3471 57.1758 79.685 57.1758ZM79.3071 48.668C78.6508 48.668 78.1235 48.876 77.725 49.292C77.3325 49.708 77.0981 50.3145 77.0219 51.1113H81.434C81.4223 50.3086 81.2289 49.7021 80.8539 49.292C80.4789 48.876 79.9633 48.668 79.3071 48.668ZM90.3816 57.1758C89.1512 57.1758 88.1961 56.7334 87.5164 55.8486H87.3934C87.4754 56.6689 87.5164 57.167 87.5164 57.3428V61.3242H85.451V47.2793H87.1209C87.1678 47.4609 87.2645 47.8945 87.4109 48.5801H87.5164C88.1609 47.5957 89.1277 47.1035 90.4168 47.1035C91.6297 47.1035 92.573 47.543 93.2469 48.4219C93.9266 49.3008 94.2664 50.5342 94.2664 52.1221C94.2664 53.71 93.9207 54.9492 93.2293 55.8398C92.5438 56.7305 91.5945 57.1758 90.3816 57.1758ZM89.8807 48.791C89.0604 48.791 88.4598 49.0312 88.0789 49.5117C87.7039 49.9922 87.5164 50.7598 87.5164 51.8145V52.1221C87.5164 53.3057 87.7039 54.1641 88.0789 54.6973C88.4539 55.2246 89.0662 55.4883 89.9158 55.4883C90.6307 55.4883 91.1814 55.1953 91.5682 54.6094C91.9549 54.0234 92.1482 53.1885 92.1482 52.1045C92.1482 51.0146 91.9549 50.1914 91.5682 49.6348C91.1873 49.0723 90.6248 48.791 89.8807 48.791ZM107.679 52.1396C107.679 53.5986 107.236 54.7617 106.352 55.6289C105.473 56.4961 104.254 56.9883 102.695 57.1055V61.3242H100.736V57.1055C99.1945 56.9883 97.9728 56.4902 97.0705 55.6113C96.174 54.7266 95.7257 53.5693 95.7257 52.1396C95.7257 50.6572 96.1623 49.4883 97.0353 48.6328C97.9084 47.7715 99.1476 47.2852 100.753 47.1738V43.3242H102.695V47.1738C104.254 47.3145 105.473 47.8213 106.352 48.6943C107.236 49.5674 107.679 50.7158 107.679 52.1396ZM97.8703 52.1396C97.8703 53.1006 98.1105 53.874 98.591 54.46C99.0714 55.0459 99.7921 55.3887 100.753 55.4883V48.791C99.7863 48.9023 99.0627 49.248 98.5822 49.8281C98.1076 50.4082 97.8703 51.1787 97.8703 52.1396ZM105.543 52.1396C105.543 51.1904 105.303 50.4287 104.822 49.8545C104.348 49.2803 103.639 48.9375 102.695 48.8262V55.4883C103.651 55.377 104.362 55.0312 104.831 54.4512C105.306 53.8652 105.543 53.0947 105.543 52.1396ZM113.955 57.1758C112.443 57.1758 111.259 56.7363 110.404 55.8574C109.554 54.9727 109.129 53.7568 109.129 52.21C109.129 50.6221 109.525 49.374 110.316 48.4658C111.107 47.5576 112.194 47.1035 113.577 47.1035C114.86 47.1035 115.874 47.4932 116.618 48.2725C117.362 49.0518 117.734 50.124 117.734 51.4893V52.6055H111.256C111.286 53.5488 111.541 54.2754 112.021 54.7852C112.501 55.2891 113.178 55.541 114.051 55.541C114.626 55.541 115.159 55.4883 115.651 55.3828C116.149 55.2715 116.682 55.0898 117.251 54.8379V56.5166C116.747 56.7568 116.237 56.9268 115.721 57.0264C115.206 57.126 114.617 57.1758 113.955 57.1758ZM113.577 48.668C112.92 48.668 112.393 48.876 111.995 49.292C111.602 49.708 111.368 50.3145 111.292 51.1113H115.704C115.692 50.3086 115.499 49.7021 115.124 49.292C114.749 48.876 114.233 48.668 113.577 48.668ZM121.698 47.2793V52.2627C121.698 52.8428 121.651 53.6953 121.558 54.8203L126.435 47.2793H128.958V57H126.972V52.1045C126.972 51.835 126.986 51.3984 127.016 50.7949C127.051 50.1914 127.08 49.752 127.103 49.4766L122.243 57H119.721V47.2793H121.698ZM124.273 46.0928C123.031 46.0928 122.12 45.8701 121.54 45.4248C120.966 44.9736 120.646 44.2236 120.582 43.1748H122.454C122.489 43.5967 122.568 43.9248 122.691 44.1592C122.82 44.3936 123.002 44.5635 123.236 44.6689C123.476 44.7686 123.84 44.8184 124.326 44.8184C124.9 44.8184 125.337 44.6924 125.636 44.4404C125.934 44.1826 126.116 43.7607 126.181 43.1748H128.088C128 44.1826 127.645 44.9209 127.024 45.3896C126.403 45.8584 125.486 46.0928 124.273 46.0928ZM135.462 57.1758C133.991 57.1758 132.872 56.748 132.105 55.8926C131.343 55.0312 130.962 53.7979 130.962 52.1924C130.962 50.5576 131.361 49.3008 132.157 48.4219C132.96 47.543 134.117 47.1035 135.629 47.1035C136.655 47.1035 137.577 47.2939 138.398 47.6748L137.774 49.3359C136.901 48.9961 136.18 48.8262 135.612 48.8262C133.93 48.8262 133.089 49.9424 133.089 52.1748C133.089 53.2646 133.297 54.085 133.713 54.6357C134.135 55.1807 134.75 55.4531 135.559 55.4531C136.479 55.4531 137.349 55.2246 138.169 54.7676V56.5693C137.8 56.7861 137.405 56.9414 136.983 57.0352C136.567 57.1289 136.06 57.1758 135.462 57.1758ZM146.476 47.2793V51.1816H151.055V47.2793H153.12V57H151.055V52.8076H146.476V57H144.41V47.2793H146.476ZM161.804 57L161.391 55.6465H161.321C160.852 56.2383 160.38 56.6426 159.906 56.8594C159.431 57.0703 158.822 57.1758 158.077 57.1758C157.122 57.1758 156.375 56.918 155.836 56.4023C155.303 55.8867 155.036 55.1572 155.036 54.2139C155.036 53.2119 155.409 52.4561 156.153 51.9463C156.897 51.4365 158.031 51.1582 159.554 51.1113L161.233 51.0586V50.54C161.233 49.9189 161.086 49.4561 160.793 49.1514C160.506 48.8408 160.058 48.6855 159.449 48.6855C158.951 48.6855 158.473 48.7588 158.016 48.9053C157.559 49.0518 157.119 49.2246 156.698 49.4238L156.03 47.9473C156.557 47.6719 157.134 47.4639 157.761 47.3232C158.388 47.1768 158.98 47.1035 159.536 47.1035C160.773 47.1035 161.704 47.373 162.331 47.9121C162.964 48.4512 163.281 49.2979 163.281 50.4521V57H161.804ZM158.728 55.5938C159.478 55.5938 160.078 55.3857 160.53 54.9697C160.987 54.5479 161.215 53.959 161.215 53.2031V52.3594L159.967 52.4121C158.994 52.4473 158.285 52.6113 157.84 52.9043C157.401 53.1914 157.181 53.6338 157.181 54.2314C157.181 54.665 157.31 55.002 157.568 55.2422C157.826 55.4766 158.212 55.5938 158.728 55.5938ZM174.039 57.1758C172.568 57.1758 171.449 56.748 170.682 55.8926C169.92 55.0312 169.539 53.7979 169.539 52.1924C169.539 50.5576 169.938 49.3008 170.734 48.4219C171.537 47.543 172.694 47.1035 174.206 47.1035C175.231 47.1035 176.154 47.2939 176.975 47.6748L176.351 49.3359C175.478 48.9961 174.757 48.8262 174.189 48.8262C172.507 48.8262 171.666 49.9424 171.666 52.1748C171.666 53.2646 171.874 54.085 172.29 54.6357C172.712 55.1807 173.327 55.4531 174.136 55.4531C175.056 55.4531 175.926 55.2246 176.746 54.7676V56.5693C176.377 56.7861 175.981 56.9414 175.56 57.0352C175.144 57.1289 174.637 57.1758 174.039 57.1758ZM187.109 49.7666C187.109 50.915 186.438 51.6094 185.096 51.8496V51.9199C185.846 52.0078 186.42 52.2451 186.819 52.6318C187.217 53.0186 187.416 53.5195 187.416 54.1348C187.416 55.0547 187.065 55.7637 186.362 56.2617C185.664 56.7539 184.648 57 183.312 57H178.671V47.2793H183.294C185.837 47.2793 187.109 48.1084 187.109 49.7666ZM185.298 54.0117C185.298 53.543 185.117 53.2119 184.753 53.0186C184.39 52.8193 183.845 52.7197 183.119 52.7197H180.737V55.4707H183.171C184.589 55.4707 185.298 54.9844 185.298 54.0117ZM185.043 49.9424C185.043 49.5557 184.891 49.2773 184.586 49.1074C184.288 48.9316 183.839 48.8438 183.242 48.8438H180.737V51.1816H182.934C183.625 51.1816 184.15 51.0938 184.507 50.918C184.865 50.7363 185.043 50.4111 185.043 49.9424ZM197.814 52.1221C197.814 53.71 197.407 54.9492 196.593 55.8398C195.778 56.7305 194.644 57.1758 193.191 57.1758C192.283 57.1758 191.48 56.9707 190.783 56.5605C190.086 56.1504 189.55 55.5615 189.175 54.7939C188.8 54.0264 188.612 53.1357 188.612 52.1221C188.612 50.5459 189.016 49.3154 189.825 48.4307C190.634 47.5459 191.773 47.1035 193.244 47.1035C194.65 47.1035 195.763 47.5576 196.584 48.4658C197.404 49.3682 197.814 50.5869 197.814 52.1221ZM190.739 52.1221C190.739 54.3662 191.568 55.4883 193.226 55.4883C194.867 55.4883 195.687 54.3662 195.687 52.1221C195.687 49.9014 194.861 48.791 193.209 48.791C192.342 48.791 191.712 49.0781 191.319 49.6523C190.932 50.2266 190.739 51.0498 190.739 52.1221ZM204.081 57.1758C202.569 57.1758 201.386 56.7363 200.53 55.8574C199.681 54.9727 199.256 53.7568 199.256 52.21C199.256 50.6221 199.651 49.374 200.443 48.4658C201.234 47.5576 202.32 47.1035 203.703 47.1035C204.986 47.1035 206 47.4932 206.744 48.2725C207.488 49.0518 207.86 50.124 207.86 51.4893V52.6055H201.383C201.412 53.5488 201.667 54.2754 202.148 54.7852C202.628 55.2891 203.305 55.541 204.178 55.541C204.752 55.541 205.285 55.4883 205.777 55.3828C206.276 55.2715 206.809 55.0898 207.377 54.8379V56.5166C206.873 56.7568 206.363 56.9268 205.848 57.0264C205.332 57.126 204.743 57.1758 204.081 57.1758ZM203.703 48.668C203.047 48.668 202.52 48.876 202.121 49.292C201.729 49.708 201.494 50.3145 201.418 51.1113H205.83C205.818 50.3086 205.625 49.7021 205.25 49.292C204.875 48.876 204.359 48.668 203.703 48.668ZM200.97 44.7041C200.97 44.3408 201.067 44.0801 201.26 43.9219C201.459 43.7578 201.699 43.6758 201.981 43.6758C202.291 43.6758 202.537 43.7666 202.719 43.9482C202.906 44.1299 203 44.3818 203 44.7041C203 45.0146 202.906 45.2637 202.719 45.4512C202.531 45.6387 202.285 45.7324 201.981 45.7324C201.699 45.7324 201.459 45.6475 201.26 45.4775C201.067 45.3076 200.97 45.0498 200.97 44.7041ZM204.424 44.7041C204.424 44.3408 204.521 44.0801 204.714 43.9219C204.913 43.7578 205.153 43.6758 205.435 43.6758C205.745 43.6758 205.994 43.7666 206.182 43.9482C206.369 44.1299 206.463 44.3818 206.463 44.7041C206.463 45.0205 206.366 45.2725 206.173 45.46C205.98 45.6416 205.734 45.7324 205.435 45.7324C205.153 45.7324 204.913 45.6475 204.714 45.4775C204.521 45.3076 204.424 45.0498 204.424 44.7041ZM215.428 55.0225L215.542 54.6006C215.783 53.7275 215.991 53.0566 216.166 52.5879L218.346 47.2793H221.097V57H219.19V49.1514L219.032 49.6787C218.768 50.6221 218.545 51.3164 218.364 51.7617L216.237 57H214.672L212.545 51.7266C212.252 50.9648 211.983 50.1064 211.737 49.1514V57H209.847V47.2793H212.581L214.69 52.4297C214.877 52.9043 215.124 53.7686 215.428 55.0225ZM228.999 57H226.688L229.395 53.0186C228.738 52.8311 228.223 52.4971 227.848 52.0166C227.473 51.5303 227.285 50.9297 227.285 50.2148C227.285 49.2949 227.613 48.5771 228.27 48.0615C228.926 47.54 229.822 47.2793 230.959 47.2793H235.389V57H233.315V53.2559H231.355L228.999 57ZM229.298 50.2324C229.298 50.7305 229.486 51.1055 229.861 51.3574C230.241 51.6035 230.751 51.7266 231.39 51.7266H233.315V48.8438H231.065C230.502 48.8438 230.066 48.9639 229.755 49.2041C229.45 49.4443 229.298 49.7871 229.298 50.2324ZM240.127 51.1641C241.07 51.1641 241.764 51.0615 242.21 50.8564C242.655 50.6455 242.878 50.3232 242.878 49.8896C242.878 49.0986 242.174 48.7031 240.768 48.7031C239.831 48.7031 238.873 48.9141 237.894 49.3359L237.226 47.7979C238.357 47.335 239.605 47.1035 240.97 47.1035C242.177 47.1035 243.115 47.3262 243.783 47.7715C244.451 48.2109 244.785 48.8438 244.785 49.6699C244.785 50.7598 244.161 51.4746 242.913 51.8145V51.8848C243.692 52.0957 244.249 52.3975 244.583 52.79C244.922 53.1826 245.092 53.6689 245.092 54.249C245.092 55.1396 244.7 55.8516 243.915 56.3848C243.135 56.9121 242.045 57.1758 240.645 57.1758C239.116 57.1758 237.947 56.9736 237.138 56.5693V54.7852C238.211 55.2891 239.321 55.541 240.469 55.541C241.295 55.541 241.931 55.4268 242.377 55.1982C242.828 54.9639 243.053 54.6094 243.053 54.1348C243.053 53.6484 242.828 53.291 242.377 53.0625C241.925 52.834 241.228 52.7197 240.285 52.7197H239.098V51.1641H240.127ZM249.039 51.1641H251.008C252.367 51.1641 253.372 51.3984 254.022 51.8672C254.673 52.3359 254.998 53.0391 254.998 53.9766C254.998 54.9785 254.658 55.7344 253.978 56.2441C253.305 56.748 252.314 57 251.008 57H246.974V47.2793H249.039V51.1641ZM252.95 54.0293C252.95 53.543 252.768 53.2031 252.405 53.0098C252.048 52.8164 251.532 52.7197 250.858 52.7197H249.039V55.4707H250.595C251.427 55.4707 252.027 55.3535 252.396 55.1191C252.766 54.8848 252.95 54.5215 252.95 54.0293ZM258.601 57H256.527V47.2793H258.601V57ZM267.233 47.2793H269.5L265.484 51.9639L269.843 57H267.47L263.269 52.0693V57H261.203V47.2793H263.269V51.999L267.233 47.2793ZM275.337 57.1758C273.825 57.1758 272.641 56.7363 271.786 55.8574C270.936 54.9727 270.511 53.7568 270.511 52.21C270.511 50.6221 270.907 49.374 271.698 48.4658C272.489 47.5576 273.576 47.1035 274.959 47.1035C276.242 47.1035 277.256 47.4932 278 48.2725C278.744 49.0518 279.116 50.124 279.116 51.4893V52.6055H272.638C272.668 53.5488 272.923 54.2754 273.403 54.7852C273.883 55.2891 274.56 55.541 275.433 55.541C276.007 55.541 276.541 55.4883 277.033 55.3828C277.531 55.2715 278.064 55.0898 278.632 54.8379V56.5166C278.129 56.7568 277.619 56.9268 277.103 57.0264C276.588 57.126 275.999 57.1758 275.337 57.1758ZM274.959 48.668C274.302 48.668 273.775 48.876 273.377 49.292C272.984 49.708 272.75 50.3145 272.673 51.1113H277.086C277.074 50.3086 276.881 49.7021 276.506 49.292C276.131 48.876 275.615 48.668 274.959 48.668Z" fill="white"/>
</svg>
