<svg width="24" height="25" viewBox="0 0 24 25" fill="none" xmlns="http://www.w3.org/2000/svg">
<g id="24 / shopping / bascket">
<path id="icon" fill-rule="evenodd" clip-rule="evenodd" d="M4 9.49997H5.99978C6.00007 9.86652 6.20262 10.2193 6.55279 10.3944C7.04676 10.6414 7.64744 10.4412 7.89443 9.94719L8.11803 9.49997H15.882L16.1056 9.94719C16.3526 10.4412 16.9532 10.6414 17.4472 10.3944C17.7974 10.2193 17.9999 9.86652 18.0002 9.49997H20V11.5H4V9.49997ZM17.118 7.49997H20C21.1046 7.49997 22 8.39541 22 9.49997V11.5C22 12.34 21.4821 13.0591 20.7482 13.3553C20.7516 13.4031 20.7534 13.4513 20.7534 13.5C20.7534 13.6459 20.7374 13.7914 20.7058 13.9338L19.1502 20.9338C18.9469 21.8489 18.1352 22.5 17.1978 22.5H6.80217C5.86477 22.5 5.05315 21.8489 4.8498 20.9338L3.29424 13.9338C3.25095 13.739 3.23767 13.5445 3.25134 13.3551C2.51767 13.0588 2 12.3398 2 11.5V9.49997C2 8.39541 2.89543 7.49997 4 7.49997H6.88197L9.10557 3.05276C9.35256 2.55878 9.95323 2.35856 10.4472 2.60555C10.9412 2.85254 11.1414 3.45321 10.8944 3.94719L9.11803 7.49997H14.882L13.1056 3.94719C12.8586 3.45321 13.0588 2.85254 13.5528 2.60555C14.0468 2.35856 14.6474 2.55878 14.8944 3.05276L17.118 7.49997ZM5.24662 13.5H18.7534L17.1978 20.5H6.80217L5.24662 13.5Z" fill="white"/>
</g>
</svg>
