<svg width="687" height="446" viewBox="0 0 687 446" fill="none" xmlns="http://www.w3.org/2000/svg">
<rect x="2.5" y="2.5" width="682" height="441" rx="13.5" fill="#F5F7F9" stroke="#EEEEEE" stroke-width="5"/>
<path d="M53.5717 352.88V352.206C54.2064 352.144 54.6491 352.042 54.8998 351.898C55.1505 351.752 55.3376 351.408 55.4613 350.868H56.1547V357.831H55.2172V352.88H53.5717ZM58.4935 357.831C58.5261 357.229 58.6498 356.705 58.8646 356.259C59.0827 355.813 59.5059 355.407 60.1342 355.043L61.0717 354.501C61.4916 354.257 61.7862 354.048 61.9555 353.876C62.2224 353.606 62.3559 353.296 62.3559 352.948C62.3559 352.541 62.2338 352.219 61.9896 351.981C61.7455 351.74 61.42 351.62 61.0131 351.62C60.4109 351.62 59.9942 351.848 59.7631 352.304C59.6394 352.548 59.571 352.886 59.558 353.319H58.6644C58.6742 352.71 58.7865 352.214 59.0014 351.83C59.3822 351.153 60.0544 350.814 61.018 350.814C61.8187 350.814 62.4031 351.031 62.7709 351.464C63.142 351.897 63.3275 352.378 63.3275 352.909C63.3275 353.469 63.1306 353.947 62.7367 354.345C62.5088 354.576 62.1003 354.856 61.5111 355.184L60.8422 355.556C60.5232 355.731 60.2725 355.899 60.0902 356.058C59.7647 356.342 59.5596 356.656 59.475 357.001H63.2934V357.831H58.4935ZM64.6019 356.766H65.6225V357.831H64.6019V356.766ZM69.2357 350.839C70.1407 350.839 70.795 351.211 71.1986 351.957C71.5111 352.533 71.6674 353.322 71.6674 354.325C71.6674 355.276 71.5258 356.062 71.2426 356.683C70.8324 357.575 70.1618 358.021 69.2309 358.021C68.391 358.021 67.766 357.657 67.3559 356.928C67.0141 356.319 66.8432 355.502 66.8432 354.476C66.8432 353.682 66.9457 353 67.1508 352.431C67.5349 351.369 68.2299 350.839 69.2357 350.839ZM69.226 357.221C69.6817 357.221 70.0447 357.019 70.3148 356.615C70.585 356.211 70.7201 355.46 70.7201 354.359C70.7201 353.565 70.6225 352.912 70.4271 352.401C70.2318 351.887 69.8526 351.63 69.2894 351.63C68.7719 351.63 68.3926 351.874 68.1518 352.362C67.9141 352.847 67.7953 353.563 67.7953 354.511C67.7953 355.224 67.8718 355.796 68.0248 356.229C68.2592 356.89 68.6596 357.221 69.226 357.221ZM74.8168 353.768C75.2042 353.768 75.5069 353.661 75.725 353.446C75.9431 353.228 76.0521 352.969 76.0521 352.67C76.0521 352.409 75.948 352.17 75.7396 351.952C75.5313 351.734 75.2139 351.625 74.7875 351.625C74.3643 351.625 74.0583 351.734 73.8695 351.952C73.6807 352.17 73.5863 352.426 73.5863 352.719C73.5863 353.047 73.7084 353.305 73.9525 353.49C74.1967 353.676 74.4848 353.768 74.8168 353.768ZM74.8705 357.23C75.2774 357.23 75.6143 357.121 75.8812 356.903C76.1514 356.682 76.2865 356.353 76.2865 355.917C76.2865 355.464 76.1482 355.121 75.8715 354.887C75.5948 354.652 75.24 354.535 74.807 354.535C74.3871 354.535 74.0437 354.655 73.7768 354.896C73.5131 355.134 73.3812 355.464 73.3812 355.888C73.3812 356.252 73.5017 356.568 73.7426 356.835C73.9867 357.099 74.3627 357.23 74.8705 357.23ZM73.6205 354.105C73.3764 354.001 73.1859 353.879 73.0492 353.739C72.7921 353.479 72.6635 353.14 72.6635 352.724C72.6635 352.203 72.8523 351.755 73.2299 351.381C73.6075 351.006 74.143 350.819 74.8363 350.819C75.5069 350.819 76.0326 350.997 76.4135 351.351C76.7943 351.703 76.9848 352.115 76.9848 352.587C76.9848 353.023 76.8741 353.376 76.6527 353.646C76.529 353.799 76.337 353.949 76.0766 354.096C76.3663 354.229 76.5941 354.382 76.7602 354.555C77.0694 354.88 77.224 355.303 77.224 355.824C77.224 356.439 77.0173 356.962 76.6039 357.391C76.1905 357.818 75.6062 358.031 74.851 358.031C74.1706 358.031 73.5945 357.847 73.1225 357.479C72.6537 357.108 72.4193 356.571 72.4193 355.868C72.4193 355.455 72.5202 355.098 72.7221 354.799C72.9239 354.496 73.2234 354.265 73.6205 354.105Z" fill="#A3A3A3"/>
<path d="M203.762 352.88V352.206C204.396 352.144 204.839 352.042 205.09 351.898C205.34 351.752 205.528 351.408 205.651 350.868H206.345V357.831H205.407V352.88H203.762ZM213.601 350.956V351.723C213.376 351.941 213.076 352.32 212.702 352.86C212.331 353.401 212.002 353.983 211.716 354.608C211.433 355.217 211.218 355.772 211.071 356.273C210.977 356.596 210.855 357.115 210.705 357.831H209.733C209.955 356.496 210.443 355.168 211.198 353.847C211.644 353.072 212.113 352.403 212.604 351.84H208.737V350.956H213.601ZM214.792 356.766H215.812V357.831H214.792V356.766ZM219.426 350.839C220.331 350.839 220.985 351.211 221.389 351.957C221.701 352.533 221.857 353.322 221.857 354.325C221.857 355.276 221.716 356.062 221.433 356.683C221.022 357.575 220.352 358.021 219.421 358.021C218.581 358.021 217.956 357.657 217.546 356.928C217.204 356.319 217.033 355.502 217.033 354.476C217.033 353.682 217.136 353 217.341 352.431C217.725 351.369 218.42 350.839 219.426 350.839ZM219.416 357.221C219.872 357.221 220.235 357.019 220.505 356.615C220.775 356.211 220.91 355.46 220.91 354.359C220.91 353.565 220.812 352.912 220.617 352.401C220.422 351.887 220.043 351.63 219.479 351.63C218.962 351.63 218.583 351.874 218.342 352.362C218.104 352.847 217.985 353.563 217.985 354.511C217.985 355.224 218.062 355.796 218.215 356.229C218.449 356.89 218.85 357.221 219.416 357.221ZM225.007 353.768C225.394 353.768 225.697 353.661 225.915 353.446C226.133 353.228 226.242 352.969 226.242 352.67C226.242 352.409 226.138 352.17 225.93 351.952C225.721 351.734 225.404 351.625 224.977 351.625C224.554 351.625 224.248 351.734 224.06 351.952C223.871 352.17 223.776 352.426 223.776 352.719C223.776 353.047 223.898 353.305 224.143 353.49C224.387 353.676 224.675 353.768 225.007 353.768ZM225.061 357.23C225.467 357.23 225.804 357.121 226.071 356.903C226.341 356.682 226.477 356.353 226.477 355.917C226.477 355.464 226.338 355.121 226.061 354.887C225.785 354.652 225.43 354.535 224.997 354.535C224.577 354.535 224.234 354.655 223.967 354.896C223.703 355.134 223.571 355.464 223.571 355.888C223.571 356.252 223.692 356.568 223.933 356.835C224.177 357.099 224.553 357.23 225.061 357.23ZM223.811 354.105C223.566 354.001 223.376 353.879 223.239 353.739C222.982 353.479 222.853 353.14 222.853 352.724C222.853 352.203 223.042 351.755 223.42 351.381C223.797 351.006 224.333 350.819 225.026 350.819C225.697 350.819 226.223 350.997 226.603 351.351C226.984 351.703 227.175 352.115 227.175 352.587C227.175 353.023 227.064 353.376 226.843 353.646C226.719 353.799 226.527 353.949 226.267 354.096C226.556 354.229 226.784 354.382 226.95 354.555C227.259 354.88 227.414 355.303 227.414 355.824C227.414 356.439 227.207 356.962 226.794 357.391C226.38 357.818 225.796 358.031 225.041 358.031C224.361 358.031 223.784 357.847 223.312 357.479C222.844 357.108 222.609 356.571 222.609 355.868C222.609 355.455 222.71 355.098 222.912 354.799C223.114 354.496 223.413 354.265 223.811 354.105Z" fill="#A3A3A3"/>
<path d="M356.564 352.88V352.206C357.198 352.144 357.641 352.042 357.892 351.898C358.142 351.752 358.33 351.408 358.453 350.868H359.147V357.831H358.209V352.88H356.564ZM363.893 353.768C364.28 353.768 364.583 353.661 364.801 353.446C365.019 353.228 365.128 352.969 365.128 352.67C365.128 352.409 365.024 352.17 364.816 351.952C364.607 351.734 364.29 351.625 363.863 351.625C363.44 351.625 363.134 351.734 362.946 351.952C362.757 352.17 362.662 352.426 362.662 352.719C362.662 353.047 362.784 353.305 363.029 353.49C363.273 353.676 363.561 353.768 363.893 353.768ZM363.946 357.23C364.353 357.23 364.69 357.121 364.957 356.903C365.227 356.682 365.363 356.353 365.363 355.917C365.363 355.464 365.224 355.121 364.947 354.887C364.671 354.652 364.316 354.535 363.883 354.535C363.463 354.535 363.12 354.655 362.853 354.896C362.589 355.134 362.457 355.464 362.457 355.888C362.457 356.252 362.578 356.568 362.819 356.835C363.063 357.099 363.439 357.23 363.946 357.23ZM362.696 354.105C362.452 354.001 362.262 353.879 362.125 353.739C361.868 353.479 361.739 353.14 361.739 352.724C361.739 352.203 361.928 351.755 362.306 351.381C362.683 351.006 363.219 350.819 363.912 350.819C364.583 350.819 365.109 350.997 365.489 351.351C365.87 351.703 366.061 352.115 366.061 352.587C366.061 353.023 365.95 353.376 365.729 353.646C365.605 353.799 365.413 353.949 365.153 354.096C365.442 354.229 365.67 354.382 365.836 354.555C366.145 354.88 366.3 355.303 366.3 355.824C366.3 356.439 366.093 356.962 365.68 357.391C365.266 357.818 364.682 358.031 363.927 358.031C363.247 358.031 362.67 357.847 362.198 357.479C361.73 357.108 361.495 356.571 361.495 355.868C361.495 355.455 361.596 355.098 361.798 354.799C362 354.496 362.299 354.265 362.696 354.105ZM367.594 356.766H368.614V357.831H367.594V356.766ZM372.228 350.839C373.133 350.839 373.787 351.211 374.191 351.957C374.503 352.533 374.659 353.322 374.659 354.325C374.659 355.276 374.518 356.062 374.235 356.683C373.824 357.575 373.154 358.021 372.223 358.021C371.383 358.021 370.758 357.657 370.348 356.928C370.006 356.319 369.835 355.502 369.835 354.476C369.835 353.682 369.938 353 370.143 352.431C370.527 351.369 371.222 350.839 372.228 350.839ZM372.218 357.221C372.674 357.221 373.037 357.019 373.307 356.615C373.577 356.211 373.712 355.46 373.712 354.359C373.712 353.565 373.614 352.912 373.419 352.401C373.224 351.887 372.845 351.63 372.281 351.63C371.764 351.63 371.385 351.874 371.144 352.362C370.906 352.847 370.787 353.563 370.787 354.511C370.787 355.224 370.864 355.796 371.017 356.229C371.251 356.89 371.652 357.221 372.218 357.221ZM377.809 353.768C378.196 353.768 378.499 353.661 378.717 353.446C378.935 353.228 379.044 352.969 379.044 352.67C379.044 352.409 378.94 352.17 378.732 351.952C378.523 351.734 378.206 351.625 377.779 351.625C377.356 351.625 377.05 351.734 376.862 351.952C376.673 352.17 376.578 352.426 376.578 352.719C376.578 353.047 376.7 353.305 376.945 353.49C377.189 353.676 377.477 353.768 377.809 353.768ZM377.863 357.23C378.269 357.23 378.606 357.121 378.873 356.903C379.143 356.682 379.279 356.353 379.279 355.917C379.279 355.464 379.14 355.121 378.863 354.887C378.587 354.652 378.232 354.535 377.799 354.535C377.379 354.535 377.036 354.655 376.769 354.896C376.505 355.134 376.373 355.464 376.373 355.888C376.373 356.252 376.494 356.568 376.735 356.835C376.979 357.099 377.355 357.23 377.863 357.23ZM376.613 354.105C376.368 354.001 376.178 353.879 376.041 353.739C375.784 353.479 375.655 353.14 375.655 352.724C375.655 352.203 375.844 351.755 376.222 351.381C376.599 351.006 377.135 350.819 377.828 350.819C378.499 350.819 379.025 350.997 379.405 351.351C379.786 351.703 379.977 352.115 379.977 352.587C379.977 353.023 379.866 353.376 379.645 353.646C379.521 353.799 379.329 353.949 379.069 354.096C379.358 354.229 379.586 354.382 379.752 354.555C380.061 354.88 380.216 355.303 380.216 355.824C380.216 356.439 380.009 356.962 379.596 357.391C379.182 357.818 378.598 358.031 377.843 358.031C377.163 358.031 376.586 357.847 376.114 357.479C375.646 357.108 375.411 356.571 375.411 355.868C375.411 355.455 375.512 355.098 375.714 354.799C375.916 354.496 376.215 354.265 376.613 354.105Z" fill="#A3A3A3"/>
<path d="M511.867 356.141C511.893 356.627 512.08 356.962 512.429 357.147C512.608 357.245 512.809 357.294 513.034 357.294C513.454 357.294 513.812 357.12 514.108 356.771C514.404 356.42 514.614 355.709 514.738 354.638C514.543 354.947 514.3 355.165 514.011 355.292C513.724 355.416 513.415 355.477 513.083 355.477C512.409 355.477 511.875 355.267 511.481 354.848C511.091 354.428 510.895 353.887 510.895 353.226C510.895 352.592 511.089 352.033 511.476 351.552C511.864 351.07 512.435 350.829 513.19 350.829C514.209 350.829 514.912 351.288 515.3 352.206C515.514 352.71 515.622 353.342 515.622 354.1C515.622 354.957 515.493 355.715 515.236 356.376C514.81 357.476 514.087 358.026 513.068 358.026C512.385 358.026 511.865 357.847 511.511 357.489C511.156 357.131 510.978 356.682 510.978 356.141H511.867ZM513.2 354.706C513.548 354.706 513.866 354.592 514.152 354.364C514.442 354.133 514.587 353.731 514.587 353.158C514.587 352.644 514.456 352.261 514.196 352.011C513.939 351.757 513.61 351.63 513.21 351.63C512.78 351.63 512.438 351.775 512.184 352.064C511.934 352.351 511.808 352.735 511.808 353.217C511.808 353.672 511.919 354.035 512.14 354.306C512.362 354.572 512.715 354.706 513.2 354.706ZM516.96 356.766H517.98V357.831H516.96V356.766ZM521.594 350.839C522.498 350.839 523.153 351.211 523.556 351.957C523.869 352.533 524.025 353.322 524.025 354.325C524.025 355.276 523.884 356.062 523.6 356.683C523.19 357.575 522.52 358.021 521.589 358.021C520.749 358.021 520.124 357.657 519.714 356.928C519.372 356.319 519.201 355.502 519.201 354.476C519.201 353.682 519.304 353 519.509 352.431C519.893 351.369 520.588 350.839 521.594 350.839ZM521.584 357.221C522.04 357.221 522.402 357.019 522.673 356.615C522.943 356.211 523.078 355.46 523.078 354.359C523.078 353.565 522.98 352.912 522.785 352.401C522.59 351.887 522.21 351.63 521.647 351.63C521.13 351.63 520.75 351.874 520.51 352.362C520.272 352.847 520.153 353.563 520.153 354.511C520.153 355.224 520.23 355.796 520.383 356.229C520.617 356.89 521.017 357.221 521.584 357.221ZM525.783 356.141C525.809 356.627 525.996 356.962 526.345 357.147C526.524 357.245 526.725 357.294 526.95 357.294C527.37 357.294 527.728 357.12 528.024 356.771C528.32 356.42 528.53 355.709 528.654 354.638C528.459 354.947 528.216 355.165 527.927 355.292C527.64 355.416 527.331 355.477 526.999 355.477C526.325 355.477 525.791 355.267 525.397 354.848C525.007 354.428 524.811 353.887 524.811 353.226C524.811 352.592 525.005 352.033 525.392 351.552C525.78 351.07 526.351 350.829 527.106 350.829C528.125 350.829 528.828 351.288 529.216 352.206C529.43 352.71 529.538 353.342 529.538 354.1C529.538 354.957 529.409 355.715 529.152 356.376C528.726 357.476 528.003 358.026 526.984 358.026C526.301 358.026 525.781 357.847 525.427 357.489C525.072 357.131 524.894 356.682 524.894 356.141H525.783ZM527.116 354.706C527.464 354.706 527.782 354.592 528.068 354.364C528.358 354.133 528.503 353.731 528.503 353.158C528.503 352.644 528.373 352.261 528.112 352.011C527.855 351.757 527.526 351.63 527.126 351.63C526.696 351.63 526.354 351.775 526.1 352.064C525.85 352.351 525.724 352.735 525.724 353.217C525.724 353.672 525.835 354.035 526.056 354.306C526.278 354.572 526.631 354.706 527.116 354.706Z" fill="#A3A3A3"/>
<path d="M647.802 352.88V352.206C648.436 352.144 648.879 352.042 649.13 351.898C649.38 351.752 649.568 351.408 649.691 350.868H650.385V357.831H649.447V352.88H647.802ZM652.724 357.831C652.756 357.229 652.88 356.705 653.095 356.259C653.313 355.813 653.736 355.407 654.364 355.043L655.302 354.501C655.722 354.257 656.016 354.048 656.185 353.876C656.452 353.606 656.586 353.296 656.586 352.948C656.586 352.541 656.464 352.219 656.22 351.981C655.975 351.74 655.65 351.62 655.243 351.62C654.641 351.62 654.224 351.848 653.993 352.304C653.869 352.548 653.801 352.886 653.788 353.319H652.894C652.904 352.71 653.016 352.214 653.231 351.83C653.612 351.153 654.284 350.814 655.248 350.814C656.049 350.814 656.633 351.031 657.001 351.464C657.372 351.897 657.558 352.378 657.558 352.909C657.558 353.469 657.361 353.947 656.967 354.345C656.739 354.576 656.33 354.856 655.741 355.184L655.072 355.556C654.753 355.731 654.503 355.899 654.32 356.058C653.995 356.342 653.79 356.656 653.705 357.001H657.523V357.831H652.724ZM658.832 356.766H659.852V357.831H658.832V356.766ZM663.466 350.839C664.371 350.839 665.025 351.211 665.429 351.957C665.741 352.533 665.897 353.322 665.897 354.325C665.897 355.276 665.756 356.062 665.473 356.683C665.062 357.575 664.392 358.021 663.461 358.021C662.621 358.021 661.996 357.657 661.586 356.928C661.244 356.319 661.073 355.502 661.073 354.476C661.073 353.682 661.176 353 661.381 352.431C661.765 351.369 662.46 350.839 663.466 350.839ZM663.456 357.221C663.912 357.221 664.275 357.019 664.545 356.615C664.815 356.211 664.95 355.46 664.95 354.359C664.95 353.565 664.852 352.912 664.657 352.401C664.462 351.887 664.083 351.63 663.519 351.63C663.002 351.63 662.623 351.874 662.382 352.362C662.144 352.847 662.025 353.563 662.025 354.511C662.025 355.224 662.102 355.796 662.255 356.229C662.489 356.89 662.89 357.221 663.456 357.221ZM667.655 356.141C667.681 356.627 667.868 356.962 668.217 357.147C668.396 357.245 668.598 357.294 668.822 357.294C669.242 357.294 669.6 357.12 669.896 356.771C670.193 356.42 670.403 355.709 670.526 354.638C670.331 354.947 670.088 355.165 669.799 355.292C669.512 355.416 669.203 355.477 668.871 355.477C668.197 355.477 667.663 355.267 667.269 354.848C666.879 354.428 666.683 353.887 666.683 353.226C666.683 352.592 666.877 352.033 667.265 351.552C667.652 351.07 668.223 350.829 668.978 350.829C669.997 350.829 670.7 351.288 671.088 352.206C671.303 352.71 671.41 353.342 671.41 354.1C671.41 354.957 671.281 355.715 671.024 356.376C670.598 357.476 669.875 358.026 668.856 358.026C668.173 358.026 667.654 357.847 667.299 357.489C666.944 357.131 666.766 356.682 666.766 356.141H667.655ZM668.988 354.706C669.336 354.706 669.654 354.592 669.94 354.364C670.23 354.133 670.375 353.731 670.375 353.158C670.375 352.644 670.245 352.261 669.984 352.011C669.727 351.757 669.398 351.63 668.998 351.63C668.568 351.63 668.226 351.775 667.973 352.064C667.722 352.351 667.597 352.735 667.597 353.217C667.597 353.672 667.707 354.035 667.929 354.306C668.15 354.572 668.503 354.706 668.988 354.706Z" fill="#A3A3A3"/>
<path d="M30.4598 41.0488V40.375C31.0946 40.3132 31.5373 40.2106 31.7879 40.0674C32.0386 39.9209 32.2258 39.5775 32.3495 39.0371H33.0428V46H32.1053V41.0488H30.4598ZM37.7743 39.0078C38.6792 39.0078 39.3335 39.3805 39.7372 40.126C40.0497 40.7021 40.2059 41.4915 40.2059 42.4941C40.2059 43.4447 40.0643 44.2308 39.7811 44.8525C39.3709 45.7445 38.7004 46.1904 37.7694 46.1904C36.9295 46.1904 36.3045 45.8258 35.8944 45.0967C35.5526 44.488 35.3817 43.6709 35.3817 42.6455C35.3817 41.8512 35.4842 41.1693 35.6893 40.5996C36.0734 39.5384 36.7684 39.0078 37.7743 39.0078ZM37.7645 45.3896C38.2202 45.3896 38.5832 45.1878 38.8534 44.7842C39.1235 44.3805 39.2586 43.6286 39.2586 42.5283C39.2586 41.734 39.161 41.0814 38.9657 40.5703C38.7704 40.056 38.3911 39.7988 37.828 39.7988C37.3104 39.7988 36.9312 40.043 36.6903 40.5312C36.4527 41.0163 36.3338 41.7324 36.3338 42.6797C36.3338 43.3926 36.4103 43.9655 36.5633 44.3984C36.7977 45.0592 37.1981 45.3896 37.7645 45.3896ZM43.3407 39.0078C44.2456 39.0078 44.8999 39.3805 45.3036 40.126C45.6161 40.7021 45.7723 41.4915 45.7723 42.4941C45.7723 43.4447 45.6307 44.2308 45.3475 44.8525C44.9374 45.7445 44.2668 46.1904 43.3358 46.1904C42.4959 46.1904 41.8709 45.8258 41.4608 45.0967C41.119 44.488 40.9481 43.6709 40.9481 42.6455C40.9481 41.8512 41.0506 41.1693 41.2557 40.5996C41.6398 39.5384 42.3348 39.0078 43.3407 39.0078ZM43.3309 45.3896C43.7866 45.3896 44.1496 45.1878 44.4198 44.7842C44.69 44.3805 44.825 43.6286 44.825 42.5283C44.825 41.734 44.7274 41.0814 44.5321 40.5703C44.3368 40.056 43.9575 39.7988 43.3944 39.7988C42.8768 39.7988 42.4976 40.043 42.2567 40.5312C42.0191 41.0163 41.9002 41.7324 41.9002 42.6797C41.9002 43.3926 41.9767 43.9655 42.1297 44.3984C42.3641 45.0592 42.7645 45.3896 43.3309 45.3896Z" fill="#A3A3A3"/>
<path d="M36.3973 77.523C36.4234 78.008 36.6105 78.3433 36.9588 78.5288C37.1379 78.6265 37.3397 78.6753 37.5643 78.6753C37.9842 78.6753 38.3423 78.5012 38.6385 78.1529C38.9347 77.8013 39.1447 77.09 39.2684 76.0191C39.0731 76.3283 38.8306 76.5464 38.5409 76.6734C38.2544 76.7971 37.9452 76.8589 37.6131 76.8589C36.9393 76.8589 36.4055 76.649 36.0116 76.229C35.6209 75.8091 35.4256 75.2687 35.4256 74.6079C35.4256 73.9732 35.6193 73.4149 36.0067 72.9331C36.3941 72.4514 36.9653 72.2105 37.7206 72.2105C38.7394 72.2105 39.4426 72.6695 39.8299 73.5874C40.0448 74.092 40.1522 74.7235 40.1522 75.482C40.1522 76.3381 40.0236 77.0965 39.7665 77.7574C39.34 78.8576 38.6174 79.4077 37.5985 79.4077C36.9149 79.4077 36.3957 79.2287 36.0409 78.8706C35.686 78.5126 35.5086 78.0633 35.5086 77.523H36.3973ZM37.7303 76.0874C38.0786 76.0874 38.396 75.9735 38.6825 75.7456C38.9722 75.5145 39.117 75.1125 39.117 74.5396C39.117 74.0253 38.9868 73.6428 38.7264 73.3921C38.4693 73.1382 38.1405 73.0113 37.7401 73.0113C37.3104 73.0113 36.9686 73.1561 36.7147 73.4458C36.464 73.7323 36.3387 74.1164 36.3387 74.5982C36.3387 75.0539 36.4494 75.4169 36.6707 75.687C36.8921 75.954 37.2453 76.0874 37.7303 76.0874ZM43.3407 72.2202C44.2456 72.2202 44.8999 72.593 45.3036 73.3384C45.6161 73.9146 45.7723 74.704 45.7723 75.7066C45.7723 76.6571 45.6307 77.4432 45.3475 78.065C44.9374 78.9569 44.2668 79.4029 43.3358 79.4029C42.4959 79.4029 41.8709 79.0383 41.4608 78.3091C41.119 77.7004 40.9481 76.8833 40.9481 75.8579C40.9481 75.0637 41.0506 74.3817 41.2557 73.812C41.6398 72.7508 42.3348 72.2202 43.3407 72.2202ZM43.3309 78.6021C43.7866 78.6021 44.1496 78.4003 44.4198 77.9966C44.69 77.593 44.825 76.841 44.825 75.7408C44.825 74.9465 44.7274 74.2938 44.5321 73.7827C44.3368 73.2684 43.9575 73.0113 43.3944 73.0113C42.8768 73.0113 42.4976 73.2554 42.2567 73.7437C42.0191 74.2287 41.9002 74.9449 41.9002 75.8921C41.9002 76.605 41.9767 77.1779 42.1297 77.6109C42.3641 78.2717 42.7645 78.6021 43.3309 78.6021Z" fill="#A3A3A3"/>
<path d="M37.7889 108.362C38.1763 108.362 38.479 108.255 38.6971 108.04C38.9152 107.822 39.0243 107.563 39.0243 107.264C39.0243 107.003 38.9201 106.764 38.7118 106.546C38.5034 106.328 38.186 106.219 37.7596 106.219C37.3364 106.219 37.0305 106.328 36.8416 106.546C36.6528 106.764 36.5584 107.02 36.5584 107.313C36.5584 107.641 36.6805 107.898 36.9247 108.084C37.1688 108.27 37.4569 108.362 37.7889 108.362ZM37.8426 111.824C38.2495 111.824 38.5864 111.715 38.8534 111.497C39.1235 111.276 39.2586 110.947 39.2586 110.511C39.2586 110.058 39.1203 109.715 38.8436 109.481C38.5669 109.246 38.2121 109.129 37.7791 109.129C37.3592 109.129 37.0158 109.249 36.7489 109.49C36.4852 109.728 36.3534 110.058 36.3534 110.482C36.3534 110.846 36.4738 111.162 36.7147 111.429C36.9588 111.692 37.3348 111.824 37.8426 111.824ZM36.5926 108.699C36.3485 108.595 36.1581 108.473 36.0213 108.333C35.7642 108.073 35.6356 107.734 35.6356 107.317C35.6356 106.797 35.8244 106.349 36.202 105.975C36.5796 105.6 37.1151 105.413 37.8084 105.413C38.479 105.413 39.0047 105.591 39.3856 105.945C39.7665 106.297 39.9569 106.709 39.9569 107.181C39.9569 107.617 39.8462 107.97 39.6249 108.24C39.5012 108.393 39.3091 108.543 39.0487 108.69C39.3384 108.823 39.5663 108.976 39.7323 109.148C40.0415 109.474 40.1961 109.897 40.1961 110.418C40.1961 111.033 39.9894 111.556 39.576 111.985C39.1626 112.412 38.5783 112.625 37.8231 112.625C37.1428 112.625 36.5666 112.441 36.0946 112.073C35.6258 111.702 35.3915 111.165 35.3915 110.462C35.3915 110.049 35.4924 109.692 35.6942 109.393C35.896 109.09 36.1955 108.859 36.5926 108.699ZM43.3407 105.433C44.2456 105.433 44.8999 105.805 45.3036 106.551C45.6161 107.127 45.7723 107.916 45.7723 108.919C45.7723 109.87 45.6307 110.656 45.3475 111.277C44.9374 112.169 44.2668 112.615 43.3358 112.615C42.4959 112.615 41.8709 112.251 41.4608 111.522C41.119 110.913 40.9481 110.096 40.9481 109.07C40.9481 108.276 41.0506 107.594 41.2557 107.024C41.6398 105.963 42.3348 105.433 43.3407 105.433ZM43.3309 111.815C43.7866 111.815 44.1496 111.613 44.4198 111.209C44.69 110.805 44.825 110.053 44.825 108.953C44.825 108.159 44.7274 107.506 44.5321 106.995C44.3368 106.481 43.9575 106.224 43.3944 106.224C42.8768 106.224 42.4976 106.468 42.2567 106.956C42.0191 107.441 41.9002 108.157 41.9002 109.105C41.9002 109.817 41.9767 110.39 42.1297 110.823C42.3641 111.484 42.7645 111.815 43.3309 111.815Z" fill="#A3A3A3"/>
<path d="M40.2987 137.691V138.458C40.0741 138.676 39.7746 139.055 39.4002 139.595C39.0291 140.136 38.7004 140.718 38.4139 141.343C38.1307 141.952 37.9159 142.507 37.7694 143.008C37.675 143.331 37.5529 143.85 37.4032 144.566H36.4315C36.6528 143.231 37.1411 141.903 37.8963 140.582C38.3423 139.807 38.811 139.138 39.3026 138.575H35.4354V137.691H40.2987ZM43.3407 137.574C44.2456 137.574 44.8999 137.947 45.3036 138.692C45.6161 139.268 45.7723 140.058 45.7723 141.06C45.7723 142.011 45.6307 142.797 45.3475 143.419C44.9374 144.31 44.2668 144.756 43.3358 144.756C42.4959 144.756 41.8709 144.392 41.4608 143.663C41.119 143.054 40.9481 142.237 40.9481 141.211C40.9481 140.417 41.0506 139.735 41.2557 139.166C41.6398 138.104 42.3348 137.574 43.3407 137.574ZM43.3309 143.956C43.7866 143.956 44.1496 143.754 44.4198 143.35C44.69 142.947 44.825 142.195 44.825 141.094C44.825 140.3 44.7274 139.647 44.5321 139.136C44.3368 138.622 43.9575 138.365 43.3944 138.365C42.8768 138.365 42.4976 138.609 42.2567 139.097C42.0191 139.582 41.9002 140.298 41.9002 141.246C41.9002 141.959 41.9767 142.531 42.1297 142.964C42.3641 143.625 42.7645 143.956 43.3309 143.956Z" fill="#A3A3A3"/>
<path d="M37.994 170.757C38.7752 170.757 39.3189 170.96 39.6249 171.367C39.9341 171.771 40.0887 172.188 40.0887 172.617H39.2196C39.1675 172.341 39.0845 172.124 38.9706 171.968C38.759 171.675 38.4383 171.529 38.0086 171.529C37.5171 171.529 37.1265 171.756 36.8368 172.212C36.5471 172.665 36.3859 173.314 36.3534 174.16C36.5552 173.864 36.8091 173.643 37.1151 173.496C37.395 173.366 37.7075 173.301 38.0526 173.301C38.6385 173.301 39.1496 173.488 39.5858 173.862C40.022 174.237 40.2401 174.795 40.2401 175.537C40.2401 176.172 40.0334 176.735 39.62 177.227C39.2066 177.715 38.6174 177.959 37.8524 177.959C37.1981 177.959 36.6333 177.712 36.1581 177.217C35.6828 176.719 35.4452 175.882 35.4452 174.707C35.4452 173.838 35.551 173.101 35.7625 172.495C36.1694 171.336 36.9133 170.757 37.994 170.757ZM37.9305 177.178C38.3928 177.178 38.7378 177.023 38.9657 176.714C39.1968 176.402 39.3124 176.034 39.3124 175.611C39.3124 175.252 39.2098 174.912 39.0047 174.59C38.7997 174.265 38.4269 174.102 37.8866 174.102C37.509 174.102 37.1769 174.227 36.8905 174.478C36.6073 174.728 36.4657 175.106 36.4657 175.611C36.4657 176.053 36.5943 176.426 36.8514 176.729C37.1118 177.028 37.4715 177.178 37.9305 177.178ZM43.3407 170.786C44.2456 170.786 44.8999 171.159 45.3036 171.904C45.6161 172.481 45.7723 173.27 45.7723 174.273C45.7723 175.223 45.6307 176.009 45.3475 176.631C44.9374 177.523 44.2668 177.969 43.3358 177.969C42.4959 177.969 41.8709 177.604 41.4608 176.875C41.119 176.266 40.9481 175.449 40.9481 174.424C40.9481 173.63 41.0506 172.948 41.2557 172.378C41.6398 171.317 42.3348 170.786 43.3407 170.786ZM43.3309 177.168C43.7866 177.168 44.1496 176.966 44.4198 176.563C44.69 176.159 44.825 175.407 44.825 174.307C44.825 173.513 44.7274 172.86 44.5321 172.349C44.3368 171.834 43.9575 171.577 43.3944 171.577C42.8768 171.577 42.4976 171.821 42.2567 172.31C42.0191 172.795 41.9002 173.511 41.9002 174.458C41.9002 175.171 41.9767 175.744 42.1297 176.177C42.3641 176.838 42.7645 177.168 43.3309 177.168Z" fill="#A3A3A3"/>
<path d="M36.3045 208.137C36.3631 208.639 36.5959 208.985 37.0028 209.177C37.2111 209.275 37.452 209.324 37.7254 209.324C38.2463 209.324 38.632 209.158 38.8827 208.826C39.1333 208.494 39.2586 208.126 39.2586 207.722C39.2586 207.234 39.1089 206.857 38.8094 206.59C38.5132 206.323 38.1568 206.189 37.7401 206.189C37.4374 206.189 37.1769 206.248 36.9588 206.365C36.744 206.482 36.5601 206.645 36.4071 206.853L35.6454 206.809L36.1776 203.045H39.8104V203.894H36.8368L36.5389 205.838C36.7017 205.714 36.8563 205.621 37.0028 205.559C37.2632 205.452 37.5643 205.398 37.9061 205.398C38.5474 205.398 39.091 205.605 39.537 206.018C39.9829 206.432 40.2059 206.956 40.2059 207.591C40.2059 208.251 40.0008 208.834 39.5907 209.339C39.1838 209.843 38.5327 210.095 37.6375 210.095C37.0679 210.095 36.5633 209.936 36.1239 209.617C35.6877 209.295 35.4435 208.802 35.3915 208.137H36.3045ZM43.3407 202.927C44.2456 202.927 44.8999 203.3 45.3036 204.046C45.6161 204.622 45.7723 205.411 45.7723 206.414C45.7723 207.364 45.6307 208.15 45.3475 208.772C44.9374 209.664 44.2668 210.11 43.3358 210.11C42.4959 210.11 41.8709 209.746 41.4608 209.016C41.119 208.408 40.9481 207.591 40.9481 206.565C40.9481 205.771 41.0506 205.089 41.2557 204.519C41.6398 203.458 42.3348 202.927 43.3407 202.927ZM43.3309 209.309C43.7866 209.309 44.1496 209.108 44.4198 208.704C44.69 208.3 44.825 207.548 44.825 206.448C44.825 205.654 44.7274 205.001 44.5321 204.49C44.3368 203.976 43.9575 203.719 43.3944 203.719C42.8768 203.719 42.4976 203.963 42.2567 204.451C42.0191 204.936 41.9002 205.652 41.9002 206.599C41.9002 207.312 41.9767 207.885 42.1297 208.318C42.3641 208.979 42.7645 209.309 43.3309 209.309Z" fill="#A3A3A3"/>
<path d="M38.3749 240.656V237.488L36.1336 240.656H38.3749ZM38.3895 243.132V241.423H35.3231V240.564L38.5262 236.12H39.2684V240.656H40.2987V241.423H39.2684V243.132H38.3895ZM43.3407 236.14C44.2456 236.14 44.8999 236.513 45.3036 237.258C45.6161 237.834 45.7723 238.624 45.7723 239.626C45.7723 240.577 45.6307 241.363 45.3475 241.985C44.9374 242.877 44.2668 243.323 43.3358 243.323C42.4959 243.323 41.8709 242.958 41.4608 242.229C41.119 241.62 40.9481 240.803 40.9481 239.778C40.9481 238.983 41.0506 238.301 41.2557 237.732C41.6398 236.67 42.3348 236.14 43.3407 236.14ZM43.3309 242.522C43.7866 242.522 44.1496 242.32 44.4198 241.916C44.69 241.513 44.825 240.761 44.825 239.66C44.825 238.866 44.7274 238.213 44.5321 237.702C44.3368 237.188 43.9575 236.931 43.3944 236.931C42.8768 236.931 42.4976 237.175 42.2567 237.663C42.0191 238.148 41.9002 238.865 41.9002 239.812C41.9002 240.525 41.9767 241.098 42.1297 241.531C42.3641 242.191 42.7645 242.522 43.3309 242.522Z" fill="#A3A3A3"/>
<path d="M37.6668 275.464C36.84 275.464 36.2394 275.237 35.8651 274.785C35.494 274.329 35.3084 273.776 35.3084 273.125H36.2264C36.2655 273.577 36.3501 273.906 36.4803 274.111C36.7082 274.479 37.12 274.663 37.7157 274.663C38.1779 274.663 38.549 274.539 38.829 274.292C39.1089 274.044 39.2489 273.725 39.2489 273.335C39.2489 272.853 39.1008 272.516 38.8045 272.324C38.5116 272.132 38.103 272.036 37.579 272.036C37.5204 272.036 37.4601 272.038 37.3983 272.041C37.3397 272.041 37.2795 272.042 37.2176 272.046V271.269C37.3088 271.279 37.3853 271.286 37.4471 271.289C37.509 271.292 37.5757 271.294 37.6473 271.294C37.9761 271.294 38.2463 271.242 38.4579 271.137C38.829 270.955 39.0145 270.63 39.0145 270.161C39.0145 269.813 38.8908 269.544 38.6434 269.355C38.396 269.166 38.1079 269.072 37.7791 269.072C37.1932 269.072 36.7879 269.267 36.5633 269.658C36.4396 269.873 36.3696 270.179 36.3534 270.576H35.4842C35.4842 270.055 35.5884 269.612 35.7967 269.248C36.1548 268.597 36.7847 268.271 37.6864 268.271C38.3993 268.271 38.951 268.431 39.3416 268.75C39.7323 269.066 39.9276 269.524 39.9276 270.127C39.9276 270.556 39.812 270.905 39.5809 271.172C39.4377 271.338 39.2521 271.468 39.0243 271.562C39.3921 271.663 39.6786 271.858 39.8836 272.148C40.092 272.435 40.1961 272.786 40.1961 273.203C40.1961 273.87 39.9764 274.414 39.537 274.834C39.0975 275.254 38.4741 275.464 37.6668 275.464ZM43.3407 268.281C44.2456 268.281 44.8999 268.654 45.3036 269.399C45.6161 269.975 45.7723 270.765 45.7723 271.767C45.7723 272.718 45.6307 273.504 45.3475 274.126C44.9374 275.018 44.2668 275.464 43.3358 275.464C42.4959 275.464 41.8709 275.099 41.4608 274.37C41.119 273.761 40.9481 272.944 40.9481 271.919C40.9481 271.124 41.0506 270.442 41.2557 269.873C41.6398 268.812 42.3348 268.281 43.3407 268.281ZM43.3309 274.663C43.7866 274.663 44.1496 274.461 44.4198 274.057C44.69 273.654 44.825 272.902 44.825 271.802C44.825 271.007 44.7274 270.355 44.5321 269.844C44.3368 269.329 43.9575 269.072 43.3944 269.072C42.8768 269.072 42.4976 269.316 42.2567 269.804C42.0191 270.289 41.9002 271.006 41.9002 271.953C41.9002 272.666 41.9767 273.239 42.1297 273.672C42.3641 274.332 42.7645 274.663 43.3309 274.663Z" fill="#A3A3A3"/>
<path d="M35.3817 308.486C35.4142 307.883 35.5379 307.359 35.7528 306.913C35.9709 306.467 36.3941 306.062 37.0223 305.698L37.9598 305.156C38.3797 304.911 38.6743 304.703 38.8436 304.531C39.1105 304.26 39.244 303.951 39.244 303.603C39.244 303.196 39.1219 302.874 38.8778 302.636C38.6336 302.395 38.3081 302.275 37.9012 302.275C37.299 302.275 36.8823 302.503 36.6512 302.958C36.5275 303.202 36.4592 303.541 36.4461 303.974H35.5526C35.5624 303.365 35.6747 302.869 35.8895 302.485C36.2704 301.808 36.9426 301.469 37.9061 301.469C38.7069 301.469 39.2912 301.685 39.659 302.118C40.0301 302.551 40.2157 303.033 40.2157 303.564C40.2157 304.124 40.0187 304.602 39.6249 304.999C39.397 305.23 38.9885 305.51 38.3993 305.839L37.7303 306.21C37.4113 306.386 37.1607 306.554 36.9784 306.713C36.6528 306.996 36.4478 307.31 36.3631 307.656H40.1815V308.486H35.3817ZM43.3407 301.493C44.2456 301.493 44.8999 301.866 45.3036 302.612C45.6161 303.188 45.7723 303.977 45.7723 304.98C45.7723 305.93 45.6307 306.716 45.3475 307.338C44.9374 308.23 44.2668 308.676 43.3358 308.676C42.4959 308.676 41.8709 308.311 41.4608 307.582C41.119 306.974 40.9481 306.156 40.9481 305.131C40.9481 304.337 41.0506 303.655 41.2557 303.085C41.6398 302.024 42.3348 301.493 43.3407 301.493ZM43.3309 307.875C43.7866 307.875 44.1496 307.673 44.4198 307.27C44.69 306.866 44.825 306.114 44.825 305.014C44.825 304.22 44.7274 303.567 44.5321 303.056C44.3368 302.542 43.9575 302.284 43.3944 302.284C42.8768 302.284 42.4976 302.529 42.2567 303.017C42.0191 303.502 41.9002 304.218 41.9002 305.165C41.9002 305.878 41.9767 306.451 42.1297 306.884C42.3641 307.545 42.7645 307.875 43.3309 307.875Z" fill="#A3A3A3"/>
<path d="M36.0262 335.676V335.002C36.661 334.94 37.1037 334.837 37.3543 334.694C37.605 334.548 37.7922 334.204 37.9159 333.664H38.6092V340.627H37.6717V335.676H36.0262ZM43.3407 333.635C44.2456 333.635 44.8999 334.007 45.3036 334.753C45.6161 335.329 45.7723 336.118 45.7723 337.121C45.7723 338.071 45.6307 338.858 45.3475 339.479C44.9374 340.371 44.2668 340.817 43.3358 340.817C42.4959 340.817 41.8709 340.453 41.4608 339.723C41.119 339.115 40.9481 338.298 40.9481 337.272C40.9481 336.478 41.0506 335.796 41.2557 335.226C41.6398 334.165 42.3348 333.635 43.3407 333.635ZM43.3309 340.016C43.7866 340.016 44.1496 339.815 44.4198 339.411C44.69 339.007 44.825 338.255 44.825 337.155C44.825 336.361 44.7274 335.708 44.5321 335.197C44.3368 334.683 43.9575 334.426 43.3944 334.426C42.8768 334.426 42.4976 334.67 42.2567 335.158C42.0191 335.643 41.9002 336.359 41.9002 337.306C41.9002 338.019 41.9767 338.592 42.1297 339.025C42.3641 339.686 42.7645 340.016 43.3309 340.016Z" fill="#A3A3A3"/>
<path d="M59.2518 337.984V43.3569" stroke="#F0F0F0"/>
<path d="M209.442 337.984V43.3569" stroke="#F0F0F0"/>
<path d="M360.938 337.984V43.3569" stroke="#F0F0F0"/>
<path d="M512.434 337.984V43.3569" stroke="#F0F0F0"/>
<path d="M663.93 337.984V43.3569" stroke="#F0F0F0"/>
<path d="M59.2518 43.3569H663.93" stroke="#F0F0F0"/>
<path d="M59.2518 76.5692H663.93" stroke="#F0F0F0"/>
<path d="M59.2518 109.782H663.93" stroke="#F0F0F0"/>
<path d="M59.2518 141.923H663.93" stroke="#F0F0F0"/>
<path d="M59.2518 175.135H663.93" stroke="#F0F0F0"/>
<path d="M59.2518 207.276H663.93" stroke="#F0F0F0"/>
<path d="M59.2518 240.489H663.93" stroke="#F0F0F0"/>
<path d="M59.2518 272.63H663.93" stroke="#F0F0F0"/>
<path d="M59.2518 305.842H663.93" stroke="#F0F0F0"/>
<path d="M59.2518 337.984H663.93" stroke="#F0F0F0"/>
<path d="M59.2518 63.7129C59.2518 63.7129 133.694 315.485 209.442 315.485C285.19 315.485 285.19 275.844 360.938 275.844C436.686 275.844 436.686 76.5694 512.434 76.5694C588.182 76.5694 663.93 227.633 663.93 227.633" stroke="#27AE60" stroke-width="2"/>
<path d="M54.038 64.0665C54.038 65.2031 54.5884 66.2932 55.5681 67.0968C56.5478 67.9005 57.8765 68.352 59.262 68.352C60.6475 68.352 61.9761 67.9005 62.9558 67.0968C63.9355 66.2932 64.486 65.2031 64.486 64.0665C64.486 62.93 63.9355 61.84 62.9558 61.0363C61.9761 60.2326 60.6475 59.7811 59.262 59.7811C57.8765 59.7811 56.5478 60.2326 55.5681 61.0363C54.5884 61.84 54.038 62.93 54.038 64.0665Z" fill="#27AE60"/>
<path d="M205.371 316.136C205.371 317.273 205.921 318.363 206.901 319.166C207.88 319.97 209.209 320.422 210.595 320.422C211.98 320.422 213.309 319.97 214.289 319.166C215.268 318.363 215.819 317.273 215.819 316.136C215.819 314.999 215.268 313.909 214.289 313.106C213.309 312.302 211.98 311.851 210.595 311.851C209.209 311.851 207.88 312.302 206.901 313.106C205.921 313.909 205.371 314.999 205.371 316.136Z" fill="#27AE60"/>
<path d="M356.703 276.852C356.703 277.989 357.254 279.079 358.234 279.883C359.213 280.686 360.542 281.138 361.927 281.138C363.313 281.138 364.642 280.686 365.621 279.883C366.601 279.079 367.151 277.989 367.151 276.852C367.151 275.716 366.601 274.626 365.621 273.822C364.642 273.019 363.313 272.567 361.927 272.567C360.542 272.567 359.213 273.019 358.234 273.822C357.254 274.626 356.703 275.716 356.703 276.852Z" fill="#27AE60"/>
<path d="M508.036 77.1611C508.036 78.2977 508.587 79.3877 509.566 80.1914C510.546 80.9951 511.875 81.4466 513.26 81.4466C514.646 81.4466 515.974 80.9951 516.954 80.1914C517.934 79.3877 518.484 78.2977 518.484 77.1611C518.484 76.0245 517.934 74.9345 516.954 74.1308C515.974 73.3271 514.646 72.8756 513.26 72.8756C511.875 72.8756 510.546 73.3271 509.566 74.1308C508.587 74.9345 508.036 76.0245 508.036 77.1611Z" fill="#27AE60"/>
<path d="M659.369 227.748C659.369 228.885 659.919 229.975 660.899 230.778C661.879 231.582 663.208 232.033 664.593 232.033C665.979 232.033 667.307 231.582 668.287 230.778C669.267 229.975 669.817 228.885 669.817 227.748C669.817 226.611 669.267 225.521 668.287 224.718C667.307 223.914 665.979 223.463 664.593 223.463C663.208 223.463 661.879 223.914 660.899 224.718C659.919 225.521 659.369 226.611 659.369 227.748Z" fill="#27AE60"/>
</svg>
