<svg width="24" height="25" viewBox="0 0 24 25" fill="none" xmlns="http://www.w3.org/2000/svg">
<path fill-rule="evenodd" clip-rule="evenodd" d="M20 6.5H16V4.55882C16 3.43414 15.1178 2.5 14 2.5H4C2.88225 2.5 2 3.43414 2 4.55882V20.4412C2 21.5659 2.88225 22.5 4 22.5H14C15.1178 22.5 16 21.5659 16 20.4412V18.5H20C21.1046 18.5 22 17.6046 22 16.5V8.5C22 7.39543 21.1046 6.5 20 6.5ZM16 11.5H20V16.5H16V11.5ZM14 20.4412V4.55882C14 4.53888 13.9974 4.52504 13.9957 4.51582C13.9935 4.50431 13.9927 4.5 14 4.5H4C4.00732 4.5 4.00651 4.50431 4.00434 4.51582C4.00261 4.52504 4 4.53888 4 4.55882V20.4412C4 20.4611 4.00261 20.475 4.00434 20.4842C4.00651 20.4957 4.00732 20.5 4 20.5H14C13.9927 20.5 13.9935 20.4957 13.9957 20.4842C13.9974 20.475 14 20.4611 14 20.4412ZM5 17.5V19.5H7V17.5H5ZM8 19.5V17.5H10V19.5H8ZM11 17.5V19.5H13V17.5H11ZM5 16.5V14.5H7V16.5H5ZM8 14.5V16.5H10V14.5H8ZM11 16.5V14.5H13V16.5H11ZM13 13.5V5.5H5V13.5H13ZM7 7.5V11.5H11V7.5H7ZM20 8.5V9.5H16V8.5H20Z" fill="#27AE60"/>
</svg>
