<svg width="20" height="21" viewBox="0 0 20 21" fill="none" xmlns="http://www.w3.org/2000/svg">
<path fill-rule="evenodd" clip-rule="evenodd" d="M1.81818 0.5H18.1818C19.186 0.5 20 1.49492 20 2.72222V9.5V11.5V18.2778C20 19.5051 19.186 20.5 18.1818 20.5H1.81818C0.814028 20.5 0 19.5051 0 18.2778V2.72222C0 1.49492 0.814028 0.5 1.81818 0.5ZM18 9.5V2.5H2V9.5H5.41421L7.66269 11.7485L10.7622 4.51627L14.5 9.5H18ZM2 11.5H4.58579L8.33731 15.2515L11.2378 8.48373L13.5 11.5H18V18.5H2V11.5Z" fill="#060606"/>
</svg>
