<svg width="24" height="25" viewBox="0 0 24 25" fill="none" xmlns="http://www.w3.org/2000/svg">
<path fill-rule="evenodd" clip-rule="evenodd" d="M1 12.5C1 18.5751 5.92487 23.5 12 23.5C18.0751 23.5 23 18.5751 23 12.5C23 6.42487 18.0751 1.5 12 1.5C5.92487 1.5 1 6.42487 1 12.5ZM21 12.5C21 17.4706 16.9706 21.5 12 21.5C7.02944 21.5 3 17.4706 3 12.5C3 7.52944 7.02944 3.5 12 3.5C16.9706 3.5 21 7.52944 21 12.5ZM12.0321 19.5C8.67459 19.5 6.80643 17.7316 6.80643 14.5V13.5H17.1158L17.1434 14.4715C17.2358 17.7145 15.4003 19.5 12.0321 19.5ZM15.0875 15.5C14.8526 16.8955 13.9089 17.5 12.0321 17.5C10.1563 17.5 9.18179 16.8902 8.89677 15.5H15.0875ZM14 8.5H17V10.5H14V8.5ZM10 8.5H7V10.5H10V8.5Z" fill="#27AE60"/>
</svg>
