<svg width="22" height="23" viewBox="0 0 22 23" fill="none" xmlns="http://www.w3.org/2000/svg">
<path fill-rule="evenodd" clip-rule="evenodd" d="M11 22.5C4.92487 22.5 0 17.5751 0 11.5C0 5.42487 4.92487 0.5 11 0.5C17.0751 0.5 22 5.42487 22 11.5C22 17.5751 17.0751 22.5 11 22.5ZM11 20.5C15.9706 20.5 20 16.4706 20 11.5C20 6.52944 15.9706 2.5 11 2.5C6.02944 2.5 2 6.52944 2 11.5C2 16.4706 6.02944 20.5 11 20.5ZM12 14.5C12 16.1569 13.3431 17.5 15 17.5C16.6569 17.5 18 16.1569 18 14.5C18 12.8431 16.6569 11.5 15 11.5C13.3431 11.5 12 12.8431 12 14.5ZM15 15.5C15.5523 15.5 16 15.0523 16 14.5C16 13.9477 15.5523 13.5 15 13.5C14.4477 13.5 14 13.9477 14 14.5C14 15.0523 14.4477 15.5 15 15.5ZM4 8.5C4 10.1569 5.34315 11.5 7 11.5C8.65685 11.5 10 10.1569 10 8.5C10 6.84315 8.65685 5.5 7 5.5C5.34315 5.5 4 6.84315 4 8.5ZM7 9.5C7.55228 9.5 8 9.05229 8 8.5C8 7.94772 7.55228 7.5 7 7.5C6.44772 7.5 6 7.94772 6 8.5C6 9.05229 6.44772 9.5 7 9.5ZM9.11803 17.5L15.118 5.5H12.882L6.88197 17.5H9.11803Z" fill="#27AE60"/>
</svg>
